<svg width="400" height="359" viewBox="0 0 400 359" fill="none" xmlns="http://www.w3.org/2000/svg">
<path d="M110.046 358.208V322.293H121.497C123.703 322.293 125.384 322.713 126.749 323.554C128.115 324.394 129.166 325.549 129.796 327.124C130.426 328.699 130.846 330.485 130.846 332.69C130.846 335.21 130.426 337.31 129.586 338.676C128.745 340.146 127.485 341.196 126.014 341.721C124.543 342.246 122.757 342.666 120.866 342.666H117.505V358.208H110.046ZM117.4 337.52H119.921C120.971 337.52 121.812 337.31 122.337 336.995C122.862 336.68 123.283 336.155 123.493 335.42C123.703 334.685 123.808 333.74 123.808 332.585C123.808 331.535 123.703 330.59 123.598 329.854C123.388 329.119 123.072 328.489 122.547 328.174C122.022 327.754 121.076 327.544 119.921 327.544H117.4V337.52Z" fill="white"/>
<path d="M134.523 358.208V322.293H143.873C146.289 322.293 148.391 322.608 150.071 323.133C151.752 323.659 153.118 324.604 154.063 326.074C155.009 327.439 155.429 329.434 155.429 331.85C155.429 333.32 155.324 334.685 155.009 335.735C154.799 336.89 154.274 337.835 153.643 338.676C153.013 339.516 152.067 340.146 150.912 340.671L155.849 358.208H148.391L144.293 341.931H141.772V358.208H134.523ZM141.877 337.625H143.978C145.134 337.625 146.079 337.415 146.815 337.1C147.445 336.68 147.97 336.155 148.285 335.315C148.601 334.58 148.706 333.53 148.706 332.375C148.706 330.695 148.391 329.434 147.76 328.594C147.13 327.754 145.974 327.334 144.398 327.334H141.877V337.625Z" fill="white"/>
<path d="M170.452 358.733C167.825 358.733 165.724 358.208 164.149 357.263C162.573 356.318 161.522 354.953 160.892 353.168C160.262 351.382 159.841 349.282 159.841 346.867V333.425C159.841 331.01 160.156 328.909 160.892 327.124C161.522 325.339 162.678 324.079 164.149 323.134C165.724 322.188 167.72 321.768 170.452 321.768C173.078 321.768 175.179 322.188 176.755 323.134C178.331 324.079 179.381 325.444 180.117 327.124C180.747 328.804 181.167 330.905 181.167 333.425V346.867C181.167 349.282 180.852 351.382 180.117 353.168C179.486 354.953 178.331 356.318 176.755 357.263C175.179 358.208 173.078 358.733 170.452 358.733ZM170.452 353.483C171.397 353.483 172.133 353.273 172.553 352.853C172.973 352.432 173.288 351.802 173.393 351.172C173.498 350.437 173.603 349.702 173.603 348.862V331.85C173.603 331.01 173.498 330.275 173.393 329.539C173.288 328.804 172.973 328.279 172.553 327.859C172.133 327.439 171.397 327.229 170.452 327.229C169.611 327.229 168.876 327.439 168.456 327.859C168.035 328.279 167.72 328.909 167.615 329.539C167.51 330.275 167.405 331.01 167.405 331.85V348.862C167.405 349.702 167.51 350.437 167.615 351.172C167.72 351.907 168.035 352.432 168.456 352.853C168.876 353.273 169.506 353.483 170.452 353.483Z" fill="white"/>
<path d="M192.303 356.633C190.727 356.633 189.467 356.423 188.521 355.898C187.576 355.373 186.945 354.743 186.63 353.798C186.315 352.853 186.105 351.697 186.105 350.437V337.31H183.794V333.32H186.105V326.284H192.198V333.32H195.56V337.31H192.198V349.807C192.198 350.542 192.408 351.067 192.723 351.382C193.038 351.697 193.564 351.802 194.194 351.802C194.509 351.802 194.824 351.802 195.14 351.697C195.455 351.592 195.665 351.592 195.98 351.592V356.318C195.56 356.423 195.034 356.423 194.404 356.528C193.669 356.633 192.933 356.633 192.303 356.633Z" stroke="white" stroke-width="1.2" stroke-miterlimit="10"/>
<path d="M206.38 356.843C204.699 356.843 203.334 356.528 202.178 355.898C201.022 355.268 200.077 354.428 199.552 353.273C198.921 352.117 198.606 350.752 198.606 348.967V340.671C198.606 338.991 198.921 337.52 199.552 336.365C200.182 335.21 201.022 334.37 202.178 333.74C203.334 333.11 204.804 332.795 206.38 332.795C208.061 332.795 209.427 333.11 210.582 333.74C211.738 334.37 212.683 335.21 213.209 336.365C213.839 337.52 214.154 338.886 214.154 340.671V348.967C214.154 350.647 213.839 352.117 213.209 353.273C212.578 354.428 211.738 355.268 210.582 355.898C209.427 356.528 208.061 356.843 206.38 356.843ZM206.38 352.748C206.905 352.748 207.221 352.642 207.536 352.327C207.851 352.012 207.956 351.697 208.061 351.172C208.166 350.647 208.166 350.122 208.166 349.492V340.356C208.166 339.726 208.166 339.096 208.061 338.676C207.956 338.15 207.851 337.835 207.536 337.52C207.221 337.205 206.905 337.1 206.38 337.1C205.855 337.1 205.54 337.205 205.225 337.52C204.909 337.835 204.804 338.15 204.699 338.676C204.594 339.201 204.594 339.726 204.594 340.356V349.492C204.594 350.122 204.594 350.647 204.699 351.172C204.804 351.697 205.014 352.012 205.225 352.327C205.54 352.642 205.96 352.748 206.38 352.748Z" stroke="white" stroke-width="1.2" stroke-miterlimit="10"/>
<path d="M218.566 358.208V322.293H230.017C232.223 322.293 233.904 322.713 235.27 323.554C236.636 324.394 237.686 325.549 238.316 327.124C238.947 328.699 239.367 330.485 239.367 332.69C239.367 335.21 238.947 337.31 238.106 338.676C237.266 340.146 236.005 341.196 234.535 341.721C233.064 342.246 231.278 342.666 229.387 342.666H225.815V358.208H218.566ZM225.815 337.52H228.336C229.387 337.52 230.227 337.31 230.753 336.995C231.278 336.68 231.698 336.155 231.908 335.42C232.118 334.685 232.223 333.74 232.223 332.585C232.223 331.535 232.118 330.59 232.013 329.854C231.803 329.119 231.488 328.489 230.963 328.174C230.437 327.754 229.492 327.544 228.336 327.544H225.815V337.52Z" fill="#DC002E"/>
<path d="M243.044 358.208V322.293H252.394C254.81 322.293 256.911 322.608 258.592 323.133C260.273 323.659 261.638 324.604 262.584 326.074C263.529 327.439 263.95 329.434 263.95 331.85C263.95 333.32 263.845 334.685 263.529 335.735C263.319 336.89 262.794 337.835 262.164 338.676C261.533 339.516 260.588 340.146 259.432 340.671L264.37 358.208H256.911L252.814 341.931H250.293V358.208H243.044ZM250.293 337.625H252.394C253.549 337.625 254.495 337.415 255.23 337.1C255.86 336.68 256.386 336.155 256.701 335.315C257.016 334.58 257.121 333.53 257.121 332.375C257.121 330.695 256.806 329.434 256.176 328.594C255.545 327.754 254.39 327.334 252.814 327.334H250.293V337.625Z" fill="#DC002E"/>
<path d="M278.867 358.733C276.241 358.733 274.14 358.208 272.564 357.263C270.988 356.318 269.938 354.953 269.307 353.168C268.677 351.382 268.257 349.282 268.257 346.867V333.425C268.257 331.01 268.572 328.909 269.307 327.124C269.938 325.339 271.093 324.079 272.564 323.134C274.14 322.188 276.136 321.768 278.867 321.768C281.494 321.768 283.595 322.188 285.17 323.134C286.746 324.079 287.797 325.444 288.532 327.124C289.163 328.804 289.583 330.905 289.583 333.425V346.867C289.583 349.282 289.268 351.382 288.532 353.168C287.902 354.953 286.746 356.318 285.17 357.263C283.7 358.208 281.599 358.733 278.867 358.733ZM278.867 353.483C279.813 353.483 280.548 353.273 280.968 352.853C281.389 352.432 281.704 351.802 281.809 351.172C281.914 350.437 282.019 349.702 282.019 348.862V331.85C282.019 331.01 281.914 330.275 281.809 329.539C281.704 328.804 281.389 328.279 280.968 327.859C280.548 327.439 279.813 327.229 278.867 327.229C278.027 327.229 277.291 327.439 276.871 327.859C276.451 328.279 276.136 328.909 276.031 329.539C275.926 330.275 275.821 331.01 275.821 331.85V348.862C275.821 349.702 275.926 350.437 276.031 351.172C276.136 351.907 276.451 352.432 276.871 352.853C277.291 353.273 278.027 353.483 278.867 353.483Z" fill="#DC002E"/>
<path d="M1.52539 13.9716H43.9671L44.3873 13.7616L48.9046 17.2271C48.6945 17.5421 48.4844 17.6471 48.0642 17.8571C42.7064 42.9555 31.1505 55.9773 10.6651 63.7484C9.92969 62.5932 8.56399 60.808 7.61851 59.7578C27.0534 52.7219 38.2942 40.2252 42.7064 18.5922H1.52539V13.9716ZM52.3714 2C56.3634 2 59.6201 5.25544 59.6201 9.351C59.6201 13.3415 56.3634 16.597 52.3714 16.597C48.2743 16.597 45.0176 13.3415 45.0176 9.351C45.0176 5.15043 48.4844 2 52.3714 2ZM57.519 9.351C57.519 6.51561 55.2078 4.2053 52.4764 4.2053C49.64 4.2053 47.3288 6.51561 47.3288 9.351C47.3288 12.1864 49.64 14.4967 52.4764 14.4967C55.3129 14.4967 57.519 11.9764 57.519 9.351Z" stroke="white" stroke-width="2.4" stroke-miterlimit="10" stroke-linecap="round" stroke-linejoin="round"/>
<path d="M118.345 15.0217V59.1277H113.513V54.9271H76.7439V59.2327H72.0165V15.0217H118.345ZM113.513 50.4115V19.4323H76.7439V50.3065H113.513V50.4115Z" stroke="white" stroke-width="2.4" stroke-miterlimit="10" stroke-linecap="round" stroke-linejoin="round"/>
<path d="M158.896 7.1457C158.791 7.98582 157.95 8.30086 156.69 8.30086C155.954 12.0814 154.799 18.4872 153.958 22.4778C157.005 22.1627 159.736 21.8477 161.417 21.8477C171.607 21.7427 175.074 28.4636 175.074 38.4399C175.074 43.4806 174.129 49.3614 172.763 53.352C170.662 60.1779 166.46 63.4333 160.892 63.4333C158.161 63.4333 154.589 62.2782 148.811 57.6575C149.546 56.5024 150.071 55.0322 150.597 53.562C155.954 57.6575 158.791 58.6027 160.787 58.6027C164.569 58.6027 166.88 56.1873 168.246 51.8818C169.611 47.7862 170.347 41.5904 170.347 38.2299C170.242 30.5639 167.825 26.0483 161.102 26.1533C159.106 26.1533 156.375 26.4683 152.908 26.7834C149.546 40.4352 145.659 52.0918 139.251 62.8032L134.839 60.703C141.352 50.3065 145.029 40.0152 148.18 27.3084C144.819 27.7285 139.881 28.3586 136.309 28.8836L135.889 24.158C139.146 23.7379 144.609 23.1079 149.126 22.5828C150.176 17.7521 151.227 11.6613 151.962 5.78052L158.896 7.1457ZM189.887 39.2801C187.786 29.5137 181.377 21.2176 174.864 16.387L178.436 13.5516C185.475 18.5923 192.513 27.7285 194.719 37.2848L189.887 39.2801Z" stroke="white" stroke-width="2.4" stroke-miterlimit="10" stroke-linecap="round" stroke-linejoin="round"/>
<path d="M216.675 18.3822C216.36 19.0123 215.835 19.4324 214.89 19.5374C214.364 29.4087 213.104 37.8099 212.158 39.2801H212.263C218.777 34.4494 229.072 31.089 236.846 31.089C247.141 31.089 253.549 36.3397 253.444 45.6859C253.234 57.9726 243.044 63.4333 217.201 64.4835C216.886 63.2233 216.255 61.3331 215.52 60.0729C238.842 59.0227 248.192 55.2422 248.402 45.6859C248.507 39.2801 243.989 35.3945 236.215 35.3945C223.819 35.3945 212.683 42.8505 210.792 46.106L206.275 43.9007C207.641 42.6405 209.952 30.6689 210.057 17.5421L216.675 18.3822ZM217.831 5.36047C226.866 6.41062 237.161 8.5109 243.779 11.2413L242.098 15.8619C235.165 12.9215 225.29 11.0312 216.465 9.77107L217.831 5.36047Z" stroke="white" stroke-width="2.4" stroke-miterlimit="10" stroke-linecap="round" stroke-linejoin="round"/>
<path d="M325.721 43.3755V47.5761H297.987V60.4928C297.987 66.0586 294.73 66.1636 282.439 66.1636C282.124 64.9034 281.284 63.0132 280.548 61.753C283.91 61.858 286.956 61.963 289.057 61.963C292.944 61.963 293.365 61.963 293.365 60.4928V47.5761H265.946V43.3755H293.365V37.5997L296.516 37.8098C299.878 36.0245 303.45 33.7142 306.181 31.5089H277.081V27.5184H310.909L311.749 27.2033L315.216 29.4086C315.006 29.7237 314.586 29.9337 314.165 30.0387C310.173 33.8192 303.87 38.1248 297.882 41.0652V43.3755H325.721ZM271.934 19.4323V30.1437H267.627V15.3367H278.027C276.766 12.7114 274.245 9.14088 272.039 6.62054L275.821 4.8353C278.447 7.7757 281.389 11.7662 282.544 14.3916L280.653 15.4417H294.835C293.785 12.3963 291.579 8.30077 289.583 5.25535L293.47 3.78516C295.886 7.14561 298.302 11.5562 299.143 14.4966L296.831 15.5467H308.492C311.119 12.5013 314.375 7.7757 316.161 4.62527C320.363 6.20048 320.889 6.51553 321.414 6.83057C321.204 7.25063 320.679 7.46065 320.048 7.35564C318.367 9.77097 315.951 12.9214 313.64 15.5467H324.566V30.3538H320.153V19.4323H271.934Z" stroke="white" stroke-width="2.4" stroke-miterlimit="10" stroke-linecap="round" stroke-linejoin="round"/>
<path d="M335.491 53.772C339.483 51.2517 346.417 46.001 351.775 41.0653L354.086 44.6358C349.673 48.7313 343.37 53.877 339.798 56.6074C339.903 57.3425 339.588 57.9726 339.063 58.3926L335.491 53.772ZM354.086 5.88553C360.599 9.98109 370.684 13.3415 379.194 13.9716L378.248 18.2772C377.198 18.1722 376.357 18.0672 375.412 18.0672C372.05 18.0672 369.424 19.2223 365.326 23.1079L361.334 21.4276C363.12 19.5374 365.957 17.3321 368.058 16.492C363.33 15.4418 357.132 13.1315 351.564 9.56103L354.086 5.88553ZM362.805 27.3084C361.65 29.1987 361.019 30.8789 361.019 32.3491C361.019 35.0795 362.91 37.3898 367.428 40.5402C372.89 44.2157 375.412 48.7313 375.412 53.562C375.412 59.7578 370.684 63.7484 364.486 63.7484C361.124 63.7484 357.447 62.3832 351.564 59.2328C352.09 58.1826 352.51 56.7124 352.825 55.3472C358.393 58.2876 361.755 59.3378 363.961 59.3378C368.163 59.3378 370.474 56.8174 370.474 53.352C370.474 50.3065 368.268 46.316 363.436 42.9556C358.603 39.5951 356.187 36.4447 356.187 32.6642C356.187 30.5639 356.922 28.2536 358.498 25.6282L362.805 27.3084ZM377.933 35.2895C385.602 38.3349 392.851 44.7408 396.002 53.772L391.695 56.1873C388.859 47.9962 382.345 41.3803 375.517 38.86L377.933 35.2895ZM381.19 7.04069C384.761 9.87607 388.333 13.5516 390.224 16.492L387.703 18.4872C385.812 15.4418 382.45 11.6613 378.878 8.93095L381.19 7.04069ZM389.384 2.73511C392.956 5.57049 396.317 8.93095 398.313 12.0814L395.792 14.0766C393.796 10.8212 390.539 7.46075 387.073 4.73038L389.384 2.73511Z" stroke="white" stroke-width="2.4" stroke-miterlimit="10" stroke-linecap="round" stroke-linejoin="round"/>
<path d="M50.0603 137.048L50.3754 138.939C46.3834 140.199 42.0762 141.459 39.3448 142.194C39.3448 142.509 39.1347 142.614 38.9246 142.719L37.874 140.304C39.3448 139.989 41.1307 139.464 43.2318 138.939V130.537H38.9246V128.437H43.2318V121.086H38.5043V118.986H49.9552V121.086H45.4379V128.437H49.64V130.432H45.4379V138.309L50.0603 137.048ZM56.9938 138.204C56.8888 138.414 56.6786 138.624 56.3635 138.624C55.5231 142.824 53.8422 146.08 47.539 147.865C47.3289 147.34 46.6985 146.395 46.2783 145.975C52.0563 144.609 53.7371 141.879 54.3675 137.888L56.9938 138.204ZM62.4566 144.714C62.4566 145.554 62.5617 145.659 63.5071 145.659H66.3436C67.184 145.659 67.2891 145.134 67.3941 141.669C67.8143 141.984 68.7598 142.404 69.2851 142.509C69.075 146.5 68.5497 147.55 66.5537 147.55H63.192C60.8808 147.55 60.3555 146.92 60.3555 144.714V137.048H51.531V118.776H67.079V137.048H62.4566V144.714ZM53.6321 120.666V124.237H64.8728V120.666H53.6321ZM53.6321 126.127V129.697H64.8728V126.127H53.6321ZM53.6321 131.588V135.263H64.8728V131.588H53.6321Z" fill="white"/>
<path d="M80.8409 136.628L84.4127 134.948C84.5178 135.158 84.5178 135.368 84.8329 136.838C81.4712 138.518 77.7943 140.199 75.4831 141.249C75.4831 141.459 75.273 141.669 75.168 141.774L74.1174 139.359C75.3781 138.834 76.9539 138.203 78.7398 137.468V126.547H74.7478V124.447H78.7398V117.306L81.4712 117.516C81.4712 117.726 81.2611 117.831 80.8409 117.936V124.447H84.5178V126.547H80.8409V136.628ZM104.898 132.953H91.0311C90.6109 133.793 90.0856 134.633 89.5603 135.473H102.587H103.007L104.268 135.683L104.163 136.313C103.638 143.454 103.112 146.08 102.167 147.025C101.326 147.865 100.591 147.865 98.8051 147.865C98.2798 147.865 97.5444 147.865 96.9141 147.76C96.9141 147.235 96.704 146.395 96.3888 145.869C97.6495 145.975 98.8051 145.974 99.3303 145.974C99.8556 145.974 100.066 145.974 100.381 145.659C101.011 145.029 101.431 142.824 101.957 137.363H99.0152C97.7545 141.459 95.2332 145.869 92.5018 148.075C92.0816 147.655 91.4513 147.13 90.821 146.815C93.4473 144.924 95.8636 141.144 97.1242 137.363H93.6574C91.8715 140.934 88.7199 144.609 85.6733 146.71C85.3582 146.29 84.7279 145.659 84.2026 145.344C87.039 143.769 89.9805 140.619 91.7665 137.468H88.1946C86.8289 139.044 85.2531 140.514 83.5723 141.564C83.2571 141.249 82.6268 140.619 82.2066 140.199C84.8329 138.623 87.3542 135.998 88.93 133.058H83.9925V131.167H105.003V132.953H104.898ZM102.482 118.356V129.067H87.2491V118.356H102.482ZM100.381 122.871V120.036H89.2452V122.871H100.381ZM100.381 127.282V124.447H89.2452V127.282H100.381Z" fill="white"/>
<path d="M119.921 127.912C121.392 130.012 122.967 132.848 123.598 134.738L121.812 135.578C121.602 134.948 121.392 134.318 121.076 133.583C120.026 133.688 118.975 133.688 118.03 133.793V147.865H116.034V133.898C114.143 134.003 112.567 134.108 111.201 134.108C111.201 134.423 110.991 134.423 110.781 134.528L110.151 132.113H112.462C113.197 131.272 113.933 130.222 114.773 129.067C113.723 127.597 112.042 125.602 110.571 124.237L111.727 122.871C112.042 123.186 112.462 123.501 112.777 123.816C113.933 121.926 115.193 119.301 115.929 117.411L118.24 118.356C118.135 118.566 117.925 118.671 117.505 118.671C116.664 120.561 115.193 123.186 113.933 125.077C114.668 125.917 115.404 126.652 115.929 127.387C117.295 125.287 118.66 122.976 119.606 121.191L121.917 122.241C121.812 122.451 121.602 122.556 121.182 122.556C119.501 125.392 116.874 129.277 114.563 132.113L120.236 132.008C119.606 130.852 118.975 129.697 118.345 128.752L119.921 127.912ZM114.668 136.838C114.563 137.048 114.353 137.153 114.038 137.153C113.618 139.989 112.777 143.139 111.832 145.029C111.412 144.714 110.676 144.399 110.151 144.189C111.096 142.299 111.832 139.149 112.252 136.208L114.668 136.838ZM121.497 143.244C121.182 141.459 120.236 138.728 119.291 136.733L120.971 136.208C121.917 138.308 122.862 140.934 123.283 142.719L121.497 143.244ZM132.737 139.044V144.819H141.037V146.815H122.232V144.819H130.531V139.044H124.123V137.048H130.531V132.113L133.368 132.323C133.368 132.533 133.158 132.743 132.737 132.743V137.048H139.461V139.044H132.737ZM138.095 118.986L139.671 119.721C139.566 119.826 139.461 120.036 139.356 120.036C138.095 123.501 135.994 126.337 133.368 128.647C135.679 130.222 138.41 131.377 141.457 132.008C141.037 132.428 140.406 133.373 140.091 133.898C136.835 133.058 134.103 131.798 131.687 130.012C129.376 131.693 126.749 132.953 123.913 133.898C123.598 133.373 123.072 132.533 122.652 132.113C125.279 131.272 127.8 130.117 130.006 128.647C128.01 126.757 126.329 124.342 125.279 121.611L126.749 121.191H123.283V119.196H137.78L138.095 118.986ZM127.17 121.086C128.22 123.501 129.691 125.497 131.687 127.282C133.683 125.602 135.364 123.501 136.414 121.086H127.17Z" fill="white"/>
<path d="M149.441 138.098C149.231 141.039 148.916 144.189 147.655 145.974L146.289 145.239C147.445 143.559 147.865 140.619 147.97 137.783L149.441 138.098ZM159.316 133.793L160.367 133.898C160.367 134.108 160.262 134.318 160.262 134.633C159.841 143.139 159.526 146.08 158.686 147.025C158.161 147.76 157.635 147.865 155.744 147.865C155.219 147.865 154.484 147.865 153.853 147.76C153.748 147.235 153.643 146.395 153.328 145.974C154.484 146.08 155.534 146.08 156.059 146.08C157.32 146.08 157.53 144.714 157.845 141.354L156.69 141.774C156.375 140.514 155.534 138.729 154.799 137.363L155.954 136.943C156.795 138.203 157.53 139.989 157.845 141.144C157.95 139.779 158.055 137.888 158.161 135.578H150.176V136.418H148.285V118.566H160.051V120.456H155.429V123.606H159.316V125.392H155.429V128.542H159.316V130.327H155.429V133.583H158.896L159.316 133.793ZM153.643 120.561H150.176V123.711H153.643V120.561ZM153.643 128.752V125.602H150.176V128.752H153.643ZM150.176 130.537V133.793H153.643V130.537H150.176ZM150.807 144.504C150.912 142.824 150.702 140.304 150.281 138.308L151.542 138.203C151.857 140.094 152.172 142.719 152.067 144.294L150.807 144.504ZM153.853 137.678C154.589 139.359 155.114 141.669 155.219 143.034L153.958 143.349C153.748 141.879 153.223 139.674 152.593 137.993L153.853 137.678ZM170.137 117.516C170.137 117.726 169.927 117.831 169.716 117.936C171.502 120.876 174.864 124.132 177.806 125.812C177.385 126.337 176.86 127.177 176.545 127.702C173.603 125.812 170.347 122.451 168.456 119.406C166.88 122.346 163.833 125.812 160.577 127.912C160.367 127.387 159.841 126.652 159.421 126.127C162.678 124.132 165.934 120.561 167.405 117.306L170.137 117.516ZM175.915 138.518H170.557C171.817 141.984 174.234 144.819 177.595 146.185C177.07 146.605 176.44 147.445 176.125 147.97C172.763 146.395 170.347 143.349 168.876 139.569C167.93 142.719 165.829 145.764 161.102 147.97C160.787 147.55 160.157 146.815 159.736 146.395C164.359 144.294 166.25 141.459 166.985 138.518H161.522V130.222H167.51V127.702H163.413V125.812H173.814V127.702H169.506V130.222H175.81V138.518H175.915ZM163.518 136.628H167.51C167.615 135.578 167.72 134.633 167.72 133.583V132.008H163.623V136.628H163.518ZM174.024 132.008H169.716V133.583C169.716 134.633 169.716 135.578 169.611 136.628H174.129V132.008H174.024Z" fill="white"/>
<path d="M206.17 142.299C206.065 142.509 205.855 142.614 205.435 142.614C204.909 143.454 204.174 144.399 203.544 145.344H213.209V147.13H183.058V145.239H192.408C191.988 144.294 191.357 143.034 190.727 142.194L192.408 141.564H187.891V135.263H208.271V141.564H204.279L206.17 142.299ZM212.578 131.693V133.373H183.689V131.693H212.578ZM209.532 120.036V129.907H186.63V120.036H193.564V117.306L196.085 117.516C196.085 117.726 195.875 117.936 195.455 117.936V120.036H200.392V117.306L202.913 117.516C202.913 117.726 202.703 117.936 202.283 117.936V120.036H209.532ZM188.731 121.611V124.027H193.669V121.611H188.731ZM188.731 125.707V128.227H193.669V125.707H188.731ZM189.992 136.838V139.989H206.065V136.838H189.992ZM201.443 145.134C202.178 144.189 203.123 142.614 203.754 141.564H192.618C193.459 142.719 194.194 144.189 194.509 145.134L194.299 145.239H201.548L201.443 145.134ZM200.497 121.611H195.56V124.027H200.497V121.611ZM200.497 125.707H195.56V128.227H200.497V125.707ZM207.536 124.027V121.611H202.388V124.027H207.536ZM207.536 128.227V125.707H202.388V128.227H207.536Z" fill="white"/>
<path d="M235.27 120.561H247.981V126.757H245.775V122.556H222.663V126.757H220.562V120.561H233.064V117.306L236.005 117.516C236.005 117.726 235.795 117.936 235.375 117.936V120.561H235.27ZM222.873 147.865V136.313H245.67V147.76H243.464V146.815H224.975V147.865H222.873ZM233.064 137.993H224.975V140.619H233.064V137.993ZM224.975 145.029H233.064V142.299H224.975V145.029ZM243.359 124.552V126.232H225.08V124.552H243.359ZM242.939 134.213H225.5V128.017H242.939V134.213ZM227.601 129.697V132.533H240.838V129.697H227.601ZM243.464 140.724V138.098H235.27V140.724H243.464ZM235.27 145.029H243.569V142.299H235.27V145.029Z" fill="white"/>
<path d="M267.942 118.251C267.836 118.566 267.521 118.776 266.891 118.776C266.681 120.246 266.366 121.926 266.051 123.186C269.307 122.976 272.879 122.451 275.716 121.611L276.031 123.816C272.984 124.552 269.307 125.077 265.525 125.392C263.949 131.693 261.743 136.838 258.592 141.564L256.386 140.724C259.327 136.418 261.638 131.483 263.109 125.497H256.596V123.396H260.483C261.533 123.396 262.584 123.396 263.529 123.396C263.949 121.611 264.265 119.826 264.475 117.831L267.942 118.251ZM276.661 132.218C276.661 134.843 276.871 136.733 277.081 138.939C279.182 139.779 281.914 141.144 284.12 142.719L282.964 144.819C281.178 143.454 278.972 142.194 277.186 141.354C277.186 144.609 275.821 147.235 270.988 147.235C267.311 147.235 264.58 145.554 264.58 142.509C264.58 139.254 268.047 137.678 271.093 137.678C272.249 137.678 273.509 137.888 274.77 138.308C274.665 136.208 274.455 134.108 274.455 132.533L276.661 132.218ZM274.875 140.514C273.509 139.989 272.144 139.779 270.988 139.779C268.992 139.779 266.681 140.619 266.681 142.614C266.681 144.504 268.572 145.344 271.093 145.344C273.509 145.344 274.98 144.189 274.98 141.984C274.875 141.459 274.875 140.934 274.875 140.514ZM283.805 128.857C280.128 128.857 275.61 129.487 272.144 130.432L271.829 128.332C275.61 127.282 280.128 126.547 283.7 126.547L283.805 128.857Z" fill="white"/>
<path d="M291.263 124.762V122.871H302.294V124.762H291.263ZM301.664 136.628V146.29H294.625V147.865H292.734V136.628H301.664ZM301.454 127.492V129.277H292.629V127.492H301.454ZM292.629 133.898V132.113H301.454V133.898H292.629ZM301.349 118.461V120.246H292.839V118.461H301.349ZM299.668 138.518H294.52V144.399H299.668V138.518ZM322.044 140.619V142.509H320.048V145.449C320.048 147.655 319.103 147.76 314.375 147.76C314.27 147.235 314.06 146.395 313.745 145.869C314.69 145.869 315.636 145.974 316.266 145.974C317.737 145.974 317.842 145.975 317.842 145.344V142.404H306.811V147.76H304.92V142.404H302.609V140.514H304.92V132.008H311.329V130.012H302.714V128.227H307.652V125.812H304.29V124.237H307.652V122.031H303.555V120.246H307.547V117.306L310.173 117.516C310.173 117.726 309.963 117.831 309.543 117.936V120.246H315.111V117.306L317.737 117.516C317.737 117.726 317.527 117.831 317.107 117.936V120.246H321.309V122.031H317.107V124.237H320.678V125.917H317.107V128.332H321.729V130.117H313.01V132.113H319.733V140.619H322.044ZM311.329 133.793H306.916V136.418H311.329V133.793ZM306.811 138.098V140.619H311.224V138.098H306.811ZM309.648 121.926V124.132H315.216V121.926H309.648ZM309.648 125.917V128.332H315.216V125.917H309.648ZM317.947 133.793H313.22V136.418H317.947V133.793ZM313.22 140.619H317.947V138.098H313.22V140.619Z" fill="white"/>
<path d="M330.764 131.378V134.738H339.063V144.714H330.764V146.92H328.768V122.346H331.499C332.129 120.876 332.76 118.776 333.075 117.306L335.911 117.831C335.806 118.146 335.596 118.146 335.176 118.251C334.756 119.406 334.231 120.981 333.6 122.346H338.748V131.483H330.764V131.378ZM336.752 124.237H330.764V129.487H336.752V124.237ZM336.962 136.733H330.764V142.719H336.962V136.733ZM358.078 121.191H350.094V126.337H356.817V140.619C356.817 142.929 355.767 143.034 352.195 143.034C352.09 142.509 351.774 141.669 351.564 141.144C352.195 141.144 352.825 141.144 353.35 141.144C354.716 141.144 354.821 141.144 354.821 140.619V128.332H350.094V147.76H347.993V128.332H343.475V143.244H341.479V126.337H347.993V121.191H340.113V119.196H358.183V121.191H358.078Z" fill="white"/>
<path d="M48.7995 259.39L49.1147 261.28C45.1226 262.54 40.8154 263.8 38.084 264.536C38.084 264.746 37.8739 264.956 37.6638 265.061L36.6133 262.645C38.084 262.33 39.8699 261.805 41.971 261.28V252.774H37.6638V250.779H41.971V243.428H37.2436V241.327H48.6945V243.428H44.0721V250.779H48.2742V252.774H44.0721V260.65L48.7995 259.39ZM55.7331 260.545C55.628 260.755 55.4179 260.965 55.1027 260.965C54.2623 265.166 52.5814 268.421 46.2782 270.206C46.0681 269.681 45.4378 268.736 45.0176 268.316C50.7955 266.951 52.4764 264.221 53.1067 260.23L55.7331 260.545ZM61.0908 267.056C61.0908 267.896 61.1959 268.001 62.1413 268.001H64.9778C65.8182 268.001 65.9233 267.476 66.0283 264.011C66.4485 264.326 67.394 264.746 67.9193 264.851C67.7092 268.841 67.1839 269.891 65.1879 269.891H61.8262C59.515 269.891 58.9897 269.261 58.9897 267.056V259.39H50.1652V241.117H65.7132V259.39H61.0908V267.056ZM52.2663 243.008V246.578H63.507V243.008H52.2663ZM52.2663 248.468V252.039H63.507V248.468H52.2663ZM52.2663 253.929V257.605H63.507V253.929H52.2663Z" fill="#DC002E"/>
<path d="M74.5378 255.399C73.2771 256.87 71.9114 258.235 70.6508 259.39C70.4407 258.97 69.8104 257.92 69.3901 257.5C72.3316 255.084 75.7984 250.884 78.0045 246.893L80.5258 247.943C80.4208 248.153 80.1056 248.258 79.7905 248.258C78.95 249.729 77.8995 251.199 76.7439 252.669L77.3742 252.879C77.2692 253.089 77.0591 253.194 76.6388 253.299V270.206H74.5378V255.399ZM79.4753 240.802C79.3702 241.012 79.0551 241.117 78.7399 241.012C76.849 243.323 73.4872 246.473 70.7558 248.468C70.4407 247.943 69.9154 247.103 69.4952 246.683C72.1215 244.898 75.2731 241.958 76.954 239.542L79.4753 240.802ZM96.2839 254.349L97.8597 255.084C97.7546 255.294 97.6496 255.399 97.5445 255.399C96.1788 259.075 93.8677 262.12 91.1363 264.431C93.7626 266.216 96.9142 267.476 100.591 268.211C100.066 268.631 99.4355 269.576 99.1203 270.206C95.3384 269.366 92.0817 267.896 89.3503 265.796C86.5139 267.791 83.2572 269.261 79.8955 270.206C79.5803 269.681 79.0551 268.736 78.6349 268.316C81.7865 267.476 84.833 266.216 87.5644 264.326C85.4634 262.33 83.7825 259.81 82.6269 256.87L84.0977 256.449H80.6309V254.454H95.8637L96.2839 254.349ZM85.5684 243.008V245.003C85.5684 247.943 84.833 251.409 81.1562 253.824C80.841 253.404 79.8955 252.774 79.3702 252.459C82.837 250.359 83.3623 247.418 83.3623 245.003V241.012H94.8131V248.993C94.8131 250.149 94.9182 250.254 95.6536 250.254H96.9142C98.1749 250.254 98.2799 250.149 98.2799 246.788C98.7001 247.103 99.4355 247.523 99.9608 247.628C99.8557 250.674 99.8557 252.144 97.0193 252.144H95.2333C92.607 252.144 92.607 250.674 92.607 248.783V242.903H85.5684V243.008ZM84.5179 256.449C85.5684 258.97 87.2493 261.28 89.3503 263.065C91.5565 261.175 93.4474 259.075 94.7081 256.449H84.5179Z" fill="#DC002E"/>
<path d="M122.232 258.13C118.87 256.344 114.248 254.139 110.676 252.774V269.156H108.26V240.592L111.622 240.802C111.622 241.117 111.307 241.432 110.781 241.537V251.094L111.307 250.359C115.194 251.724 120.236 254.034 123.703 255.819L122.232 258.13Z" fill="#DC002E"/>
<path d="M131.687 249.414C132.632 251.409 133.788 254.559 134.103 256.449L132.212 256.975C131.792 255.084 130.847 252.039 129.796 249.939L131.687 249.414ZM151.332 249.624C151.227 249.939 150.912 249.939 150.597 249.939C148.075 259.495 143.243 265.376 135.259 268.631C135.049 268.211 134.418 267.476 133.998 267.161C141.877 264.116 146.394 258.655 148.811 248.888L151.332 249.624ZM139.671 247.838C140.406 250.044 141.037 253.194 141.247 255.294L139.356 255.609C139.146 253.509 138.515 250.464 137.78 248.258L139.671 247.838Z" fill="#DC002E"/>
<path d="M156.585 244.583H177.49L177.7 244.478L179.907 246.158C179.802 246.263 179.696 246.368 179.486 246.473C176.86 258.865 171.082 265.271 160.997 269.051C160.682 268.421 159.946 267.581 159.526 267.161C169.086 263.695 174.654 257.5 176.755 246.893H156.48V244.583H156.585ZM181.587 238.702C183.583 238.702 185.159 240.277 185.159 242.273C185.159 244.268 183.583 245.843 181.587 245.843C179.591 245.843 178.016 244.268 178.016 242.273C178.016 240.277 179.696 238.702 181.587 238.702ZM184.109 242.273C184.109 240.907 182.953 239.752 181.587 239.752C180.222 239.752 179.066 240.907 179.066 242.273C179.066 243.638 180.222 244.793 181.587 244.793C183.058 244.793 184.109 243.638 184.109 242.273Z" fill="#DC002E"/>
<path d="M214.154 243.533C214.049 243.638 213.944 243.743 213.734 243.848C211.948 248.048 209.112 251.724 205.96 254.349C205.435 253.929 204.594 253.299 203.964 252.984C207.01 250.779 209.427 247.628 210.477 244.793H186.945V242.588H211.738L212.053 242.378L214.154 243.533ZM201.338 249.519C201.338 249.834 201.022 250.044 200.602 250.044C199.657 257.815 197.03 265.166 190.202 269.156C189.782 268.736 188.836 268.001 188.311 267.686C195.034 264.011 197.451 257.185 198.186 249.203L201.338 249.519Z" fill="#DC002E"/>
<path d="M217.411 253.194H244.83V255.504H218.672C218.461 255.819 218.041 256.029 217.621 256.134L217.411 253.194Z" fill="#DC002E"/>
<path d="M276.241 253.509H265.105L265.631 253.719C265.525 253.929 265.315 254.034 265 254.139C264.16 260.23 261.849 265.691 254.81 269.156C254.39 268.736 253.549 267.896 253.024 267.476C259.853 264.22 261.744 259.6 262.479 253.509H249.662V251.304H276.241V253.509ZM272.984 244.268H252.814V242.062H272.984V244.268Z" fill="#DC002E"/>
<path d="M301.349 248.258C301.244 248.468 301.034 248.468 300.823 248.468C300.613 248.468 300.508 248.468 300.403 248.363C298.302 250.464 295.571 252.669 293.154 254.454C293.575 254.664 293.785 254.664 293.89 254.769C293.785 254.874 293.575 255.084 293.365 255.084V269.366H291.369V255.609C288.532 257.605 284.12 260.23 280.548 261.91C280.338 261.49 279.708 260.755 279.392 260.335C285.065 257.71 293.575 252.774 299.248 246.578L301.349 248.258Z" fill="#DC002E"/>
<path d="M327.822 243.953C327.717 244.163 327.612 244.268 327.402 244.268C325.616 248.468 323.515 252.039 320.784 255.609C324.356 258.445 329.713 263.38 332.865 266.741L330.869 268.526C327.927 265.166 322.675 260.23 319.313 257.5C316.371 260.965 311.434 265.796 306.707 268.526C306.391 268.001 305.551 267.161 305.026 266.741C314.165 261.7 321.309 252.459 324.25 245.318H308.072V243.113H325.511L325.931 242.903L327.822 243.953Z" fill="#DC002E"/>
<path d="M355.661 258.13C352.3 256.344 347.677 254.139 344.105 252.774V269.156H341.689V240.592L345.051 240.802C345.051 241.117 344.736 241.432 344.211 241.537V251.094L344.736 250.359C348.623 251.724 353.665 254.034 357.132 255.819L355.661 258.13Z" fill="#DC002E"/>
<path d="M391.8 99.2432V168.133H7.30322V99.2432H391.8ZM398.103 92.9423H1V174.433H398.103V92.9423Z" fill="white"/>
<path d="M391.8 221.375V290.264H7.30322V221.375H391.8ZM398.103 215.074H1V296.565H398.103V215.074Z" fill="#DC002E"/>
<path d="M238.527 232.716L160.577 154.691" stroke="white" stroke-width="1.2" stroke-miterlimit="10"/>
<path d="M160.577 232.716L238.527 154.691" stroke="white" stroke-width="1.2" stroke-miterlimit="10"/>
</svg>
