<svg width="368" height="162" viewBox="0 0 368 162" fill="none" xmlns="http://www.w3.org/2000/svg">
<path d="M147.02 40.2142C147.161 37.4253 148.652 36.6494 149.926 35.7099C158.328 29.5128 167.042 23.7628 176.843 20.0668C181.34 18.3712 182.981 15.8616 182.796 11.1626C182.663 7.78403 182.865 4.21078 184.811 1.00006C187.251 5.83165 182.806 10.9228 185.331 15.9956C190.239 14.3888 195.173 12.6509 201.03 11.93C199.343 14.5017 197.148 14.9362 195.113 15.5893C192.214 16.519 189.293 17.3767 186.393 18.2993C184.925 18.7676 183.902 19.6253 183.676 21.304C183.146 25.2483 183.631 29.1841 183.679 33.1227C183.691 34.1271 184.565 34.2724 185.356 34.4939C189.057 35.5336 192.375 37.6496 196.229 38.2929C197.148 38.4452 198.053 38.9587 197.99 40.4963C192.997 40.7122 188.626 37.9458 183.652 37.3308C183.23 41.3343 183.159 45.1191 183.508 49.062C187.867 49.189 190.843 45.627 195.293 45.4351C194.234 47.4016 192.326 47.8206 190.783 48.5513C182.11 52.6508 183.625 52.7636 184.229 60.2445C184.818 67.5363 185.64 74.8888 187.617 82.0099C188.001 83.3895 188.55 84.7579 187.751 86.1813C185.88 86.3393 185.654 84.8679 185.483 83.6745C184.56 77.1952 182.395 70.9064 182.61 64.248C182.711 61.0486 181.26 58.01 181.836 54.5651C179.187 54.2068 177.525 55.6964 175.626 56.2607C174.912 56.4737 174.342 56.241 174.024 55.6217C173.659 54.9135 174.14 54.4212 174.665 54.0304C174.915 53.8456 175.23 53.7003 175.535 53.6383C180.775 52.5577 182.384 49.3667 181.471 44.2502C180.958 41.3667 181.768 38.2943 180.849 35.1089C178.399 36.1599 177.279 37.9501 176.19 39.6386C171.423 47.0391 166.79 54.527 163.214 62.5947C162.128 65.0464 160.731 67.4502 160.995 70.3111C161.064 71.0715 160.593 71.6245 159.935 71.6541C158.994 71.695 158.518 70.9459 158.496 70.0896C158.459 68.6042 159.15 67.2894 159.803 66.0226C164.049 57.78 168.187 49.4739 172.687 41.371C174.695 37.7582 177.327 34.4572 179.928 31.2155C182.234 28.3391 181.52 25.213 181.209 22.0996C181.113 21.1263 180.127 21.0205 179.307 21.383C174.47 23.5188 169.356 25.0607 164.911 28.0344C159.076 31.9377 152.958 35.4151 147.02 40.2142Z" fill="white"/>
<path d="M147.02 40.2142C147.161 37.4253 148.652 36.6494 149.926 35.7099C158.328 29.5128 167.042 23.7628 176.843 20.0668C181.34 18.3712 182.981 15.8616 182.796 11.1626C182.663 7.78404 182.865 4.21078 184.811 1.00006C187.251 5.83165 182.806 10.9228 185.331 15.9956C190.239 14.3888 195.173 12.6509 201.03 11.93C199.343 14.5017 197.148 14.9362 195.113 15.5893C192.214 16.519 189.293 17.3767 186.393 18.2993C184.925 18.7676 183.902 19.6253 183.676 21.304C183.146 25.2483 183.631 29.1841 183.679 33.1227C183.691 34.1271 184.565 34.2724 185.356 34.4939C189.057 35.5336 192.375 37.6496 196.229 38.2929C197.148 38.4452 198.053 38.9587 197.99 40.4963C192.997 40.7122 188.626 37.9458 183.652 37.3308C183.23 41.3343 183.159 45.1191 183.508 49.062C187.867 49.189 190.843 45.627 195.293 45.4351C194.234 47.4016 192.326 47.8206 190.783 48.5513C182.11 52.6508 183.625 52.7636 184.229 60.2445C184.818 67.5363 185.64 74.8888 187.617 82.0099C188.001 83.3895 188.55 84.7579 187.751 86.1813C185.88 86.3393 185.654 84.8679 185.483 83.6745C184.56 77.1952 182.395 70.9064 182.61 64.248C182.711 61.0486 181.26 58.01 181.836 54.5651C179.187 54.2068 177.525 55.6964 175.626 56.2607C174.912 56.4737 174.342 56.241 174.024 55.6217C173.659 54.9135 174.14 54.4212 174.665 54.0304C174.915 53.8456 175.23 53.7003 175.535 53.6383C180.775 52.5577 182.384 49.3667 181.471 44.2502C180.958 41.3667 181.768 38.2943 180.849 35.1089C178.399 36.1599 177.279 37.9501 176.19 39.6386C171.423 47.0391 166.79 54.527 163.214 62.5947C162.128 65.0464 160.731 67.4502 160.995 70.3111C161.064 71.0715 160.593 71.6245 159.935 71.6541C158.994 71.695 158.518 70.9459 158.496 70.0896C158.459 68.6042 159.15 67.2894 159.803 66.0226C164.049 57.78 168.187 49.4739 172.687 41.371C174.695 37.7582 177.327 34.4572 179.928 31.2155C182.234 28.3391 181.52 25.213 181.209 22.0996C181.113 21.1263 180.127 21.0205 179.307 21.383C174.47 23.5188 169.356 25.0607 164.911 28.0344C159.076 31.9377 152.958 35.4151 147.02 40.2142Z" stroke="white" stroke-width="0.8" stroke-miterlimit="10" stroke-linecap="round" stroke-linejoin="round"/>
<path d="M69.7773 58.0677C70.1642 57.9351 70.7318 57.9069 71.0439 57.6121C74.3085 54.5156 76.9872 50.9861 78.2652 46.62C78.6577 45.277 77.7342 44.5844 76.2897 44.8087C72.6254 45.38 67.2991 51.8367 67.3259 55.6357C67.3358 57.2622 68.3059 57.8434 69.7773 58.0677ZM1 96.5243C1.22311 94.2023 2.6267 92.7056 4.16161 91.3358C14.3412 82.251 24.7142 73.6092 37.4707 67.9848C43.897 65.1522 50.5351 63.7824 57.1548 62.0331C60.267 61.2107 63.5176 61.1388 66.6524 62.3364C67.6182 62.7046 68.529 62.8217 68.9046 61.4844C69.1856 60.4913 68.5699 60.1865 67.8879 59.6618C64.6967 57.203 64.4651 56.657 65.9336 53.3236C67.292 50.2384 68.9893 47.2957 71.7598 45.1995C72.7736 44.4335 73.8962 43.7733 75.0513 43.24C76.6229 42.5163 78.2073 42.5714 79.5049 43.8805C80.7193 45.1035 80.4891 46.6764 79.8481 47.9305C78.172 51.2076 76.6512 54.6849 74.3439 57.4879C71.0792 61.4533 68.5572 65.6656 66.7922 70.4704C63.8325 78.5268 58.7476 85.4251 53.8619 92.3346C48.6895 99.6518 43.7346 107.11 38.6286 114.468C37.9212 115.49 37.2928 117.962 35.7395 116.852C33.9759 115.593 35.94 114.008 36.8889 112.916C44.5833 104.07 51.0773 94.3491 57.5107 84.5998C60.9462 79.3972 64.2533 74.0663 66.1412 68.0342C67.1438 64.8319 66.6241 63.9277 63.3213 63.5539C60.4195 63.2238 57.5234 63.7245 54.7176 64.3495C38.3716 67.9975 24.2581 75.9001 11.8192 86.9796C8.24388 90.1621 4.6177 93.2868 1 96.5243Z" fill="white"/>
<path d="M69.7772 58.0677C70.1642 57.9351 70.7318 57.9069 71.0439 57.6121C74.3086 54.5156 76.9872 50.9861 78.2651 46.62C78.6577 45.277 77.7342 44.5844 76.2897 44.8087C72.6254 45.38 67.2991 51.8367 67.3259 55.6357C67.3358 57.2622 68.3059 57.8434 69.7772 58.0677ZM1 96.5243C1.22311 94.2023 2.6267 92.7056 4.16161 91.3358C14.3412 82.251 24.7142 73.6092 37.4707 67.9848C43.897 65.1522 50.5351 63.7824 57.1548 62.0331C60.267 61.2107 63.5176 61.1388 66.6524 62.3364C67.6182 62.7046 68.529 62.8217 68.9046 61.4844C69.1856 60.4913 68.5699 60.1865 67.8879 59.6618C64.6967 57.203 64.4651 56.657 65.9336 53.3236C67.292 50.2384 68.9893 47.2957 71.7598 45.1995C72.7736 44.4335 73.8962 43.7733 75.0513 43.24C76.6229 42.5163 78.2073 42.5714 79.5049 43.8805C80.7193 45.1035 80.4891 46.6764 79.8481 47.9305C78.172 51.2076 76.6512 54.6849 74.3439 57.4879C71.0792 61.4533 68.5572 65.6656 66.7922 70.4704C63.8325 78.5268 58.7476 85.4251 53.8619 92.3346C48.6895 99.6518 43.7346 107.11 38.6286 114.468C37.9212 115.49 37.2928 117.962 35.7395 116.852C33.9759 115.593 35.94 114.008 36.8889 112.916C44.5833 104.07 51.0773 94.3491 57.5107 84.5998C60.9462 79.3972 64.2533 74.0663 66.1412 68.0342C67.1438 64.8319 66.6241 63.9277 63.3213 63.5539C60.4195 63.2238 57.5234 63.7245 54.7176 64.3495C38.3716 67.9975 24.2581 75.9001 11.8192 86.9796C8.24388 90.1621 4.6177 93.2868 1 96.5243V96.5243Z" stroke="white" stroke-width="0.8" stroke-miterlimit="10" stroke-linecap="round" stroke-linejoin="round"/>
<path d="M83.1561 62.6852C84.5371 63.5076 83.1843 64.7109 84.362 65.618C86.5817 65.0269 88.6123 63.3806 91.0495 62.6964C93.635 61.9728 96.123 61.9248 98.6209 62.7148C101.541 63.6402 101.976 64.6319 101.386 67.7142C100.8 70.774 99.5091 73.4642 97.672 75.9611C96.6441 77.3619 95.8237 78.9136 95.0513 80.1677C95.5059 82.1681 97.7201 80.7546 98.1183 82.7676C94.8112 84.428 91.226 85.6609 87.5659 86.7048C87.0195 85.2673 87.6916 84.7792 88.3567 84.3433C92.9713 81.3188 95.4862 76.5959 98.1747 72.0591C99.3072 70.1463 100.334 67.6451 98.8158 65.7449C97.2046 63.7291 94.4356 63.9209 92.0563 64.457C88.8735 65.1722 86.336 67.26 83.6023 68.9105C82.8228 69.3817 82.6873 70.0898 82.6011 70.9306C81.9008 77.7103 80.62 84.5437 84.7503 90.8014C85.0525 91.2599 84.9536 91.7325 84.6317 92.1049C84.1586 92.6523 83.5345 92.7355 82.9231 92.3532C81.7511 91.6225 81.3966 90.422 80.9702 89.1792C80.0679 86.5482 80.2712 83.796 79.8674 81.1157C79.2658 77.1037 81.2159 66.5998 83.1561 62.6852Z" fill="white"/>
<path d="M83.1561 62.6852C84.5371 63.5076 83.1843 64.7109 84.362 65.618C86.5817 65.0269 88.6123 63.3806 91.0495 62.6964C93.635 61.9728 96.123 61.9248 98.6209 62.7148C101.541 63.6402 101.976 64.6319 101.386 67.7142C100.8 70.774 99.5091 73.4642 97.672 75.9611C96.6441 77.3619 95.8237 78.9136 95.0513 80.1677C95.5059 82.1681 97.7201 80.7546 98.1183 82.7676C94.8112 84.428 91.226 85.6609 87.5659 86.7048C87.0195 85.2673 87.6916 84.7792 88.3567 84.3433C92.9713 81.3188 95.4862 76.5959 98.1747 72.0591C99.3072 70.1463 100.334 67.6451 98.8158 65.7449C97.2046 63.7291 94.4356 63.9209 92.0563 64.457C88.8735 65.1722 86.336 67.26 83.6023 68.9105C82.8228 69.3817 82.6873 70.0898 82.6011 70.9306C81.9008 77.7103 80.62 84.5437 84.7503 90.8014C85.0525 91.2599 84.9536 91.7325 84.6317 92.1049C84.1586 92.6523 83.5345 92.7355 82.9231 92.3532C81.7511 91.6225 81.3966 90.422 80.9702 89.1792C80.0679 86.5482 80.2712 83.796 79.8674 81.1157C79.2658 77.1037 81.2159 66.5998 83.1561 62.6852Z" stroke="white" stroke-width="0.8" stroke-miterlimit="10" stroke-linecap="round" stroke-linejoin="round"/>
<path d="M215.53 40.4802C219.222 36.2482 236.743 26.7557 241.732 26.1054C241.773 26.2422 241.89 26.4566 241.844 26.5018C237.593 30.6421 236.958 36.3187 235.331 41.589C234.589 43.9999 234.853 46.3472 235.415 48.6664C236.226 52.0182 237.326 52.7433 241.15 52.9252C240.134 55.7579 239.627 56.1458 237.551 55.2571C235.035 54.1807 233.377 52.478 233.388 49.4479C233.407 44.9746 233.298 40.5141 234.882 36.2171C235.426 34.7444 235.982 33.2434 235.766 31.576C234.32 30.6717 233.352 31.8835 232.29 32.3702C227.497 34.5723 222.72 36.8138 218.512 40.0626C217.603 40.7652 216.677 41.4183 215.53 40.4802Z" fill="white"/>
<path d="M215.53 40.4802C219.222 36.2482 236.743 26.7557 241.732 26.1054C241.773 26.2422 241.89 26.4566 241.844 26.5018C237.593 30.6421 236.958 36.3187 235.331 41.589C234.589 43.9999 234.853 46.3472 235.415 48.6664C236.226 52.0182 237.326 52.7433 241.15 52.9252C240.134 55.7579 239.627 56.1458 237.551 55.2571C235.035 54.1807 233.377 52.478 233.388 49.4479C233.407 44.9746 233.298 40.5141 234.882 36.2171C235.426 34.7444 235.982 33.2434 235.766 31.576C234.32 30.6717 233.352 31.8835 232.29 32.3702C227.497 34.5723 222.72 36.8138 218.512 40.0626C217.603 40.7652 216.677 41.4183 215.53 40.4802Z" stroke="white" stroke-width="0.8" stroke-miterlimit="10" stroke-linecap="round" stroke-linejoin="round"/>
<path d="M126.151 56.8449C123.161 59.2981 121.78 61.7089 123.047 65.8027C125.863 63.2903 126.867 60.7327 126.151 56.8449ZM130.391 70.0841C130.134 67.1189 131.707 65.7547 132.646 64.2368C133.667 62.5878 134.603 60.9232 135.141 59.0865C135.869 56.6037 135.113 55.272 132.881 54.6894C130.456 54.0574 128.832 54.9771 128.266 57.3527C127.895 58.9017 127.499 60.452 127.28 62.0249C127.095 63.358 126.593 64.4964 125.688 65.4359C124.739 66.4206 124.171 68.3179 122.441 67.8143C120.37 67.2106 120.371 65.1552 120.398 63.4201C120.467 58.9059 125.496 53.3309 129.937 52.7003C135.425 51.9216 138.766 55.808 136.686 60.8907C135.384 64.0746 133.882 67.2966 130.391 70.0841Z" fill="white"/>
<path d="M126.151 56.8449C123.161 59.2981 121.78 61.7089 123.047 65.8027C125.863 63.2903 126.867 60.7327 126.151 56.8449ZM130.391 70.0841C130.134 67.1189 131.707 65.7547 132.646 64.2368C133.667 62.5878 134.603 60.9232 135.141 59.0865C135.869 56.6037 135.113 55.272 132.881 54.6894C130.456 54.0574 128.832 54.9771 128.266 57.3527C127.895 58.9017 127.499 60.452 127.28 62.0249C127.095 63.358 126.593 64.4964 125.688 65.4359C124.739 66.4206 124.171 68.3179 122.441 67.8143C120.37 67.2106 120.371 65.1552 120.398 63.4201C120.467 58.9059 125.496 53.3309 129.937 52.7003C135.425 51.9216 138.766 55.808 136.686 60.8907C135.384 64.0746 133.882 67.2966 130.391 70.0841Z" stroke="white" stroke-width="0.8" stroke-miterlimit="10" stroke-linecap="round" stroke-linejoin="round"/>
<path d="M232.193 53.2725C229.082 54.1077 226.575 52.9523 224.004 52.1045C219.33 50.5654 219.367 50.619 217.115 54.8454C215.912 57.1025 214.95 59.5035 213.295 61.5095C212.842 62.0597 212.178 62.4674 211.657 62.1627C210.831 61.6802 210.902 60.5756 211.449 60.0664C213.391 58.2593 214.189 55.7737 215.549 53.6294C217.607 50.3835 217.572 50.3609 215.92 46.2812C218.868 46.648 220.408 45.0356 221.653 42.7192C222.471 41.1999 223.812 39.9486 224.983 38.6339C225.586 37.9582 226.361 37.9285 227.363 38.6127C226.602 40.7795 224.445 41.8206 223.215 43.5783C220.278 47.7695 220.478 48.5961 225.214 50.3722C226.416 50.8236 227.63 51.2383 228.832 51.6869C229.829 52.0594 231.115 51.6277 232.193 53.2725Z" fill="white"/>
<path d="M232.193 53.2725C229.082 54.1077 226.575 52.9523 224.004 52.1045C219.33 50.5654 219.367 50.619 217.115 54.8454C215.912 57.1025 214.95 59.5035 213.295 61.5095C212.842 62.0597 212.178 62.4674 211.657 62.1627C210.831 61.6802 210.902 60.5756 211.449 60.0664C213.391 58.2593 214.189 55.7737 215.549 53.6294C217.607 50.3835 217.572 50.3609 215.92 46.2812C218.868 46.648 220.408 45.0356 221.653 42.7192C222.471 41.1999 223.812 39.9486 224.983 38.6339C225.586 37.9582 226.361 37.9285 227.363 38.6127C226.602 40.7795 224.445 41.8206 223.215 43.5783C220.278 47.7695 220.478 48.5961 225.214 50.3722C226.416 50.8236 227.63 51.2383 228.832 51.6869C229.829 52.0594 231.115 51.6277 232.193 53.2725Z" stroke="white" stroke-width="0.8" stroke-miterlimit="10" stroke-linecap="round" stroke-linejoin="round"/>
<path d="M268.113 23.0868C264.268 23.9501 262.164 25.8334 261.763 29.576C261.585 31.2293 261.1 33.0322 259.164 34.3949C258.378 32.2873 260.294 29.6014 257.799 28.1328C257.745 28.1018 258.063 27.254 258.34 26.8872C258.915 26.1212 259.534 25.3778 260.215 24.7063C261.551 23.3887 262.191 19.9353 263.7 20.707C265.664 21.71 267.035 20.896 268.651 20.9327C270.248 20.9693 270.402 22.009 270.327 23.2279C270.167 25.8616 268.822 28.0919 267.755 30.3942C267.458 31.036 266.485 31.5326 265.709 30.8682C265.013 30.27 265.742 29.8426 266.098 29.3517C267.432 27.5121 268.101 25.4751 268.113 23.0868Z" fill="white"/>
<path d="M268.113 23.0868C264.268 23.9501 262.164 25.8334 261.763 29.576C261.585 31.2293 261.1 33.0322 259.164 34.3949C258.378 32.2873 260.294 29.6014 257.799 28.1328C257.745 28.1018 258.063 27.254 258.34 26.8872C258.915 26.1212 259.534 25.3778 260.215 24.7063C261.551 23.3887 262.191 19.9353 263.7 20.707C265.664 21.71 267.035 20.896 268.651 20.9327C270.248 20.9693 270.402 22.009 270.327 23.2279C270.167 25.8616 268.822 28.0919 267.755 30.3942C267.458 31.036 266.485 31.5326 265.709 30.8682C265.013 30.27 265.742 29.8426 266.098 29.3517C267.432 27.5121 268.101 25.4751 268.113 23.0868Z" stroke="white" stroke-width="0.8" stroke-miterlimit="10" stroke-linecap="round" stroke-linejoin="round"/>
<path d="M225.578 6.22574C219.195 9.4957 218.581 15.9595 216.343 21.3793C214.716 25.3179 213.241 29.392 212.786 33.7313C212.707 34.4916 212.632 35.6385 211.144 36.0871C210.712 33.1599 211.522 30.4444 212.352 27.915C214.335 21.8688 216.635 15.9256 218.923 9.9838C220.314 6.36963 221.553 5.7052 225.578 6.22574Z" fill="white"/>
<path d="M225.578 6.22574C219.195 9.49571 218.581 15.9595 216.343 21.3793C214.716 25.3179 213.241 29.392 212.786 33.7313C212.707 34.4916 212.632 35.6385 211.144 36.0871C210.712 33.1599 211.522 30.4444 212.352 27.915C214.335 21.8688 216.635 15.9256 218.923 9.9838C220.314 6.36963 221.553 5.7052 225.578 6.22574Z" stroke="white" stroke-width="0.8" stroke-miterlimit="10" stroke-linecap="round" stroke-linejoin="round"/>
<path d="M238.351 22.4473C229.111 23.2908 222.688 29.1875 214.808 32.2416C216.033 29.2453 224.612 24.023 232.139 21.5204C234.053 20.8842 236.076 20.0872 238.351 22.4473Z" fill="white"/>
<path d="M238.351 22.4473C229.111 23.2908 222.688 29.1875 214.808 32.2416C216.033 29.2453 224.612 24.023 232.139 21.5204C234.053 20.8842 236.076 20.0872 238.351 22.4473Z" stroke="white" stroke-width="0.8" stroke-miterlimit="10" stroke-linecap="round" stroke-linejoin="round"/>
<path d="M234.89 14.5232C228.709 15.5939 222.728 16.8128 217.715 22.6347C218.187 17.5717 221.372 16.2922 224.082 14.969C227.464 13.3171 231.117 12.1561 234.89 14.5232Z" fill="white"/>
<path d="M234.89 14.5232C228.709 15.5939 222.728 16.8128 217.715 22.6347C218.187 17.5717 221.372 16.2922 224.082 14.969C227.464 13.3171 231.117 12.1561 234.89 14.5232Z" stroke="white" stroke-width="0.8" stroke-miterlimit="10" stroke-linecap="round" stroke-linejoin="round"/>
<path d="M286.905 23.0064C284.435 24.4227 283.039 23.7103 281.55 23.0642C278.454 21.7213 275.922 19.5516 273.226 17.6204C272.629 17.1916 271.7 16.7387 272.454 15.8161C273.081 15.0473 273.914 15.448 274.59 15.874C275.929 16.719 277.297 17.5344 278.534 18.5134C280.863 20.3529 283.587 21.5054 286.905 23.0064Z" fill="white"/>
<path d="M286.905 23.0064C284.435 24.4227 283.039 23.7103 281.55 23.0642C278.454 21.7213 275.922 19.5516 273.226 17.6204C272.629 17.1916 271.7 16.7387 272.454 15.8161C273.081 15.0473 273.914 15.448 274.59 15.874C275.929 16.719 277.297 17.5344 278.534 18.5134C280.863 20.3529 283.587 21.5054 286.905 23.0064Z" stroke="white" stroke-width="0.8" stroke-miterlimit="10" stroke-linecap="round" stroke-linejoin="round"/>
<path d="M293.96 7.92683C291.66 8.64489 290.794 7.12272 289.88 5.94901C289.254 5.1449 288.285 3.92322 289.484 3.08102C290.841 2.12456 291.342 3.74829 291.856 4.54817C292.521 5.58222 293.679 6.30733 293.96 7.92683Z" fill="white"/>
<path d="M293.96 7.92683C291.66 8.64489 290.794 7.12272 289.88 5.94901C289.254 5.1449 288.285 3.92322 289.484 3.08102C290.841 2.12456 291.342 3.74829 291.856 4.54817C292.521 5.58222 293.679 6.30733 293.96 7.92683Z" stroke="white" stroke-width="0.8" stroke-miterlimit="10" stroke-linecap="round" stroke-linejoin="round"/>
<path d="M304.139 3.08674C303.502 4.5158 302.694 4.55812 301.916 4.48759C300.902 4.39448 299.932 3.95716 300.294 2.7524C300.585 1.78182 301.5 2.04563 302.261 2.36586C302.821 2.60145 303.397 2.80319 304.139 3.08674Z" fill="white"/>
<path d="M304.139 3.08674C303.502 4.5158 302.694 4.55812 301.916 4.48759C300.902 4.39448 299.932 3.95716 300.294 2.7524C300.585 1.78182 301.5 2.04563 302.261 2.36586C302.821 2.60145 303.397 2.80319 304.139 3.08674Z" stroke="white" stroke-width="0.8" stroke-miterlimit="10" stroke-linecap="round" stroke-linejoin="round"/>
<path d="M74.4865 142.435C75.5357 139.277 76.8305 137.693 78.3697 136.307C89.3682 126.404 101.047 117.513 114.912 111.883C117.919 110.663 121.062 109.977 124.273 109.866C127.72 109.747 128.711 111.008 127.734 114.296C126.825 117.352 125.747 120.386 124.43 123.288C120.864 131.15 116.848 138.82 113.579 146.797C111.826 151.08 109.839 155.251 108.099 159.533C107.726 160.451 107.404 161.377 105.926 161.106C105.709 158.819 106.689 156.806 107.876 155.024C112.344 148.318 115.148 140.814 118.228 133.47C120.572 127.88 123.437 122.478 125.006 116.575C125.37 115.208 126.13 113.91 125.818 112.037C120.483 111.328 115.873 113.43 111.251 115.637C95.0052 123.388 85.9016 131.957 74.4865 142.435Z" fill="white"/>
<path d="M74.4865 142.435C75.5357 139.277 76.8305 137.693 78.3697 136.307C89.3682 126.404 101.047 117.513 114.912 111.883C117.919 110.663 121.062 109.977 124.273 109.866C127.72 109.747 128.711 111.008 127.734 114.296C126.825 117.352 125.747 120.386 124.43 123.288C120.864 131.15 116.848 138.82 113.579 146.797C111.826 151.08 109.839 155.251 108.099 159.533C107.726 160.451 107.404 161.377 105.926 161.106C105.709 158.819 106.689 156.806 107.876 155.024C112.344 148.318 115.148 140.814 118.228 133.47C120.572 127.88 123.437 122.478 125.006 116.575C125.37 115.208 126.13 113.91 125.818 112.037C120.483 111.328 115.873 113.43 111.251 115.637C95.0052 123.388 85.9016 131.957 74.4865 142.435Z" stroke="white" stroke-width="0.8" stroke-miterlimit="10" stroke-linecap="round" stroke-linejoin="round"/>
<path d="M277.996 73.7951C277.969 73.9447 277.951 74.2254 277.914 74.2268C272.541 74.602 268.659 78.0935 264.368 80.7061C261.742 82.3044 258.937 83.5049 256.014 84.3668C252.491 85.4037 250.411 83.2848 251.258 79.7764C251.84 77.3684 253.18 75.3836 254.587 73.434C255.888 71.6283 257.206 69.8466 258.281 66.9011C251.778 69.3952 246.594 72.9445 240.698 76.3442C241.053 73.6512 242.657 72.5072 244.184 71.5973C253.708 65.9193 263.754 61.3896 274.459 58.4003C274.679 58.3382 275.004 58.6514 275.292 58.7939C275.721 60.3725 274.238 60.1326 273.553 60.4388C270.64 61.7408 267.703 62.9427 264.975 64.6666C262.2 66.4187 259.982 68.4797 258.405 71.4421C257.14 73.8191 255.15 75.8025 253.632 78.0596C252.942 79.0866 252.267 80.3576 253.396 81.5835C254.299 82.5611 255.55 82.4638 256.534 82.018C260.034 80.4338 263.714 79.1995 266.898 76.9692C267.422 76.601 267.874 76.1312 268.401 75.7673C269.652 74.9011 268.614 72.7667 270.417 72.2081C271.137 71.9838 275.026 72.7555 277.996 73.7951Z" fill="white"/>
<path d="M277.996 73.7951C277.969 73.9447 277.951 74.2254 277.914 74.2268C272.541 74.602 268.659 78.0935 264.368 80.7061C261.742 82.3044 258.937 83.5049 256.014 84.3668C252.491 85.4037 250.411 83.2848 251.258 79.7764C251.84 77.3684 253.18 75.3836 254.587 73.434C255.888 71.6283 257.206 69.8466 258.281 66.9011C251.778 69.3952 246.594 72.9445 240.698 76.3442C241.053 73.6512 242.657 72.5072 244.184 71.5973C253.708 65.9193 263.754 61.3896 274.459 58.4003C274.679 58.3382 275.004 58.6514 275.292 58.7939C275.721 60.3725 274.238 60.1326 273.553 60.4388C270.64 61.7408 267.703 62.9427 264.975 64.6666C262.2 66.4187 259.982 68.4797 258.405 71.4421C257.14 73.8191 255.15 75.8025 253.632 78.0596C252.942 79.0866 252.267 80.3576 253.396 81.5835C254.299 82.5611 255.55 82.4638 256.534 82.018C260.034 80.4338 263.714 79.1995 266.898 76.9692C267.422 76.601 267.874 76.1312 268.401 75.7673C269.652 74.9011 268.614 72.7667 270.417 72.2081C271.137 71.9838 275.026 72.7555 277.996 73.7951Z" stroke="white" stroke-width="0.8" stroke-miterlimit="10" stroke-linecap="round" stroke-linejoin="round"/>
<path d="M154.698 135.37C158.036 131.724 162.21 131.042 165.554 128.88C166.622 128.19 168.025 127.895 168.456 126.555C170.112 121.419 172.934 116.631 172.962 111.001C172.98 107.282 171.629 105.927 167.979 106.657C164.077 107.439 160.856 109.452 158.351 112.572C157.683 113.405 157.562 114.68 156.027 115.178C156.412 110.439 159.782 108.191 163.161 106.255C165.025 105.187 167.384 104.761 169.574 104.521C173.339 104.107 175.694 106.887 175.032 111.077C174.388 115.159 173.74 119.265 171.651 123C170.309 125.402 170.493 125.505 173.086 127.025C172.818 127.889 172.092 128.234 171.336 128.519C165.921 130.564 161.161 133.878 156.069 136.543C153.607 137.831 152.864 136.901 152.169 135.078C150.781 131.432 150.42 127.549 150.527 123.728C150.657 119.133 151.424 114.573 153.656 110.342C153.285 114.409 152.735 118.472 152.59 122.547C152.443 126.678 153.289 130.716 154.698 135.37Z" fill="white"/>
<path d="M154.698 135.37C158.036 131.724 162.21 131.042 165.554 128.88C166.622 128.19 168.025 127.895 168.456 126.555C170.112 121.419 172.934 116.631 172.962 111.001C172.98 107.282 171.629 105.927 167.979 106.657C164.077 107.439 160.856 109.452 158.351 112.572C157.683 113.405 157.562 114.68 156.027 115.178C156.412 110.439 159.782 108.191 163.161 106.255C165.025 105.187 167.384 104.761 169.574 104.521C173.339 104.107 175.694 106.887 175.032 111.077C174.388 115.159 173.74 119.265 171.651 123C170.309 125.402 170.493 125.505 173.086 127.025C172.818 127.889 172.092 128.234 171.336 128.519C165.921 130.564 161.161 133.878 156.069 136.543C153.607 137.831 152.864 136.901 152.169 135.078C150.781 131.432 150.42 127.549 150.527 123.728C150.657 119.133 151.424 114.573 153.656 110.342C153.285 114.409 152.735 118.472 152.59 122.547C152.443 126.678 153.289 130.716 154.698 135.37Z" stroke="white" stroke-width="0.8" stroke-miterlimit="10" stroke-linecap="round" stroke-linejoin="round"/>
<path d="M206.504 104.754C208.238 104.097 208.512 102.517 209.372 101.442C210.095 100.539 210.814 99.4997 212.093 100.036C213.659 100.693 213.203 102.132 212.992 103.385C212.677 105.255 211.295 106.426 210.051 107.652C209.495 108.199 208.645 108.441 208.064 108.971C206.799 110.128 206.565 112.936 207.673 114.24C209.092 115.909 210.557 115.05 211.887 114.049C214.66 111.964 217.392 109.824 220.143 107.707C221.144 108.903 220.396 109.658 219.738 110.325C217.37 112.719 214.954 115.147 211.928 116.634C207.309 118.902 204.901 117.228 205.109 112.065C205.201 109.81 205.028 107.73 204.182 105.554C203.416 103.582 203.104 102.004 200.381 102.867C199.338 103.197 197.777 103.121 197.259 101.092C199.237 100.074 201.851 101.181 203.537 99.6506C205.232 98.1116 204.514 95.3184 206.491 93.5128C207.509 94.5172 206.133 95.8235 206.882 96.8659C208.474 97.5247 209.553 95.3283 211.706 96.0774C210.247 97.4062 208.927 98.5672 207.656 99.779C206.222 101.146 205.278 102.647 206.504 104.754Z" fill="white"/>
<path d="M206.504 104.754C208.238 104.097 208.512 102.517 209.372 101.442C210.095 100.539 210.814 99.4997 212.093 100.036C213.659 100.693 213.203 102.132 212.992 103.385C212.677 105.255 211.295 106.426 210.051 107.652C209.495 108.199 208.645 108.441 208.064 108.971C206.799 110.128 206.565 112.936 207.673 114.24C209.092 115.909 210.557 115.05 211.887 114.049C214.66 111.964 217.392 109.824 220.143 107.707C221.144 108.903 220.396 109.658 219.738 110.325C217.37 112.719 214.954 115.147 211.928 116.634C207.309 118.902 204.901 117.228 205.109 112.065C205.201 109.81 205.028 107.73 204.182 105.554C203.416 103.582 203.104 102.004 200.381 102.867C199.338 103.197 197.777 103.121 197.259 101.092C199.237 100.074 201.851 101.181 203.537 99.6506C205.232 98.1116 204.514 95.3184 206.491 93.5128C207.509 94.5172 206.133 95.8235 206.882 96.8659C208.474 97.5247 209.553 95.3283 211.706 96.0774C210.247 97.4062 208.927 98.5672 207.656 99.779C206.222 101.146 205.278 102.647 206.504 104.754Z" stroke="white" stroke-width="0.8" stroke-miterlimit="10" stroke-linecap="round" stroke-linejoin="round"/>
<path d="M279.524 101.215C273.114 103.881 269.573 109.514 262.917 110.009C264.016 107.486 266.177 106.968 267.868 105.931C271.005 104.005 274.221 102.208 277.406 100.36C278.236 99.8778 279.431 99.3813 279.17 98.3345C278.409 95.2677 278.856 91.9413 277.011 89.0974C274.264 84.8681 269.97 84.531 266.677 88.3539C265.912 89.2427 265.8 90.7281 264.308 91.0653C265.055 86.8262 267.937 83.8256 271.508 83.4998C274.856 83.1951 278.628 85.7851 279.752 89.6447C280.595 92.5451 281.192 95.5907 281.34 98.5997C281.607 104.022 281.474 109.466 280.508 114.842C280.369 115.625 279.982 116.47 278.959 116.232C278.025 116.013 277.642 115.13 278.052 114.36C280.157 110.403 278.19 106.198 279.524 101.215Z" fill="white"/>
<path d="M279.524 101.215C273.114 103.881 269.573 109.514 262.917 110.009C264.016 107.486 266.177 106.968 267.868 105.931C271.005 104.005 274.221 102.208 277.406 100.36C278.236 99.8778 279.431 99.3813 279.17 98.3345C278.409 95.2677 278.856 91.9413 277.011 89.0974C274.264 84.8681 269.97 84.531 266.677 88.3539C265.912 89.2427 265.8 90.7281 264.308 91.0653C265.055 86.8262 267.937 83.8256 271.508 83.4998C274.856 83.1951 278.628 85.7851 279.752 89.6447C280.595 92.5451 281.192 95.5907 281.34 98.5997C281.607 104.022 281.474 109.466 280.508 114.842C280.369 115.625 279.982 116.47 278.959 116.232C278.025 116.013 277.642 115.13 278.052 114.36C280.157 110.403 278.19 106.198 279.524 101.215Z" stroke="white" stroke-width="0.8" stroke-miterlimit="10" stroke-linecap="round" stroke-linejoin="round"/>
<path d="M341.658 72.9069C340.222 73.7095 338.24 74.0918 338.477 76.6705C340.534 75.9765 341.629 74.9058 341.658 72.9069ZM330.568 57.1031C332.687 52.5296 337.621 50.123 340.944 51.552C342.212 52.098 342.904 53.1475 343.048 54.5413C343.219 56.1875 342.991 57.8112 342.128 59.1852C340.903 61.1376 340.709 62.8445 342.99 63.9618C345.43 65.1552 344.57 68.5422 347.048 69.6609C347.705 69.9571 347.236 70.4904 346.832 70.5948C344.745 71.1308 344.686 73.2412 343.683 74.5997C342.202 76.6071 340.351 78.0417 338.053 78.946C337.158 79.2972 336.165 79.7881 335.397 78.905C334.83 78.2505 335.17 77.2997 335.517 76.6508C336.877 74.1102 338.23 71.4482 340.971 70.1433C342.638 69.3477 343.93 68.7849 342.524 66.721C341.082 64.605 339.739 64.1607 337.724 65.3908C336.511 66.1314 335.598 67.3742 333.732 67.5759C333.139 64.9704 334.937 63.7868 336.719 62.9658C339.215 61.8133 339.961 59.5534 340.886 57.3739C341.407 56.1438 341.427 54.8305 340.348 53.8063C339.372 52.8809 338.247 53.3224 337.169 53.6159C334.964 54.2154 333.251 55.7643 330.568 57.1031Z" fill="white"/>
<path d="M341.658 72.9069C340.222 73.7095 338.24 74.0918 338.477 76.6705C340.534 75.9765 341.629 74.9058 341.658 72.9069ZM330.568 57.1031C332.687 52.5296 337.621 50.123 340.944 51.552C342.212 52.098 342.904 53.1475 343.048 54.5413C343.219 56.1875 342.991 57.8112 342.128 59.1852C340.903 61.1376 340.709 62.8445 342.99 63.9618C345.43 65.1552 344.57 68.5422 347.048 69.6609C347.705 69.9571 347.236 70.4904 346.832 70.5948C344.745 71.1308 344.686 73.2412 343.683 74.5997C342.202 76.6071 340.351 78.0417 338.053 78.946C337.158 79.2972 336.165 79.7881 335.397 78.905C334.83 78.2505 335.17 77.2997 335.517 76.6508C336.877 74.1102 338.23 71.4482 340.971 70.1433C342.638 69.3477 343.93 68.7849 342.524 66.721C341.082 64.605 339.739 64.1607 337.724 65.3908C336.511 66.1314 335.598 67.3742 333.732 67.5759C333.139 64.9704 334.937 63.7868 336.719 62.9658C339.215 61.8133 339.961 59.5534 340.886 57.3739C341.407 56.1438 341.427 54.8305 340.348 53.8063C339.372 52.8809 338.247 53.3224 337.169 53.6159C334.964 54.2154 333.251 55.7643 330.568 57.1031V57.1031Z" stroke="white" stroke-width="0.8" stroke-miterlimit="10" stroke-linecap="round" stroke-linejoin="round"/>
<path d="M264.314 83.4126C263.869 85.9645 263.742 88.5108 262.962 90.8413C259.919 99.9501 260.051 109.481 259.518 118.843C259.329 122.174 259.01 126.633 262.56 129.39C263.07 129.786 262.859 130.266 262.574 130.613C262.138 131.14 261.471 131.318 260.829 131.153C259.542 130.819 259.295 129.659 258.942 128.594C257.866 125.351 257.69 121.872 257.779 118.623C258.091 107.26 259.462 95.9804 262.369 84.9404C262.581 84.1321 262.995 83.4958 264.314 83.4126Z" fill="white"/>
<path d="M264.314 83.4126C263.869 85.9645 263.742 88.5108 262.962 90.8413C259.919 99.9501 260.051 109.481 259.518 118.843C259.329 122.174 259.01 126.633 262.56 129.39C263.07 129.786 262.859 130.266 262.574 130.613C262.138 131.14 261.471 131.318 260.829 131.153C259.542 130.819 259.295 129.659 258.942 128.594C257.866 125.351 257.69 121.872 257.779 118.623C258.091 107.26 259.462 95.9804 262.369 84.9404C262.581 84.1321 262.995 83.4959 264.314 83.4126Z" stroke="white" stroke-width="0.8" stroke-miterlimit="10" stroke-linecap="round" stroke-linejoin="round"/>
<path d="M305.018 70.993C302.634 70.3498 301.167 72.3995 299.178 72.0807C298.325 71.9438 297.54 71.6843 297.507 70.7476C297.483 70.0182 298.205 69.7248 298.858 69.6712C303.672 69.272 307.51 66.6806 311.373 64.1484C312.695 63.2808 313.956 62.1635 315.693 63.2004C315.739 64.8946 314.409 65.3601 313.322 65.916C311.121 67.0445 309.56 68.8206 308.138 70.7462C307.153 72.0807 306.471 73.5492 307.427 75.1757C308.45 76.9193 310.024 77.3905 311.954 76.901C313.768 76.4411 315.595 76.0278 317.634 75.5425C314.905 78.8492 310.982 80.1921 308.136 78.955C305.598 77.8504 304.634 75.4903 305.018 70.993Z" fill="white"/>
<path d="M305.018 70.993C302.634 70.3498 301.167 72.3995 299.178 72.0807C298.325 71.9438 297.54 71.6843 297.507 70.7476C297.483 70.0182 298.205 69.7248 298.858 69.6712C303.672 69.272 307.51 66.6806 311.373 64.1484C312.695 63.2808 313.956 62.1635 315.693 63.2004C315.739 64.8946 314.409 65.3601 313.322 65.916C311.121 67.0445 309.56 68.8206 308.138 70.7462C307.153 72.0807 306.471 73.5492 307.427 75.1757C308.45 76.9193 310.024 77.3905 311.954 76.901C313.768 76.4411 315.595 76.0278 317.634 75.5425C314.905 78.8492 310.982 80.1921 308.136 78.955C305.598 77.8504 304.634 75.4903 305.018 70.993Z" stroke="white" stroke-width="0.8" stroke-miterlimit="10" stroke-linecap="round" stroke-linejoin="round"/>
<path d="M146.042 98.9584C145.918 97.9074 145.815 97.1061 144.986 96.7083C144.176 96.3176 143.381 96.5715 142.779 97.0963C139.834 99.6581 137.659 102.677 137.244 106.713C137.134 107.782 136.481 108.984 137.717 109.722C139.057 110.522 140.449 109.665 141.127 108.815C143.498 105.844 145.195 102.467 146.042 98.9584ZM138.081 115.833C137.635 114.078 138.743 111.935 135.909 111.423C134.407 111.151 134.593 108.981 134.911 107.609C135.932 103.189 137.652 99.1121 141.342 96.161C142.745 95.0395 144.235 93.784 146.038 95.0818C147.751 96.3147 148.228 98.4801 147.528 100.205C145.269 105.772 143.143 111.492 138.081 115.833Z" fill="white"/>
<path d="M146.042 98.9584C145.918 97.9074 145.815 97.1061 144.986 96.7083C144.176 96.3176 143.381 96.5715 142.779 97.0963C139.834 99.6581 137.659 102.677 137.244 106.713C137.134 107.782 136.481 108.984 137.717 109.722C139.057 110.522 140.449 109.665 141.127 108.815C143.498 105.844 145.195 102.467 146.042 98.9584ZM138.081 115.833C137.635 114.078 138.743 111.935 135.909 111.423C134.407 111.151 134.593 108.981 134.911 107.609C135.932 103.189 137.652 99.1121 141.342 96.161C142.745 95.0395 144.235 93.784 146.038 95.0818C147.751 96.3147 148.228 98.4801 147.528 100.205C145.269 105.772 143.143 111.492 138.081 115.833Z" stroke="white" stroke-width="0.8" stroke-miterlimit="10" stroke-linecap="round" stroke-linejoin="round"/>
<path d="M257.321 43.7075C257.326 43.8669 257.373 44.0376 257.332 44.1843C255.423 51.2095 254.372 58.4674 251.66 65.2753C251.568 65.5039 251.194 65.6209 250.285 66.2529C251.675 58.0371 252.942 50.4463 257.424 43.7978L257.321 43.7075Z" fill="white"/>
<path d="M257.321 43.7075C257.326 43.8669 257.373 44.0376 257.332 44.1843C255.423 51.2095 254.372 58.4674 251.66 65.2753C251.568 65.5039 251.194 65.6209 250.285 66.2529C251.675 58.0371 252.942 50.4463 257.424 43.7978L257.321 43.7075Z" stroke="white" stroke-width="0.8" stroke-miterlimit="10" stroke-linecap="round" stroke-linejoin="round"/>
<path d="M364.582 72.7587C364.461 72.5005 364.36 72.0308 364.216 72.0167C363.288 71.9292 362.918 72.6049 362.729 73.354C362.674 73.5712 362.92 74.0889 363.037 74.0918C363.916 74.1143 364.363 73.5501 364.582 72.7587ZM364.789 69.6157C366.493 69.7511 367.311 70.8557 366.892 72.5104C366.548 73.8675 365.694 75.0891 365.131 76.3968C364.601 77.6283 364.086 78.7019 362.38 78.3577C360.628 78.0036 360.773 76.5463 360.576 75.3839C360.052 72.3101 362.085 69.5268 364.789 69.6157Z" fill="white"/>
<path d="M364.582 72.7587C364.461 72.5005 364.36 72.0308 364.216 72.0167C363.288 71.9292 362.918 72.6049 362.729 73.354C362.674 73.5712 362.92 74.0889 363.037 74.0918C363.916 74.1143 364.363 73.5501 364.582 72.7587ZM364.789 69.6157C366.493 69.7511 367.311 70.8557 366.892 72.5104C366.548 73.8675 365.694 75.0891 365.131 76.3968C364.601 77.6283 364.086 78.7019 362.38 78.3577C360.628 78.0036 360.773 76.5463 360.576 75.3839C360.052 72.3101 362.085 69.5268 364.789 69.6157V69.6157Z" stroke="white" stroke-width="0.8" stroke-miterlimit="10" stroke-linecap="round" stroke-linejoin="round"/>
<path d="M275.607 93.6568C272.499 96.5685 268.286 97.5927 265.234 100.466C265.007 100.681 264.308 100.593 263.935 100.417C263.167 100.056 263.41 99.3518 263.625 98.7551C263.915 97.9453 264.637 97.5447 265.337 97.1539C268.534 95.3708 271.854 93.9291 275.607 93.6568Z" fill="white"/>
<path d="M275.607 93.6568C272.499 96.5685 268.286 97.5927 265.234 100.466C265.007 100.681 264.308 100.593 263.935 100.417C263.167 100.056 263.41 99.3518 263.625 98.7551C263.915 97.9453 264.637 97.5447 265.337 97.1539C268.534 95.3708 271.854 93.9291 275.607 93.6568Z" stroke="white" stroke-width="0.8" stroke-miterlimit="10" stroke-linecap="round" stroke-linejoin="round"/>
<path d="M257.424 43.798C257.032 41.984 258.413 41.1136 259.407 40.043C259.052 41.455 258.574 42.8035 257.318 43.7049C257.32 43.7078 257.424 43.798 257.424 43.798Z" fill="white"/>
<path d="M257.424 43.798C257.032 41.984 258.413 41.1136 259.407 40.043C259.052 41.455 258.574 42.8035 257.318 43.7049C257.32 43.7078 257.424 43.798 257.424 43.798Z" stroke="white" stroke-width="0.8" stroke-miterlimit="10" stroke-linecap="round" stroke-linejoin="round"/>
</svg>
