<svg width="252" height="287" viewBox="0 0 252 287" fill="none" xmlns="http://www.w3.org/2000/svg">
<path d="M47.1 35.1999H68V44.8999H46.4C46.1 46.4999 46.1 46.8999 45.9 47.6999H79.4V58.0999H54.7C61.5 63.5999 71.1 66.5999 80.7 67.5999C76.2 71.9999 74.1 76.8999 73.1 80.4999C70.4 79.9999 52.1 75.5999 40.5 61.5999C32.7 73.2999 18.8 79.0999 8.4 80.6999C6.6 75.1999 2.8 70.5999 0.5 68.2999C15 67.1999 22.6 62.4999 26.6 58.0999H1.4V47.6999H31.8C32.2 45.8999 32.3 45.4999 32.4 44.8999H13V35.1999H33.3V32.2999H11.6V28.1999H1.4V7.99993H32.8V1.79993L48.4 2.19993C49.7 2.19993 50.4 2.49993 50.4 3.29993C50.4 4.39993 49.1 4.69993 47.8 5.19993V7.99993H79.3V27.9999H68.7V32.2999H47.1V35.1999ZM33.3 18.8999H15.2V22.4999H33.3V18.8999ZM47.1 22.3999H65.7V18.7999H47.1V22.3999Z" fill="white"/>
<path d="M121.2 51.7L120.5 41L129.3 40C129.1 38.9 129.1 38.7 129 37.3L123.6 37.9L122.8 28.4L128.2 27.8C128 26.5 128 26.3 128 25.6L122.7 26.2L122 15L127.4 14.3C127.1 6.39997 127.2 3.59998 127.3 1.69998L141.4 2.19998C141.8 2.19998 142.8 2.29998 142.8 3.19998C142.8 4.09998 141.9 4.59998 141.1 4.89998C141.1 5.89998 141.2 12 141.2 12.6L147.2 11.9C144.6 9.79997 143.5 8.89998 141.9 7.79998L149.3 0.599976C150.5 1.19998 156.8 4.79998 159.6 6.99998C158.6 7.89998 157.9 8.39998 155.9 10.7L163.3 9.79997L163.6 21.3L141.3 24V26.2L160 24.1L160.5 33.8L142 35.8C142.2 37.2 142.3 37.7 142.3 38.5L164.2 36L164.8 46.7L156.5 47.6L162.7 51.4C163.1 51.7 163.4 52 163.4 52.5C163.4 53.5 162.5 53.6 161.9 53.6C161.5 53.6 160.7 53.4 160.5 53.4C158.2 56.7 155.6 59.9 152.3 63.3C153.7 64.7 154.7 65.5 155.3 65.5C156.5 65.5 157.2 61.9 157.9 58.4C159.6 60.1 161.2 61.7 166.9 63.7C166.6 67.6 165.4 80.4 156.4 80.4C151.5 80.4 146 76 142.1 71.5C140.4 72.9 133.2 78.4 124.6 81.1C122.2 77.4 120.7 75.8 115.2 71.8C110.2 73.3 98.2 76.6 89.6 78.9C89.3 80.1 88.9 81.3 88 81.3C87.2 81.3 87.1 80.4 87 80L84.7 66.9C86.6 66.6 86.7 66.6 87.6 66.4V36.7L98.6 37.4C99 37.4 100.1 37.5 100.1 38.3C100.1 39.5 99 39.7 97.6 40.2V64.3C99.3 63.9 99.5 63.8 100.2 63.6V33.1H87.8V3.39998H120.1V33H112.8V40.2H118.7V52.4H112.8V60.1C116 59.2 117.7 58.7 120.8 57.6C120.5 59.3 120.1 61.2 120.1 64.5C120.1 67 120.4 68.2 120.4 69.1C125.4 67.3 130.5 64.8 135.3 61.5C134.8 60.5 132.8 56.6 131.2 50.4L121.2 51.7ZM100.5 14.9V22.2H107.6V14.9H100.5ZM143.8 49.1C144.1 50.1 144.6 51.5 145.6 53.8C147.1 52 148.2 50.8 149.9 48.4L143.8 49.1Z" fill="white"/>
<path d="M248.8 19.4C222.9 21 210.9 39.9 210.9 49.9C210.9 61.3 226 64 234.5 64.1C232.2 69.4 230 75.9 228.7 80.6C224.7 79.9 194.7 74.6 194.7 52C194.7 35.2 208.8 24.7 210.2 23.7C198.5 24.6 190.2 25.8 175.4 28.1L173.1 10.8C198.1 11.5 236 6.99998 246.4 3.09998L248.8 19.4ZM234.4 29.2C236.3 31 241 36.7 242.4 38.9C241.2 39.6 238 42.2 235.8 44C230.4 37 229.8 36.2 228 34.3L234.4 29.2ZM243.1 23.4C246.6 26.4 250.3 31.7 251.1 32.9C247.2 36 246.6 36.4 244.6 38C243.2 35.9 239.6 30.9 236.7 28.2L243.1 23.4Z" fill="white"/>
<path d="M48 150.3V159C48 169.1 41.6001 169.6 25.7001 169.4C25.3001 165 23.5 159.9 21.5 156.1C22.9 156.2 29.7001 156.5 31.2001 156.5C33.8 156.5 33.8 155.9 33.8 152.1V150.3H1.80005V138H33.9001V133L39.6 133.4C41.2 132.2 41.9001 131.7 43 130.7H18.1V119H60.1L64.6 127C62.6 129.1 58.1 132.9 51.1 138H79V150.4H48V150.3ZM34 104.5C33.3 103 31.1 98.6 27 93.2L39.3 88.6C41.3 91 45.6001 97.2 47.2001 101.2C42.9001 103.2 41.7001 103.8 40.5 104.5H50.6C50.7 104.4 58.4001 92.4 59.3001 89.6L73.6 93.8C74.4 94.1 75 94.2 75 95C75 96.2 73.5 96.6 72 96.6C69.5 100.9 68.8 101.9 67.1 104.5H78.8V127.7H65.1V116.1H15.6V127.7H2.00005V104.5H13.2C12.6 103.3 10 98.6 7.00005 95.3L19 89.9C22.6 93.6 25.9 99.5 27 101.8C24.6 103 23.5 103.6 22.1 104.4H34V104.5Z" fill="white"/>
<path d="M84.7 144.7C91.5 141.1 101.1 134 106.8 128.5C108.6 133 111.2 138 113 141.1C112 142.1 110.8 143.3 109 144.9C106.6 147 96.1 156 93.9 157.8C93.6 158.7 93.3 160 92.4 160C91.7 160 91.4 159.2 91.1 158.6L84.7 144.7ZM116.5 90.4C125.6 92.4 138.6 98.5 143.1 101.8C140.5 105.2 138.7 107.7 134.1 113.9C131.1 111.8 122.2 105 109.1 102.1L116.5 90.4ZM129.1 117.9C127.1 120.4 127.1 122.8 127.1 123.2C127.1 126.3 129.1 128.1 131.9 130.7C141.8 140.2 143.3 146.5 143.3 150.8C143.3 158.5 137.6 166.9 125.9 166.9C124.5 166.9 117.6 166.8 109.8 163.6C110.8 158.5 111.2 154.9 111.2 148.3C116.2 152 122.4 152.9 123.2 152.9C125.1 152.9 127.3 151.8 127.3 149.3C127.3 146 123.8 142.6 120 138.8C116 134.9 111.5 130.5 111.5 124.2C111.5 122.4 111.9 116.6 117.2 111.2L129.1 117.9ZM147.3 121C155 127.3 163.9 138 166.8 143.7C163.7 146.3 157.9 152.6 156.3 155C150.4 144.4 143.6 135.2 138.2 130.6L147.3 121ZM150.4 102.5C153.2 105.1 157 110.3 158.5 112.8C155.9 114.6 153.2 117.1 151.8 118.6C150.6 116.7 147.2 111.5 144 108.1L150.4 102.5ZM158.8 95.5C162 98.6 165.6 103.8 166.6 105.5C164.6 106.9 162.1 109.2 160.4 111.1C156.1 105.4 155.2 104.1 152.2 101L158.8 95.5Z" fill="white"/>
<g opacity="0.3">
<path opacity="0.3" d="M250.7 184.9H0.199951V224.3H250.7V184.9Z" fill="white"/>
</g>
<g opacity="0.3">
<path opacity="0.3" d="M250.7 246.7H0.199951V286.1H250.7V246.7Z" fill="white"/>
</g>
<path d="M23.9999 214.2V199.7L21.2999 201.2L20.8999 199.9L24.1999 198H25.6999V214.2H23.9999Z" fill="white"/>
<path d="M33.9 205.7C32.1 204.9 31.4 203.4 31.4 202C31.4 199.5 33.4 197.8 36 197.8C38.9 197.8 40.2999 199.8 40.2999 201.7C40.2999 203.1 39.5999 204.6 37.5999 205.5V205.6C39.5999 206.4 40.7999 207.9 40.7999 209.8C40.7999 212.5 38.6 214.4 35.7 214.4C32.6 214.4 30.7 212.4 30.7 210.1C30.8 208.1 32 206.6 33.9 205.7ZM39 210.1C39 208.1 37.6 207 35.5 206.3C33.6 206.9 32.5999 208.3 32.5999 209.9C32.5999 211.7 33.7999 213.1 35.7999 213.1C37.7999 213.2 39 211.8 39 210.1ZM33.0999 201.8C33.0999 203.5 34.2999 204.5 36.0999 205C37.4999 204.5 38.5999 203.4 38.5999 201.8C38.5999 200.4 37.8 199 35.9 199C34 199.1 33.0999 200.4 33.0999 201.8Z" fill="white"/>
<path d="M44.7 206.2C44.7 200.5 46.9 197.8 49.9 197.8C53 197.8 54.7999 200.7 54.7999 206C54.7999 211.6 52.7999 214.5 49.5999 214.5C46.7999 214.5 44.7 211.6 44.7 206.2ZM53.0999 206.1C53.0999 202.1 52.1 199.3 49.9 199.3C48 199.3 46.5999 201.9 46.5999 206.1C46.5999 210.4 47.7999 213.1 49.7999 213.1C52.1999 213 53.0999 209.9 53.0999 206.1Z" fill="white"/>
<path d="M58.7998 206.2C58.7998 200.5 60.9998 197.8 63.9998 197.8C67.0998 197.8 68.8998 200.7 68.8998 206C68.8998 211.6 66.8998 214.5 63.6998 214.5C60.8998 214.5 58.7998 211.6 58.7998 206.2ZM67.1998 206.1C67.1998 202.1 66.1998 199.3 63.9998 199.3C62.0998 199.3 60.6998 201.9 60.6998 206.1C60.6998 210.4 61.8998 213.1 63.8998 213.1C66.2998 213 67.1998 209.9 67.1998 206.1Z" fill="white"/>
<path d="M79.7 197.4V211.7H74.9V213.5H73.5V197.4H79.7ZM78.3 198.8H74.9V203.9H78.3V198.8ZM74.9 210.4H78.3V205.2H74.9V210.4ZM87.2 203H92.9V204.3H80.1V203H85.7V200H81V198.7H85.7V196L87.6 196.1C87.6 196.3 87.4 196.4 87.2 196.4V198.7H92V200H87.2V203ZM90.6 204.9C90.6 205.1 90.5 205.2 90.2 205.2V207.1H92.8V208.4H90.2V214.4C90.2 215.3 90 215.7 89.3 215.9C88.7 216.1 87.5 216.1 85.8 216.1C85.7 215.7 85.5 215.1 85.3 214.7C86.1 214.7 86.9 214.7 87.5 214.7C88.7 214.7 88.8 214.7 88.8 214.2V208.2H80.2V207H88.8V204.8L90.6 204.9ZM84.4 213.8C83.9 212.7 82.7 211.1 81.6 209.9L82.8 209.2C83.9 210.3 85.2 211.9 85.7 213L84.4 213.8Z" fill="white"/>
<path d="M105.5 204.4H99.1V216.1H97.7V197H105.6V204.4H105.5ZM104.1 198.1H99V200.1H104.1V198.1ZM99.1 203.3H104.2V201.2H99.1V203.3ZM110.6 214H103.8V215.1H102.5V206H110.6V214ZM109.2 207.3H103.8V209.5H109.2V207.3ZM103.8 212.9H109.2V210.6H103.8V212.9ZM115.6 197V214.1C115.6 216 114.8 216.1 111 216.1C111 215.7 110.7 215 110.5 214.6C111.2 214.6 111.9 214.6 112.4 214.6C114 214.6 114.1 214.6 114.1 214.1V204.5H107.5V197H115.6ZM114.2 198.1H109V200.1H114.2V198.1ZM109 203.3H114.2V201.2H109V203.3Z" fill="white"/>
<path d="M125.9 208.8V213.2C127.3 213.9 129.1 214.1 131.5 214.1C132.5 214.1 139.3 214.1 140.6 214.1C140.4 214.4 140.1 215.1 140 215.5H131.5C126.6 215.5 124 214.7 122.4 211.5C122.1 213.4 121.7 215 121.1 216.2C120.8 216 120.4 215.7 120 215.6C121.1 213.6 121.4 209.8 121.5 205.9L123.2 206.1C123.2 206.3 123 206.3 122.8 206.4C122.8 207.2 122.7 208 122.7 208.9C123.1 210.4 123.7 211.6 124.6 212.4V204.5H120.4V203.2H124.6V200H121V198.7H124.6V196L126.4 196.1C126.4 196.3 126.2 196.4 126 196.4V198.7H129.5V200H126V203.1H129.9V204.1C131.9 203 132.9 201 133.3 198.2H130V196.9H138.6H138.9L139.7 197C139.7 197.1 139.7 197.3 139.7 197.5C139.5 201.6 139.3 203.1 138.8 203.6C138.4 204.1 138 204.1 136.6 204.1C136.2 204.1 135.7 204.1 135.2 204.1C135.2 203.7 135 203.2 134.8 202.8C135.8 202.9 136.6 202.9 137 202.9C137.3 202.9 137.5 202.9 137.7 202.7C138 202.4 138.2 201.2 138.4 198.2H134.9C134.5 201.5 133.1 203.9 130.7 205.2C130.5 205 130.1 204.7 129.8 204.4H126.1V207.5H129.6V208.8H125.9ZM139.1 213.1H137.7V212H132.1V213.1H130.7V205.3H139.1V213.1ZM132.1 210.8H137.7V206.6H132.1V210.8Z" fill="white"/>
<path d="M155.3 199.9C155.2 200.1 155 200.2 154.8 200.2C154 206.9 151.8 212.8 148.2 212.8C146.4 212.8 144.7 211 144.7 207.6C144.7 202.4 148.7 198.1 154.4 198.1C160.6 198.1 163.3 202.1 163.3 206.3C163.3 211.4 160.3 213.9 155.1 215.1C154.9 214.8 154.5 214.2 154.2 213.8C159.2 212.8 161.7 210.4 161.7 206.3C161.7 202.7 159.4 199.5 154.4 199.5C154.2 199.5 153.9 199.5 153.8 199.5L155.3 199.9ZM153.3 199.7C148.9 200.2 146.2 203.8 146.2 207.6C146.2 209.9 147.2 211.4 148.2 211.4C150.8 211.3 152.7 205.6 153.3 199.7Z" fill="white"/>
<path d="M187.5 210.3H179.4C181 212.8 183.9 214.3 187.7 214.8C187.4 215.1 187 215.7 186.8 216.1C182.5 215.3 179.5 213.5 177.8 210.3H177.5C176.4 212.5 174 214.6 168.8 216.1C168.6 215.8 168.2 215.2 167.9 214.9C172.4 213.6 174.7 212 175.8 210.3H168.1V209H176.5C176.7 208.3 176.8 207.7 176.9 207H170.8V205.7H177V203.8H170.3V202.6H177V200.4L178.9 200.5C178.9 200.7 178.8 200.8 178.5 200.8V202.5H185.4V199.8H170.2V202.7H168.8V198.6H177V196L178.9 196.1C178.9 196.3 178.7 196.4 178.5 196.4V198.6H186.9V202.7H185.5V203.8H178.5V205.7H185V207H178.5C178.4 207.7 178.3 208.3 178.1 209H187.5V210.3Z" fill="white"/>
<path d="M191.8 204C193.3 203.5 195.5 202.7 197.7 201.9L197.9 203C196 203.8 194 204.6 192.7 205.1C192.7 205.3 192.6 205.4 192.5 205.4L191.8 204ZM200.6 204.4C200.6 205.8 199.9 205.8 197.1 205.8C197 205.5 196.9 205 196.7 204.7C197.2 204.7 197.7 204.7 198.1 204.7C199.2 204.7 199.2 204.7 199.2 204.4V198.4H192.3V197.2H200.6V204.4ZM196.2 201.7C195.6 201 194.4 200.1 193.3 199.5L194.1 198.6C195.2 199.2 196.4 200 197 200.7L196.2 201.7ZM199.9 207C200.3 206.3 200.7 205.4 200.9 204.8L202.6 205.3C202.6 205.4 202.4 205.5 202.2 205.5C202 205.9 201.7 206.5 201.4 207H208.7V216.1H207.2V215.2H196.3V216.1H194.9V207H199.9ZM207.1 210.5V208.2H196.2V210.5H207.1ZM196.2 214.1H207.1V211.7H196.2V214.1ZM208 202.6C206 203.4 203.9 204.2 202.5 204.7C202.5 204.9 202.4 205 202.3 205L201.6 203.6C203.2 203.1 205.5 202.3 207.8 201.4L208 202.6ZM210.4 197.1V204.4C210.4 205.8 209.6 205.9 206.8 205.9C206.8 205.6 206.5 205.1 206.4 204.7C207 204.7 207.6 204.7 208.1 204.7C209 204.7 209.1 204.7 209.1 204.3V198.2H202.1V197H210.4V197.1ZM203.4 198.6C204.5 199.1 205.7 200 206.4 200.6L205.6 201.6C205 200.9 203.7 200 202.7 199.5L203.4 198.6Z" fill="white"/>
<path d="M29.6999 258.5C30.2999 258.5 30.4999 258.4 30.7999 258.3L33.1999 260.4C32.6999 261 32.5999 261.6 32.2999 262.5C30.8999 267 29.0999 272.2 20.9999 276.2C20.2999 275.1 19.1999 274 17.9999 272.9C21.1999 271.8 23.8999 269.6 24.7999 268.6C25.8999 267.5 27.6999 264.8 28.0999 262.3H16.0999V258.6H29.6999V258.5ZM33.8999 259.7C32.6999 259.7 31.7999 258.7 31.7999 257.6C31.7999 256.4 32.7999 255.5 33.8999 255.5C35.0999 255.5 35.9999 256.5 35.9999 257.6C35.9999 258.8 34.9999 259.7 33.8999 259.7ZM33.8999 256.6C33.3999 256.6 32.8999 257 32.8999 257.6C32.8999 258.2 33.3999 258.6 33.8999 258.6C34.4999 258.6 34.8999 258.2 34.8999 257.6C34.7999 257.1 34.3999 256.6 33.8999 256.6Z" fill="white"/>
<path d="M43.0998 273.6V274.6H38.9998V258.7H55.8998V274.6H51.8998V273.6H43.0998ZM51.8998 270V262.4H42.9998V270H51.8998Z" fill="white"/>
<path d="M69.5998 272.2C74.2998 271.5 75.6998 268.1 75.6998 265.8C75.6998 265.2 75.6998 261.4 71.1998 260.8C70.8998 267.2 67.8998 274.3 64.9998 274.3C63.1998 274.3 59.9998 271.6 59.9998 267.2C59.9998 262.2 64.1998 257.3 70.4998 257.3C75.6998 257.3 79.5998 260.6 79.5998 265.8C79.5998 267.4 79.2998 270.2 76.2998 273.1C74.6998 274.7 72.8998 275.3 71.7998 275.6C71.5998 275.3 70.5998 273.5 69.5998 272.2ZM63.4998 267.2C63.4998 268.7 64.1998 269.9 64.6998 269.9C65.4998 269.9 67.0998 265.6 67.3998 261.3C65.5998 262 63.4998 264.7 63.4998 267.2Z" fill="white"/>
<path d="M87.7998 263.5H89.4998V266.5H87.7998V269.2C87.9998 269.2 89.6998 268.7 89.9998 268.7C89.7998 269.8 89.7998 270.7 89.7998 271C89.7998 271.3 89.7998 271.6 89.7998 271.8C88.4998 272.3 84.6998 273.3 83.2998 273.6C83.2998 273.8 83.1998 274.3 82.8998 274.3C82.6998 274.3 82.5998 274.1 82.5998 273.9L81.7998 270.4C83.0998 270.3 83.9998 270.1 84.2998 270.1V266.6H82.6998V263.6H84.2998V260.7H82.3998V257.6H89.7998V260.7H87.7998V263.5ZM90.4998 269.2V256.8H101.4V269.2H98.6998V272.3C98.6998 272.5 98.6998 272.8 99.1998 272.8C99.8998 272.8 99.9998 272.6 100.3 270.5C100.8 271 101.3 271.5 103 272.1C102.3 275.5 101.7 275.9 98.9998 275.9C96.5998 275.9 95.2998 275.8 95.2998 273.7V270.7C95.1998 270.8 94.9998 270.8 94.7998 270.8C94.2998 271.9 92.7998 275.3 88.7998 276.4C88.4998 275.8 88.0998 274.9 86.3998 273.8C87.1998 273.6 88.7998 273.3 90.0998 272.1C90.8998 271.4 91.5998 270.1 91.7998 269.1H90.4998V269.2ZM95.1998 270.2C95.1998 270.2 95.2998 270.2 95.2998 270.3V269.3H92.3998L95.1998 270.2ZM97.9998 260.4V259.5H93.8998V260.4H97.9998ZM93.8998 262.6V263.5H97.9998V262.6H93.8998ZM93.8998 265.7V266.6H97.9998V265.7H93.8998Z" fill="white"/>
<path d="M114.2 270.3C113.3 271.4 112.5 272.2 111.5 272.8C110.9 272.1 110.1 271.4 109.6 271.2C109.2 271.4 106.3 272.4 106.1 272.5C106.1 272.7 106.1 273.1 105.7 273.1C105.5 273.1 105.5 272.9 105.4 272.6L104.7 269.1C105.9 268.9 106.8 268.6 107 268.6V264H104.9V260.8H107V256.7L110.5 256.9C110.7 256.9 111 257 111 257.2C111 257.4 110.9 257.5 110.5 257.7V260.9H112.3V264.1H110.5V267.7C111.2 267.4 111.3 267.4 111.6 267.3V265H125V267.4H116.6C116.4 267.7 116.3 267.9 116.2 268H124.8C124.8 276 123.8 276.4 120.5 276.4C120.2 276.4 120 276.4 119.7 276.4C119.6 275.5 119.3 274.7 119.1 274.2C118.4 275.2 117.8 275.9 116.9 276.8C116.1 276.1 115.6 275.8 114.5 275.2C116.2 274.1 117.8 272.1 118.7 270.5H117.8C116.3 273.2 113.6 275.4 112.3 276.2C111.7 275.5 111 274.9 110.2 274.4C113 273.1 114.6 271.2 115.1 270.5H114.2V270.3ZM112.4 267.2C112.3 267.9 112.3 268.4 112.3 268.8C112.8 268.3 113.3 267.7 113.6 267.2H112.4ZM123.6 264.2H113.1V256.6H123.6V264.2ZM120.3 259.6V258.9H116.4V259.6H120.3ZM116.4 261.4V262.1H120.3V261.4H116.4ZM121.2 270.3C120.9 271.1 120.5 271.9 119.8 273.2C120.1 273.2 120.3 273.3 120.6 273.3C121.1 273.3 121.2 273.2 121.4 272.8C121.6 272.2 121.7 271.7 121.8 270.4H121.2V270.3Z" fill="white"/>
<path d="M138.6 256.8C138.8 256.8 139.1 256.9 139.1 257.1C139.1 257.4 138.7 257.5 138.5 257.5C138.4 257.7 138.1 258.2 138 258.5C139.4 258.3 141.2 258.1 142.5 257.6L142.4 261.1C140.9 261.4 140.7 261.5 136.1 261.9L135.2 263.3C136 262.9 136.9 262.7 137.8 262.7C138.6 262.7 139.9 263.1 140.7 264.4C144.2 262.7 144.3 262.6 145 262.2L146.4 265.9C143.8 266.7 142.6 267.1 141.5 267.6C141.6 268.5 141.6 269.7 141.6 270C141.6 270.6 141.6 271 141.6 271.3C140.8 271.3 138.4 271.4 137.8 271.4C137.9 270.9 137.9 270.4 138 269.4C136.9 270 135.9 270.8 135.9 271.5C135.9 272.4 138.2 272.5 139 272.5C139.5 272.5 142.8 272.5 145.6 271.6C145.3 272.8 145.3 274.9 145.3 275.3C143.4 275.7 141.5 275.8 139.6 275.8C137.8 275.8 132.1 275.8 132.1 271.9C132.1 269.1 136.1 266.8 137.6 266C137.2 265.4 136.4 265.4 136.3 265.4C134 265.4 132.3 268 131.2 269.7L127.9 267.7C129.4 266.1 131 264 132.1 262.1C130.8 262.1 130 262.1 129.3 262.1L129.4 258.6C130.8 258.8 132.6 258.9 134 258.8C134.6 257.5 134.9 256.9 135.1 256.1L138.6 256.8Z" fill="white"/>
<path d="M164.5 264.1C164.7 264.1 164.9 264.2 164.9 264.5C164.9 264.8 164.6 264.9 164.3 264.9C164.1 265.2 164 265.3 163.7 265.7H167.8L169.3 266.9C163.9 275.7 155 276.5 151.9 276.8C151.6 275.6 151 274.7 150.1 273.6C153.3 273.7 156.4 272.8 158.4 272C158.1 271.6 157.8 271.4 157.2 270.9C156.7 271.1 155.2 272 153.6 272.5C153.2 271.8 152.3 270.6 151.4 269.8C155.7 268.7 159 266.1 160.2 264.9C156.3 267.4 153 268.2 151.9 268.5C151.4 267.2 150.8 266.3 149.8 265.5C152.8 265.1 154.6 264.4 156.2 263.7C155.7 263.1 155.3 262.7 154.9 262.3C153.7 263.2 153.1 263.5 152.5 263.8C152 263 151.1 261.9 150 261.2C152.3 260.2 155.2 258.3 156.5 256.1L160.2 256.5C160.4 256.5 160.7 256.5 160.7 256.8C160.7 257 160.5 257.1 160.1 257.2C160 257.3 159.9 257.4 159.9 257.5H166L167.4 258.6C165.8 260.7 163.1 262.7 162 263.5L164.5 264.1ZM157.3 260.1C158.1 260.8 158.7 261.3 159.1 261.8C160.4 260.9 160.8 260.4 161 260.1H157.3ZM160.5 268.5C160.3 268.7 160.2 268.8 160 268.9C160.7 269.5 161 269.8 161.4 270.2C162.6 269.4 163.1 268.9 163.4 268.5H160.5Z" fill="white"/>
<path d="M191.3 262.5C191.2 264.3 190.8 267.7 189.4 270.5C190.1 271.5 190.9 272.4 192.5 273.5C191.6 274.4 190.9 275.3 190.2 276.4C188.8 275.4 187.5 273.7 187.3 273.5C185.9 275.1 184.5 276 184 276.3C183.3 275.5 182.4 274.7 181.4 274C180.5 274.8 180.1 275.3 179.6 276C178.9 275.2 178.2 274.6 178 274.4C176.2 275.6 175 276 173.8 276.2C173.5 275.5 172.9 274.3 172.2 273.7C174.1 273.5 175.4 272.7 175.8 272.5C175.6 272.3 175.5 272.2 175.3 272.2C175.2 272.4 175.1 272.5 174.9 272.7C174.1 272.1 173.1 271.8 172.2 271.7C172.6 271.2 173 270.7 173.7 269.5H172V266.9H175C175.3 266.2 175.5 265.8 175.6 265.5H175.8V264.1C174.8 265.2 174 265.9 173.4 266.5C173 266 172.1 265 171.3 264.4C171.9 264.1 173 263.5 174.2 262.2H172V259.7H173C172.6 258.8 172.2 258 171.7 257.2L174.2 256.1C174.8 256.9 175.6 258.3 175.8 258.8C175.5 258.9 174.1 259.5 173.7 259.7H175.9V256.2L179.2 256.4C179.4 256.4 179.5 256.5 179.5 256.7C179.5 256.9 179.2 257.1 178.9 257.1V259.8H180.7C179.8 259.3 179.4 259.2 178.9 259C179.4 258.3 180 257.2 180.4 256.2L183.1 257.2C183.2 257.2 183.3 257.3 183.3 257.5C183.3 257.8 182.9 257.8 182.7 257.8L181.6 259.7H182.6V262.2H180.3C180.9 262.7 182 263.7 182.1 263.8C181.8 264 180.5 265.6 180.2 265.9C179.6 265.3 179.2 264.8 178.8 264.3V265.8H177.4L178.7 266C178.8 266 179 266.1 179 266.2C179 266.4 178.8 266.5 178.4 266.6L178.3 266.9H182.4C182.1 266.7 181.6 266.4 180.8 265.9C183.4 262.2 183.9 257.6 184 256.1L187.7 256.6C187.9 256.6 188 256.7 188 256.9C188 257.1 187.9 257.2 187.4 257.4C187.4 257.7 187.3 258.3 187.1 259.4H191.9V262.5H191.3ZM176.9 269.6C176.9 269.7 176.6 270.2 176.6 270.3C177.1 270.6 177.7 270.9 177.9 271C178.3 270.5 178.6 270.2 178.9 269.6H176.9ZM182.7 269.6H182.2C182.2 269.8 182.1 269.9 181.7 270C181.3 271 180.9 271.7 180.2 272.5C180.9 273 181.4 273.4 181.6 273.7C183.4 272.7 184.6 271.3 185.2 270.5C184.6 269.3 184.2 267.9 184 267.2C183.8 267.5 183.6 267.7 183.4 267.9C183.2 267.6 182.9 267.4 182.6 267.1V269.6H182.7ZM186.3 262.5C186.2 262.9 186.1 262.9 186.1 263C186.3 264 186.7 265.6 187.3 267.1C187.8 265.7 188.1 263.9 188.2 262.4H186.3V262.5Z" fill="white"/>
<path d="M203.1 259.8C203.2 259.9 203.3 260 203.3 260.1C203.3 260.4 202.9 260.4 202.7 260.4C202.5 260.7 202.4 260.7 201.8 261.5C201.6 261.8 201 262.5 200.2 263.4L202.4 262.8C202.4 263 202.7 263.7 202.8 263.9C204.4 263.4 205.5 262.9 206 262.6C205 261.6 204.5 261 204.1 260.4L205.5 259.3H203.2V256.5H213L214.4 257.9C214.1 258.5 213.4 260.1 211.2 262.3C211.5 262.5 213.3 263.3 215.2 263.8C214.2 265.3 213.9 265.7 213.5 266.9C212.9 266.7 212.3 266.5 211.1 265.9C211.1 266.1 211 266.1 210.7 266.3V267.6H214.1V270.7H210.7V272.4H214.6V275.5H202.5V272.4H207.2V271H204.1V267.9H207.2V265.8C206 266.5 205.2 266.8 204.6 267C204 265.4 203.1 264.5 202.9 264.4C203.4 265.9 203.4 266 203.8 267.3C203.8 267.3 202 267.6 201.2 268C201.1 267.5 201.1 267.4 201.1 267.2L200.6 267.3V276.3H197.4V269.5C197.3 269.5 197.3 269.5 197.2 269.6C197.1 271.1 196.8 273.3 196.4 274.6C195.6 274.2 194.5 274 194 273.8C194.5 271.9 194.7 270.6 194.9 268.6L197.4 269V267.7C197.2 267.7 195.9 267.9 195.7 267.9C195.6 268 195.5 268.4 195.2 268.4C195 268.4 194.9 268.2 194.9 268L194.5 265.1C194.8 265.1 195.1 265.1 195.7 265.1C196.1 264.6 196.5 264.1 196.9 263.7C196.7 263.6 195.7 262.6 193.9 261.5L195.5 258.7C195.6 258.8 196 259 196 259C196.2 258.7 197 257.4 197.5 256.1L200.5 257.2C200.6 257.2 200.7 257.3 200.7 257.5C200.7 257.9 200.2 257.9 200 257.9C199.7 258.4 199 259.6 198.2 260.7C198.5 260.9 198.5 261 198.7 261.2C200.1 259.1 200.1 259 200.3 258.5L203.1 259.8ZM198.8 264.9C199 264.9 200.2 264.8 200.5 264.8C200.3 264.1 200.2 263.8 200.1 263.5C199.5 264.2 199.5 264.2 198.8 264.9ZM203.3 268.1C203.4 269.3 203.8 271 204.2 272C203.4 272.2 202.3 272.5 201.6 272.8C201 271 200.8 269.1 200.8 268.5L203.3 268.1ZM207.1 259.4C207.7 260.1 208 260.4 208.5 260.9C209.1 260.3 209.4 259.9 209.7 259.4H207.1ZM210.2 265.8C209.8 265.6 209.4 265.4 208.6 264.8C208.2 265.1 207.8 265.3 207.3 265.6L210.2 265.8Z" fill="white"/>
<path d="M225.8 260.3C226.1 260.1 228.3 258.5 229.5 256.1L232.8 256.5C233 256.5 233.2 256.6 233.2 256.8C233.2 257 233.1 257.1 232.9 257.2C233.9 258.4 236.3 259.9 237.8 260.5C236.9 261.5 236.4 262.6 236 263.4C235.6 263.2 235.5 263.2 235.2 263V263.8H233.3V264.6H237.1V270.4H233.9C235.6 272.5 237.2 273.1 237.9 273.4C237.1 274.2 236.4 275.3 235.9 276.3C234.3 275.4 232.9 274.2 231.8 272.8C231.3 273.5 229.7 275.3 227.5 276.4C227 275.6 226.2 274.8 225.6 274.2C224.7 276.1 223.9 276.1 221.6 276.2C221.4 275.2 221.3 275.2 220.6 273.6C220.1 273.7 219.9 273.8 219.7 273.9C219.7 272.9 219.7 271.1 219.5 270.1C219.4 270.2 219.3 270.2 219.3 270.2C219.3 270.9 219.4 273.4 219.1 275C218.5 274.8 217.7 274.7 217.2 274.7C217.4 273.9 217.6 272.7 217.6 271C217.6 270.5 217.6 270.1 217.6 269.8H219.4C219.6 269.8 219.7 269.9 219.7 269.9L220.8 269.7C221 270.8 221 270.9 221.2 273.1C221.6 273.1 221.9 273.2 222.2 273.2C223 273.2 223.3 273.1 223.7 271.5C223.3 271.6 223.1 271.7 223 271.8C222.9 271 222.7 270.3 222.5 269.5L223.4 269.2C223.6 269.8 223.7 270.1 223.8 270.5C223.8 269.8 223.8 269.3 223.8 268.7H220.9V269.3H218V256.8H226.9V259.5H224.7V260.3H225.8ZM221.6 260.3V259.5H220.6V260.3H221.6ZM221.6 263.2V262.3H220.6V263.2H221.6ZM221.6 266.3V265.4H220.6V266.3H221.6ZM221.8 269.4C222.1 270.2 222.3 271.6 222.4 272.1C222.2 272.1 221.9 272.2 221.3 272.4C221.2 271.2 221 270.3 220.8 269.7L221.8 269.4ZM224.3 262.3V263.2H225.8V265.4H224.3V266.3H226.2C226.2 267.9 226.2 271.3 225.7 273.4C227.6 272.7 228.7 271.5 229.4 270.4H226.5V264.6H230V263.8H227.8V263C227.4 263.4 227.2 263.5 226.8 263.7C226.3 263.1 226 262.7 225.6 262.3H224.3ZM230.1 267.9V266.9H229.2V267.9H230.1ZM232.9 261.3C231.7 260.3 231.4 260 231.1 259.5C230.7 260 230.5 260.3 229.7 261.3H232.9ZM233.1 266.8V267.8H234.1V266.8H233.1Z" fill="white"/>
<g opacity="0.3">
<g opacity="0.3">
<path opacity="0.3" d="M129.3 220.3H121.6V250.6H129.3V220.3Z" fill="white"/>
</g>
<g opacity="0.3">
<path opacity="0.3" d="M140.6 231.6H110.3V239.3H140.6V231.6Z" fill="white"/>
</g>
</g>
</svg>
