<svg width="379" height="513" viewBox="0 0 379 513" fill="none" xmlns="http://www.w3.org/2000/svg">
<path d="M16.5 511.1H0V434.8H24.4C29 434.8 32.8 435.7 35.7 437.4C38.6 439.2 40.9 441.7 42.3 445C43.7 448.3 44.4 452.3 44.4 456.9C44.4 462.4 43.5 466.7 41.6 469.8C39.7 472.9 37.1 475.2 33.8 476.5C30.6 477.8 26.9 478.4 22.7 478.4H16.3V511.1H16.5ZM1.2 509.9H15.3V477.4H22.9C26.9 477.4 30.5 476.8 33.5 475.5C36.5 474.3 38.9 472.2 40.7 469.3C42.5 466.4 43.3 462.2 43.3 457C43.3 452.5 42.6 448.7 41.3 445.6C40 442.5 37.9 440.1 35.2 438.5C32.5 436.9 28.9 436 24.5 436H1.2V509.9ZM21.3 467.8H15.3V445.6H21.2C23.9 445.6 25.8 446.1 27.1 447C28.4 448 29.2 449.3 29.6 451C29.9 452.6 30.1 454.6 30.1 456.9C30.1 459.4 29.9 461.4 29.4 463C28.9 464.7 28 466 26.7 466.7C25.5 467.4 23.6 467.8 21.3 467.8ZM16.5 466.6H21.3C23.4 466.6 25 466.3 26.1 465.6C27.2 465 27.9 464 28.3 462.6C28.7 461.1 28.9 459.2 28.9 456.8C28.9 454.6 28.7 452.7 28.4 451.2C28.1 449.8 27.4 448.7 26.4 447.9C25.3 447.1 23.6 446.7 21.2 446.7H16.5V466.6Z" fill="white"/>
<path d="M97.6 511.1H80.6L72 477.1H67.7V511.1H51.2V434.8H71.3C76.4 434.8 80.8 435.4 84.5 436.5C88.2 437.7 91.1 439.8 93.2 442.8C95.2 445.8 96.2 450 96.2 455.2C96.2 458.3 95.9 461.1 95.4 463.5C94.9 466 93.9 468.1 92.5 469.9C91.2 471.6 89.4 473 87.1 474.1L97.6 511.1ZM81.6 509.9H96L85.7 473.5L86.2 473.3C88.5 472.3 90.3 470.9 91.6 469.3C92.9 467.6 93.8 465.6 94.3 463.3C94.8 461 95.1 458.3 95.1 455.2C95.1 450.2 94.2 446.3 92.3 443.5C90.4 440.7 87.7 438.8 84.3 437.7C80.8 436.6 76.4 436 71.5 436H52.4V509.9H66.5V475.9H72.9L81.6 509.9ZM71.6 468H66.5V445.2H72.3C76 445.2 78.5 446.2 79.9 448.2C81.2 450.1 81.9 452.9 81.9 456.5C81.9 459 81.6 461.1 81 462.8C80.4 464.6 79.3 465.9 77.7 466.8C76.2 467.5 74.1 468 71.6 468ZM67.7 466.8H71.6C74 466.8 75.8 466.4 77.1 465.7C78.4 465 79.3 463.9 79.8 462.4C80.4 460.8 80.6 458.9 80.6 456.5C80.6 453.2 80 450.6 78.8 448.9C77.7 447.3 75.4 446.4 72.2 446.4H67.6V466.8H67.7Z" fill="white"/>
<path d="M126.8 512.1C121.2 512.1 116.7 511.1 113.4 509C110.1 507 107.7 504 106.2 500.2C104.8 496.5 104.1 492 104.1 486.8V458.8C104.1 453.6 104.8 449.1 106.2 445.4C107.6 441.6 110 438.7 113.4 436.8C116.7 434.8 121.2 433.8 126.8 433.8C132.4 433.8 137 434.8 140.3 436.8C143.6 438.8 146.1 441.7 147.5 445.4C148.9 449.1 149.6 453.6 149.6 458.7V486.7C149.6 491.9 148.9 496.4 147.5 500.1C146.1 503.9 143.6 506.8 140.3 508.9C137 511.1 132.5 512.1 126.8 512.1ZM126.8 435.1C121.4 435.1 117.1 436 114 437.9C110.9 439.7 108.7 442.4 107.3 445.9C105.9 449.5 105.3 453.8 105.3 458.9V486.9C105.3 491.9 106 496.3 107.3 499.9C108.6 503.4 110.9 506.2 114 508.1C117.1 510 121.4 511 126.8 511C132.2 511 136.6 510 139.7 508.1C142.8 506.2 145.1 503.5 146.4 499.9C147.8 496.3 148.4 491.9 148.4 486.9V458.9C148.4 453.9 147.7 449.5 146.4 446C145.1 442.5 142.8 439.8 139.7 438C136.6 436 132.2 435.1 126.8 435.1ZM126.8 501.1C124.7 501.1 123.2 500.6 122.1 499.6C121.1 498.6 120.4 497.3 120.1 495.7C119.8 494.2 119.7 492.5 119.7 490.7V455.2C119.7 453.4 119.9 451.8 120.2 450.3C120.5 448.7 121.2 447.4 122.2 446.4C123.2 445.4 124.8 444.9 126.8 444.9C128.9 444.9 130.5 445.4 131.6 446.4C132.6 447.4 133.3 448.7 133.6 450.3C133.9 451.8 134.1 453.5 134.1 455.2V490.7C134.1 492.5 133.9 494.1 133.6 495.7C133.3 497.3 132.6 498.7 131.6 499.6C130.6 500.6 128.9 501.1 126.8 501.1ZM126.8 446C125.1 446 123.9 446.4 123 447.2C122.2 448 121.6 449.1 121.3 450.5C121 451.9 120.8 453.5 120.8 455.2V490.7C120.8 492.4 120.9 494 121.2 495.5C121.5 496.9 122 498 122.8 498.8C123.6 499.6 124.9 500 126.6 500C128.4 500 129.7 499.6 130.5 498.8C131.3 498 131.9 496.9 132.2 495.5C132.5 494 132.7 492.4 132.7 490.8V455.3C132.7 453.6 132.5 452 132.2 450.6C131.9 449.2 131.3 448.1 130.5 447.3C130 446.4 128.6 446 126.8 446Z" fill="white"/>
<path d="M172.4 507.8C169 507.8 166.2 507.3 164.3 506.2C162.3 505.1 160.9 503.5 160.1 501.4C159.4 499.4 159 496.9 159 494.1V467.3H154.2V457.8H159V443.2H173V457.8H180V467.3H173V492.9C173 494.2 173.3 495.1 173.9 495.7C174.5 496.2 175.5 496.5 176.6 496.5C177.2 496.5 177.9 496.5 178.4 496.4C179 496.3 179.6 496.2 180.1 496.2L180.8 496.1V507.1L180.3 507.2C179.5 507.3 178.4 507.4 176.9 507.6C175.4 507.8 173.9 507.8 172.4 507.8ZM155.4 466.2H160.2V494.2C160.2 496.9 160.6 499.2 161.2 501.1C161.9 502.9 163.1 504.3 164.8 505.2C166.6 506.2 169.1 506.7 172.4 506.7C173.9 506.7 175.3 506.6 176.8 506.5C177.9 506.4 178.9 506.3 179.6 506.2V497.6C179.3 497.6 179 497.7 178.6 497.7C178 497.8 177.3 497.8 176.6 497.8C175.1 497.8 173.9 497.4 173.1 496.7C172.2 495.9 171.8 494.7 171.8 493V466.2H178.8V459.1H171.8V444.5H160.2V459.1H155.4V466.2Z" fill="white"/>
<path d="M201.9 508.2C198.4 508.2 195.3 507.5 192.8 506.3C190.3 505 188.3 503.1 187 500.6C185.7 498.1 185.1 495 185.1 491.4V474C185.1 470.4 185.8 467.3 187 464.8C188.3 462.3 190.3 460.4 192.8 459.1C195.3 457.8 198.4 457.2 201.9 457.2C205.4 457.2 208.5 457.9 211 459.1C213.5 460.4 215.5 462.3 216.8 464.8C218.1 467.3 218.8 470.4 218.8 474V491.4C218.8 495 218.1 498.1 216.8 500.6C215.5 503.1 213.5 505 211 506.3C208.5 507.5 205.4 508.2 201.9 508.2ZM201.9 458.3C198.6 458.3 195.7 458.9 193.3 460.1C191 461.3 189.2 463 188 465.3C186.8 467.6 186.2 470.5 186.2 473.9V491.3C186.2 494.7 186.8 497.7 188 499.9C189.2 502.2 191 503.9 193.3 505.1C195.7 506.3 198.5 506.9 201.9 506.9C205.2 506.9 208.1 506.3 210.5 505.1C212.8 503.9 214.6 502.2 215.8 499.9C217 497.6 217.6 494.7 217.6 491.3V473.9C217.6 470.5 217 467.5 215.8 465.3C214.6 463 212.8 461.3 210.5 460.1C208.1 458.9 205.3 458.3 201.9 458.3ZM202 499.6C200.8 499.6 199.8 499.2 199.1 498.5C198.5 497.8 198 496.9 197.8 495.8C197.6 494.7 197.5 493.5 197.5 492.1V473C197.5 471.6 197.6 470.3 197.8 469.3C198 468.2 198.4 467.3 199.1 466.6C199.8 465.9 200.7 465.5 202 465.5C203.2 465.5 204.2 465.9 204.9 466.6C205.5 467.3 205.9 468.2 206.1 469.3C206.3 470.3 206.4 471.6 206.4 473V492.1C206.4 493.5 206.3 494.7 206.1 495.7C205.9 496.8 205.5 497.8 204.9 498.4C204.2 499.3 203.2 499.6 202 499.6ZM202 466.8C201.1 466.8 200.5 467 200 467.5C199.5 468 199.2 468.7 199 469.6C198.8 470.6 198.7 471.7 198.7 473.1V492.2C198.7 493.5 198.8 494.6 199 495.6C199.2 496.5 199.5 497.2 200 497.7C200.4 498.2 201.1 498.4 202 498.4C202.9 498.4 203.5 498.2 204 497.7C204.5 497.2 204.8 496.5 204.9 495.6C205.1 494.6 205.1 493.4 205.1 492.2V473.1C205.1 471.7 205 470.6 204.9 469.6C204.8 468.7 204.4 468 204 467.5C203.5 467 202.9 466.8 202 466.8Z" fill="white"/>
<path d="M243.2 511.1H226.7V434.8H251.1C255.7 434.8 259.5 435.7 262.4 437.4C265.3 439.2 267.6 441.7 269 445C270.4 448.3 271.1 452.3 271.1 456.9C271.1 462.4 270.2 466.7 268.3 469.8C266.4 472.9 263.8 475.2 260.5 476.5C257.3 477.8 253.6 478.4 249.4 478.4H243V511.1H243.2ZM227.9 509.9H242V477.4H249.6C253.6 477.4 257.2 476.8 260.2 475.5C263.2 474.3 265.6 472.2 267.4 469.3C269.2 466.4 270 462.2 270 457C270 452.5 269.3 448.7 268 445.6C266.7 442.5 264.6 440.1 261.9 438.5C259.2 436.9 255.6 436 251.2 436H228V509.9H227.9ZM247.9 467.8H241.9V445.6H247.8C250.5 445.6 252.4 446.1 253.7 447C255 448 255.8 449.3 256.2 451C256.5 452.6 256.7 454.6 256.7 456.9C256.7 459.4 256.5 461.4 256 463C255.5 464.7 254.6 466 253.3 466.7C252.1 467.4 250.3 467.8 247.9 467.8ZM243.2 466.6H248C250.1 466.6 251.7 466.3 252.8 465.6C253.9 465 254.6 464 255 462.6C255.4 461.1 255.6 459.2 255.6 456.8C255.6 454.6 255.4 452.7 255.1 451.2C254.8 449.8 254.1 448.7 253.1 447.9C252 447.1 250.3 446.7 247.9 446.7H243.2V466.6Z" fill="white"/>
<path d="M324.2 511.1H307.3L298.7 477.1H294.4V511.1H277.9V434.8H298C303.1 434.8 307.5 435.4 311.2 436.5C314.9 437.7 317.8 439.8 319.9 442.8C321.9 445.8 322.9 450 322.9 455.2C322.9 458.3 322.6 461.1 322.1 463.5C321.6 466 320.6 468.1 319.2 469.9C317.9 471.6 316.1 473 313.8 474.1L324.2 511.1ZM308.2 509.9H322.6L312.3 473.5L312.8 473.3C315.1 472.3 316.9 470.9 318.2 469.3C319.5 467.6 320.4 465.6 320.9 463.3C321.4 461 321.7 458.3 321.7 455.2C321.7 450.2 320.8 446.3 318.9 443.5C317 440.7 314.3 438.8 310.9 437.7C307.4 436.6 303 436 298.1 436H279.2V509.9H293.3V475.9H299.7L308.2 509.9ZM298.2 468H293.2V445.2H299C302.7 445.2 305.2 446.2 306.6 448.2C307.9 450.1 308.6 452.9 308.6 456.5C308.6 459 308.3 461.1 307.7 462.8C307.1 464.6 306 465.9 304.4 466.8C302.8 467.5 300.7 468 298.2 468ZM294.3 466.8H298.2C300.6 466.8 302.4 466.4 303.7 465.7C305 465 305.9 463.9 306.4 462.4C307 460.8 307.2 458.9 307.2 456.5C307.2 453.2 306.6 450.6 305.4 448.9C304.3 447.3 302 446.4 298.8 446.4H294.2V466.8H294.3Z" fill="white"/>
<path d="M353.4 512.1C347.8 512.1 343.3 511.1 340 509C336.7 507 334.3 504 332.8 500.2C331.4 496.5 330.7 492 330.7 486.8V458.8C330.7 453.6 331.4 449.1 332.8 445.4C334.2 441.6 336.6 438.7 340 436.8C343.3 434.8 347.8 433.8 353.4 433.8C359 433.8 363.6 434.8 366.9 436.8C370.2 438.8 372.7 441.7 374.1 445.4C375.5 449.1 376.2 453.6 376.2 458.7V486.7C376.2 491.9 375.5 496.4 374.1 500.1C372.7 503.9 370.2 506.8 366.9 508.9C363.6 511.1 359.1 512.1 353.4 512.1ZM353.4 435.1C348 435.1 343.7 436 340.6 437.9C337.5 439.7 335.3 442.4 333.9 445.9C332.5 449.5 331.9 453.8 331.9 458.9V486.9C331.9 491.9 332.6 496.3 333.9 499.9C335.2 503.4 337.5 506.2 340.6 508.1C343.7 510 348 511 353.4 511C358.8 511 363.2 510 366.3 508.1C369.4 506.2 371.7 503.5 373 499.9C374.4 496.3 375 491.9 375 486.9V458.9C375 453.9 374.3 449.5 373 446C371.7 442.5 369.4 439.8 366.3 438C363.2 436 358.9 435.1 353.4 435.1ZM353.4 501.1C351.3 501.1 349.8 500.6 348.7 499.6C347.7 498.6 347 497.3 346.7 495.7C346.4 494.2 346.3 492.5 346.3 490.7V455.2C346.3 453.4 346.5 451.8 346.8 450.3C347.1 448.7 347.8 447.4 348.8 446.4C349.8 445.4 351.4 444.9 353.4 444.9C355.5 444.9 357.1 445.4 358.2 446.4C359.2 447.4 359.9 448.7 360.2 450.3C360.5 451.8 360.7 453.5 360.7 455.2V490.7C360.7 492.5 360.5 494.1 360.2 495.7C359.9 497.3 359.2 498.7 358.2 499.6C357.2 500.6 355.6 501.1 353.4 501.1ZM353.4 446C351.7 446 350.5 446.4 349.6 447.2C348.8 448 348.2 449.1 347.9 450.5C347.6 451.9 347.4 453.5 347.4 455.2V490.7C347.4 492.4 347.5 494 347.8 495.5C348.1 496.9 348.6 498 349.4 498.8C350.2 499.6 351.5 500 353.2 500C355 500 356.3 499.6 357.1 498.8C357.9 498 358.5 496.9 358.8 495.5C359.1 494 359.3 492.4 359.3 490.8V455.3C359.3 453.6 359.1 452 358.8 450.6C358.5 449.2 357.9 448.1 357.1 447.3C356.6 446.4 355.2 446 353.4 446Z" fill="white"/>
<path d="M22.1 382.9C23.5 381.5 26.1 378.5 27.1 377.4C27.7 376.8 28.2 376.5 28.7 376.5C29.3 376.5 29.7 376.8 30.4 377.5C32.5 379.4 36.1 383.4 38.9 386.9L37.8 387.9C35.1 384.4 31.5 380.3 29.7 378.6C29.3 378.2 29 377.9 28.7 377.9C28.5 377.9 28.2 378.2 27.8 378.5C27 379.4 24.5 382.2 23.3 383.5V383.6C23.3 383.7 23.2 383.9 23.1 384L22.1 382.9Z" fill="white"/>
<path d="M57.2 375.7C57.2 375.8 57.1 375.8 57 375.9C56 378.2 54.5 380.2 52.7 381.7C52.4 381.5 51.9 381.1 51.6 381C53.3 379.8 54.6 378 55.2 376.5H42.3V375.3H55.9L56.1 375.2L57.2 375.7ZM50.2 379C50.2 379.1 50 379.3 49.8 379.3C49.3 383.5 47.8 387.6 44.1 389.7C43.8 389.5 43.4 389.1 43 388.9C46.7 386.9 48 383.1 48.4 378.8L50.2 379Z" fill="white"/>
<path d="M63.7999 377.9C65.4999 378.6 67.3 379.5 68.9 380.5C70.1 378.8 71.2 376.5 72.1 374.2L73.9 374.9C73.8 375.1 73.5999 375.2 73.2999 375.1C72.4999 377 71.3 379.3 70.1 381.1C71.5 382 72.9 382.9 74 383.9L73.1 385C72.1 384.1 70.7999 383.1 69.2999 382.2C67.3999 384.8 64.7 387.5 61.7 389.6C61.5 389.3 61 388.9 60.7 388.7C63.7 386.8 66.5 384.1 68.2 381.6C66.6 380.6 64.8 379.7 63.1 379L63.7999 377.9Z" fill="white"/>
<path d="M93.6 375.2C93.5 375.3 93.4 375.3 93.3 375.3C93.2 375.3 93.2 375.3 93.1 375.3C91.7 376.7 89.7 378.3 88 379.6C88.1 379.7 88.4 379.8 88.4 379.8C88.4 379.9 88.2 380 88 380V389.7H86.7V380.4C84.8 381.8 82.3 383.2 79.8 384.4C79.6 384.1 79.3 383.7 79 383.4C83.9 381.1 89.3 377.3 92.2 374.1L93.6 375.2Z" fill="white"/>
<path d="M110.6 377.5C110.5 377.6 110.4 377.7 110.3 377.8C108.4 383.6 105.5 387.4 100.5 389.9C100.3 389.6 99.9 389.2 99.6 388.9C104.3 386.6 107.2 383 108.7 378.2H102.3C101.3 379.8 99.9 381.4 98.3 382.6C98 382.3 97.6 382 97.3 381.8C99.7 379.9 101.8 377.2 103 374L104.7 374.5C104.6 374.7 104.4 374.7 104.2 374.7C103.8 375.5 103.5 376.2 103 377H109.3L109.5 376.9L110.6 377.5Z" fill="white"/>
<path d="M129.6 375.7C129.6 375.8 129.5 375.8 129.4 375.9C128.4 378.2 126.9 380.2 125.1 381.7C124.8 381.5 124.3 381.1 124 381C125.7 379.8 127 378 127.6 376.5H114.7V375.3H128.3L128.5 375.2L129.6 375.7ZM122.5 379C122.5 379.1 122.3 379.3 122.1 379.3C121.6 383.5 120.1 387.6 116.4 389.7C116.1 389.5 115.7 389.1 115.3 388.9C119 386.9 120.3 383.1 120.7 378.8L122.5 379Z" fill="white"/>
<path d="M133.2 380.9H148.2V382.2H133.8C133.7 382.4 133.5 382.5 133.2 382.5V380.9Z" fill="white"/>
<path d="M167.4 381.1H161.3L161.6 381.2C161.6 381.3 161.4 381.4 161.2 381.4C160.7 384.7 159.5 387.7 155.6 389.6C155.4 389.4 154.9 388.9 154.6 388.7C158.3 386.9 159.4 384.4 159.8 381.1H152.8V379.9H167.3V381.1H167.4ZM165.6 376H154.5V374.8H165.6V376Z" fill="white"/>
<path d="M183 378.2C182.9 378.3 182.8 378.3 182.7 378.3C182.6 378.3 182.5 378.3 182.4 378.3C181.2 379.5 179.8 380.7 178.4 381.6C178.6 381.7 178.7 381.7 178.8 381.8C178.8 381.9 178.6 382 178.5 382V389.8H177.4V382.3C175.9 383.4 173.4 384.8 171.5 385.7C171.4 385.5 171.1 385.1 170.9 384.9C174 383.5 178.6 380.8 181.8 377.3L183 378.2Z" fill="white"/>
<path d="M199.4 375.9C199.4 376 199.3 376.1 199.2 376.1C198.2 378.4 197.1 380.4 195.6 382.3C197.6 383.9 200.5 386.5 202.2 388.4L201.1 389.4C199.5 387.6 196.6 384.8 194.8 383.4C193.2 385.3 190.5 388 187.9 389.4C187.7 389.1 187.3 388.7 187 388.4C192 385.7 195.9 380.5 197.6 376.6H188.8V375.4H198.3L198.5 375.3L199.4 375.9Z" fill="white"/>
<path d="M216.5 383.6C214.7 382.6 212.1 381.4 210.2 380.7V389.7H208.8V374.1L210.6 374.2C210.6 374.4 210.4 374.5 210.1 374.6V379.9L210.4 379.5C212.5 380.3 215.3 381.5 217.2 382.5L216.5 383.6Z" fill="white"/>
<path d="M235.4 376.6V388.8H234.1V387.8H222.8V386.6H234.1V377.8H222.9V376.6H235.4Z" fill="white"/>
<path d="M240.9 380.9H255.9V382.2H241.6C241.5 382.4 241.3 382.5 241 382.5L240.9 380.9Z" fill="white"/>
<path d="M272.3 375.9C272.3 376 272.2 376.1 272.1 376.1C271.1 378.4 270 380.4 268.5 382.3C270.5 383.9 273.4 386.5 275.1 388.4L274 389.4C272.4 387.6 269.5 384.8 267.7 383.4C266.1 385.3 263.4 388 260.8 389.4C260.6 389.1 260.2 388.7 259.9 388.4C264.9 385.7 268.8 380.5 270.5 376.6H261.7V375.4H271.2L271.4 375.3L272.3 375.9Z" fill="white"/>
<path d="M294.9 380.1H287.9C289.1 384.4 291.4 387.7 295.2 389.1C294.9 389.4 294.5 389.9 294.3 390.2C290.5 388.7 288.3 385.5 286.9 381.1C286.1 384.7 284.1 388.2 279.5 390.2C279.3 389.9 278.9 389.4 278.6 389.2C283.4 387.3 285.1 383.7 285.8 380H278.8V378.8H285.9C286.1 376.9 286.1 375.1 286.1 373.5L287.8 373.6C287.8 373.8 287.6 373.9 287.4 373.9C287.4 375.3 287.4 377 287.1 378.8H294.7V380.1H294.9Z" fill="white"/>
<path d="M307.7 373.6C307.6 373.7 307.5 373.8 307.3 373.9C309.1 376.3 312.3 378.8 315.1 380C314.8 380.3 314.5 380.7 314.3 381.1C311.4 379.7 308.2 377.2 306.5 374.8C305 377 302 379.6 298.8 381.2C298.7 380.9 298.3 380.5 298.1 380.2C301.3 378.7 304.4 376 305.8 373.6H307.7ZM299.2 383.9V382.7H314.3V383.9H305.6L305.8 384C305.7 384.1 305.6 384.2 305.4 384.2C304.9 385.4 304.1 387 303.3 388.4C305.7 388.3 308.5 388.3 311.2 388.2C310.4 387.3 309.5 386.3 308.6 385.5L309.6 384.9C311.3 386.4 313.1 388.3 314 389.7L312.9 390.4C312.7 390 312.4 389.6 312 389.1C307.6 389.3 303 389.5 300.1 389.6C300.1 389.8 300 389.8 299.8 389.9L299.3 388.5C300.1 388.5 300.9 388.5 301.9 388.4C302.6 387.1 303.5 385.3 304 383.9H299.2ZM302.2 379.2H310.9V380.3H302.2V379.2Z" fill="white"/>
<path d="M334.5 385.4H327.8C329.1 387.5 331.5 388.7 334.7 389.2C334.4 389.5 334.1 390 334 390.3C330.4 389.6 327.9 388.1 326.5 385.5H326.2C325.3 387.3 323.3 389 319 390.3C318.9 390 318.5 389.6 318.3 389.3C322.1 388.2 323.9 386.9 324.9 385.4H318.5V384.3H325.5C325.7 383.7 325.8 383.2 325.8 382.6H320.6V381.6H325.7V380.1H320.1V379.1H325.7V377.3L327.3 377.4C327.3 377.5 327.2 377.6 327 377.7V379.1H332.7V376.8H320.1V379.2H318.9V375.7H325.8V373.5L327.4 373.6C327.4 373.7 327.3 373.8 327 373.8V375.7H334V379.2H332.8V380.1H327V381.6H332.4V382.6H326.9C326.8 383.2 326.8 383.7 326.6 384.3H334.5V385.4Z" fill="white"/>
<path d="M343 379.3C343.8 380.5 344.7 382 345 383L344 383.5C343.9 383.2 343.8 382.8 343.6 382.4C343.1 382.4 342.5 382.5 342 382.5V390.2H340.9V382.5C339.9 382.5 339 382.6 338.3 382.6C338.3 382.7 338.2 382.8 338 382.8L337.7 381.4H339C339.4 380.9 339.8 380.4 340.2 379.7C339.6 378.9 338.7 377.8 337.9 377L338.5 376.2C338.7 376.4 338.9 376.5 339.1 376.7C339.7 375.7 340.4 374.2 340.8 373.2L342.1 373.7C342 373.8 341.9 373.9 341.7 373.9C341.2 374.9 340.4 376.4 339.8 377.4C340.2 377.8 340.6 378.3 340.9 378.7C341.7 377.5 342.4 376.3 342.9 375.3L344.2 375.9C344.1 376 344 376.1 343.8 376.1C342.9 377.6 341.4 379.8 340.2 381.3L343.2 381.2C342.9 380.6 342.5 380 342.1 379.4L343 379.3ZM340.2 384.2C340.1 384.3 340 384.4 339.8 384.4C339.5 385.9 339.1 387.7 338.6 388.7C338.3 388.5 338 388.4 337.7 388.2C338.2 387.2 338.6 385.5 338.8 383.8L340.2 384.2ZM343.8 387.7C343.6 386.7 343.1 385.2 342.6 384.1L343.5 383.8C344 384.9 344.6 386.4 344.8 387.3L343.8 387.7ZM353.4 387.5H347.4L348.5 388.1C348.4 388.2 348.3 388.2 348.2 388.2C347.4 388.9 345.6 389.8 344.2 390.3C344 390.1 343.6 389.7 343.4 389.5C344.9 389 346.6 388.2 347.4 387.5H345.5V380.5H353.4V387.5ZM354.6 378.7V379.6H344.1V378.7H348.7V377.6H345.2V376.8H348.7V375.8H344.6V374.9H348.7V373.6L350.2 373.7C350.2 373.8 350.1 373.9 349.8 374V375H354V375.9H349.8V376.9H353.4V377.8H349.8V378.9H354.6V378.7ZM346.6 381.4V382.6H352.3V381.4H346.6ZM346.6 383.4V384.6H352.3V383.4H346.6ZM346.6 385.5V386.7H352.3V385.5H346.6ZM353.6 390.3C352.8 389.7 351.5 388.9 350.3 388.2L351.1 387.6C352.3 388.3 353.7 389.1 354.6 389.7L353.6 390.3Z" fill="white"/>
<path d="M378.6 147.2H0.599976V167.5H378.6V147.2Z" fill="#DC002E"/>
<path d="M378.6 332.8H0.599976V353.1H378.6V332.8Z" fill="#DC002E"/>
<path d="M292 300.5C292.5 300.6 292.9 300.7 292.9 301.3C292.9 301.9 292.5 302.2 291.3 303.1V345H280.3V315.6C279.5 316.8 278.7 317.6 277.9 318.5C275.9 313.4 275.2 311.6 272.6 307.9C279 301.4 284.3 290.5 286 285L296.4 288.4C297 288.6 297.5 288.9 297.5 289.4C297.5 290.2 296.9 290.4 295.5 290.8C293.1 296.1 292.8 296.7 290.8 300.3L292 300.5ZM335.1 333.4V343.5H293V333.4H312.6C315.6 323.8 318.3 312.2 318.8 305.6L330.8 307.6C331.3 307.7 331.9 308 331.9 308.6C331.9 309.4 331.4 309.5 329.8 310C327.6 320.3 326.2 325.2 323.8 333.4H335.1ZM334 294.7V304.6H294.7V294.7H307.7V285.1L319.9 285.6C320.6 285.6 321.1 285.9 321.1 286.6C321.1 287.6 320 288 319.3 288.2V294.8H334V294.7ZM305.4 306.4C307.8 311.3 311.8 326 312.2 328.9C306.2 330 303.1 331.1 301.6 331.6C301.2 328.4 299.9 319.2 295 309.6L305.4 306.4Z" fill="white"/>
<path d="M226.5 344.1V243.5H203.4V214.6C220.7 211.2 227.9 204.7 233.1 184.9H258.2V344.1H226.5Z" fill="white"/>
<path d="M147.6 222.8H110.4V233.9C110.4 241.4 109.8 252.3 105.6 259.6C105.1 259 103.7 258.1 103 257.8C107 250.8 107.3 241 107.3 233.9V219.8H125.4V214.9L129.7 215.2C129.7 215.5 129.4 215.8 128.7 215.9V219.9H147.6V222.8ZM141.1 242.5L143.3 243.6C143.2 243.8 143 244 142.8 244.1C140.6 248.1 137.2 251.2 133 253.5C137.4 255.2 142.5 256.3 148 256.8C147.3 257.5 146.5 258.8 146.1 259.6C140.1 258.8 134.4 257.3 129.6 255.1C124.4 257.4 118.4 258.7 112.2 259.5C112 258.7 111.3 257.5 110.8 256.8C116.2 256.2 121.6 255.2 126.4 253.4C123.1 251.4 120.4 249 118.4 246.2L120.4 245.4H112.8V242.7H140.6L141.1 242.5ZM138.6 239.2H120.2V231.2H112.4V228.5H120.2V224.1L124.2 224.4C124.2 224.7 123.9 225 123.2 225V228.5H135.3V224.1L139.4 224.4C139.4 224.7 139.1 225 138.4 225V228.5H147.1V231.2H138.6V239.2ZM121.3 245.4C123.3 248.1 126.1 250.2 129.7 252C133.2 250.3 136.2 248.1 138.3 245.4H121.3ZM135.4 231.2H123.3V236.6H135.4V231.2Z" fill="white"/>
<path d="M173.8 223.6C173.6 224 173.2 224.4 172.6 224.4C170.9 239.3 165.9 252.3 157.9 252.3C153.9 252.3 150.2 248.3 150.2 240.7C150.2 229.2 159.2 219.5 171.8 219.5C185.7 219.5 191.7 228.3 191.7 237.6C191.7 249 185.1 254.5 173.5 257.2C173.1 256.4 172.3 255.1 171.5 254.3C182.5 252.2 188.2 246.8 188.2 237.7C188.2 229.8 183.1 222.6 171.9 222.6C171.4 222.6 170.9 222.6 170.5 222.7L173.8 223.6ZM169.2 223C159.5 224.2 153.5 232.2 153.5 240.6C153.5 245.7 155.7 249 158 249C163.8 249 168 236.2 169.2 223Z" fill="white"/>
<path d="M94.3 204.7H69.5L67.6 217.2C68.9 216.1 71.8 213.6 78.3 213.6C88.8 213.6 98.7 220.7 98.7 235.8C98.7 248.3 91.4 260.1 73.1 260.1C66.3 260.1 59 258 54.8 254.2C49.1 249 48.3 242.5 47.9 239.6H64.2C65.6 245.4 69.7 245.9 73 245.9C76.3 245.9 83 244.9 83 236.1C83 226.3 75.1 226.3 73.3 226.3C68.2 226.3 67.1 227.4 65.7 228.8H50.4L56.4 191.3H94.3V204.7Z" fill="white"/>
<path d="M66.1 340.7V345.3H50.3V272.2H116.2V345.1H100.2V340.7H66.1ZM100.2 299.5V285.9H66.1V299.5H100.2ZM100.2 327V312.7H66.1V327H100.2Z" fill="white"/>
<path d="M185.4 332H172.9V344.9H157.8V332H145.6V321.9C142 326.2 137.9 330.3 133.5 333.9C130 327.9 125.8 325.2 122.1 323.2C127.3 320.2 141.5 310.5 150.7 290.6H124.9V277.3H157.8V263.7L172.6 264.2C173.4 264.2 174.8 264.4 174.8 265.6C174.8 266.7 173.7 267.2 173 267.6V277.2H205.8V290.5H179.6C188 306.6 202 319 208.1 322.5C203.8 325.9 200.7 329.2 197.6 334C192.9 330.4 188.5 325.5 185.5 322.1V332H185.4ZM157.8 303.8C155.8 307.8 152.9 312.8 147.8 319.1H157.8V303.8ZM182.9 319.1C181.4 317.3 176.9 311.8 172.9 304.1V319.1H182.9Z" fill="white"/>
<path d="M292 115.7C292.5 115.8 292.9 115.9 292.9 116.5C292.9 117.1 292.5 117.4 291.3 118.3V160.2H280.3V130.8C279.5 132 278.7 132.8 277.9 133.7C275.9 128.6 275.2 126.8 272.6 123.1C279 116.6 284.3 105.7 286 100.2L296.4 103.6C297 103.8 297.5 104.1 297.5 104.6C297.5 105.4 296.9 105.6 295.5 106C293.1 111.3 292.8 111.9 290.8 115.5L292 115.7ZM335.1 148.5V158.6H293V148.5H312.6C315.6 138.9 318.3 127.3 318.8 120.7L330.8 122.7C331.3 122.8 331.9 123.1 331.9 123.7C331.9 124.5 331.4 124.6 329.8 125.1C327.6 135.4 326.2 140.3 323.8 148.5H335.1ZM334 109.8V119.7H294.7V109.8H307.7V100.2L319.9 100.7C320.6 100.7 321.1 101 321.1 101.7C321.1 102.7 320 103.1 319.3 103.3V109.9H334V109.8ZM305.4 121.5C307.8 126.4 311.8 141.1 312.2 144C306.2 145.1 303.1 146.2 301.6 146.7C301.2 143.5 299.9 134.3 295 124.7L305.4 121.5Z" fill="white"/>
<path d="M226.5 159.2V58.7H203.4V29.7C220.7 26.3 227.9 19.8 233.1 0H258.2V159.2H226.5Z" fill="white"/>
<path d="M51.5 80.7999L66.8 81.2999C67.9 81.2999 69 81.5 69 82.6C69 83.5 68.1 83.8999 66.6 84.4999V96.4999H75.8V78.2L90.5 78.7999C91.9 78.8999 92.6 79.2 92.6 80.1C92.6 81.1 91.9 81.2999 90.2 81.9999V96.3999H99.3V79.8999L113.7 80.4999C115 80.5999 115.6 80.7999 115.6 81.7999C115.6 82.5999 115 83 113.4 83.6V96.2999H123.6V109.7H113.4V138.8H99.2V135.4H90.1V139.8H75.7V109.9H66.6V142.8H118.6V156.5H66.6V159.6H51.5V109.9H42.9V96.4999H51.5V80.7999ZM99.3 109.9H90.2V122.2H99.3V109.9Z" fill="white"/>
<path d="M175.8 126.5C171.3 122.8 168.4 119.5 166.9 117.6C163.7 121.5 160 124.7 158.5 126L162.9 126.8C163.5 126.9 164.3 127.1 164.3 128C164.3 129.1 163.2 129.8 162.4 130.1C161.3 137.7 160.5 142 156.9 147.8C155.8 149.4 151.2 156.9 142.4 160.4C140.6 156.8 136.2 152.7 131.8 150.1C145.2 145.3 146.9 137.1 147.6 134C142.8 136.8 139.2 138.6 133.1 140.7C131.8 136.9 128.3 131.7 124.4 128.3C133.6 126.5 142.5 122.9 149.9 117.3H132.9V80H202.1V117.3H183.6C190 121.9 201.5 126.8 210.2 128C206.4 132.5 204.9 134.8 202.1 140.4C197.3 139.1 194.1 137.6 187.6 134.2V159.7H173V126.5H175.8ZM160.2 90.3H147.1V94.2H160.2V90.3ZM160.2 103H147.1V107H160.2V103ZM174.7 94.2H187.8V90.3H174.7V94.2ZM174.7 106.9H187.8V102.9H174.7V106.9Z" fill="white"/>
</svg>
