<svg width="81" height="391" viewBox="0 0 81 391" fill="none" xmlns="http://www.w3.org/2000/svg">
<path d="M79.5 390.8H1.30005V366C1.30005 361.3 2.20005 357.5 4.00005 354.5C5.80005 351.5 8.30005 349.3 11.7 347.9C15 346.5 19.1001 345.7 23.9001 345.7C29.5001 345.7 33.9001 346.7 37 348.5C40.2001 350.4 42.4001 353 43.7001 356.3C45 359.6 45.7001 363.3 45.7001 367.6V374.8H79.6V390.8H79.5ZM34.4001 374.9V369.3C34.4001 367 34 365.2 33.3 363.9C32.6 362.6 31.4 361.8 29.8 361.3C28.2 360.9 26.1 360.6 23.6 360.6C21.2 360.6 19.2 360.8 17.6 361.1C16 361.5 14.7 362.2 13.8 363.5C12.9 364.7 12.4 366.7 12.4 369.3V374.8H34.4001V374.9Z" fill="white"/>
<path d="M79.5 337.6H1.30005V317.3C1.30005 312 1.90005 307.5 3.10005 303.7C4.30005 299.9 6.40005 297 9.40005 295C12.4 293 16.6 292 21.9 292C25.1 292 28.0001 292.3 30.4001 292.8C32.9001 293.3 35 294.3 36.9001 295.7C38.7001 297.1 40.2001 299 41.3 301.5L79.4 290.7V307L44 316V321.6H79.4V337.6H79.5ZM34.6 321.6V317C34.6 314.4 34.2001 312.4 33.3 310.9C32.5 309.4 31.2001 308.4 29.5 307.8C27.8 307.2 25.7001 306.9 23.2001 306.9C19.6 306.9 16.8 307.6 14.9 308.9C13 310.2 12.1 312.7 12.1 316.3V321.7H34.6V321.6Z" fill="white"/>
<path d="M80.6 259.5C80.6 265.2 79.6 269.8 77.5 273.1C75.4 276.4 72.5 278.8 68.7 280.3C64.9 281.7 60.3001 282.5 54.9001 282.5H25.7001C20.4001 282.5 15.8 281.8 12 280.3C8.20005 278.9 5.30005 276.5 3.30005 273.1C1.30005 269.8 0.300049 265.2 0.300049 259.5C0.300049 253.7 1.30005 249.1 3.30005 245.7C5.30005 242.3 8.20005 239.9 12 238.5C15.8 237.1 20.3001 236.3 25.7001 236.3H54.8C60.1 236.3 64.7 237 68.6 238.5C72.4 239.9 75.4 242.4 77.4 245.7C79.5 249.1 80.6 253.7 80.6 259.5ZM69.1 259.5C69.1 257.4 68.6 255.9 67.7 255C66.8 254 65.5001 253.4 63.9001 253.1C62.3001 252.8 60.6001 252.6 58.8001 252.6H21.8C20 252.6 18.3 252.8 16.8 253.1C15.3 253.4 14 254.1 13.1 255C12.2 256 11.7 257.5 11.7 259.5C11.7 261.4 12.2 262.9 13.1 263.8C14 264.8 15.3 265.4 16.8 265.7C18.3 266 20 266.2 21.8 266.2H58.8001C60.6001 266.2 62.3001 266.1 63.9001 265.8C65.5001 265.5 66.7 264.9 67.7 263.9C68.6 262.9 69.1 261.5 69.1 259.5Z" fill="white"/>
<path d="M76.0999 212C76.0999 215.5 75.6 218.2 74.5 220.2C73.4 222.2 71.9 223.5 69.9 224.3C67.9 225.1 65.4 225.4 62.5 225.4H34V230.4H25.4V225.4H10.2V212.1H25.4V204.8H34V212.1H61.3C62.9 212.1 63.9999 211.7 64.5999 210.9C65.2999 210.1 65.5999 209 65.5999 207.6C65.5999 206.9 65.6 206.2 65.5 205.6C65.4 205 65.3 204.4 65.3 203.9H75.5C75.6 204.7 75.6999 205.9 75.8999 207.4C75.9999 208.9 76.0999 210.5 76.0999 212Z" stroke="white" stroke-width="1.2" stroke-miterlimit="10"/>
<path d="M76.5 181.3C76.5 184.9 75.8 188 74.5 190.5C73.2 193 71.3 195 68.8 196.3C66.3 197.6 63.2 198.3 59.5 198.3H41.5C37.8 198.3 34.7 197.6 32.2 196.3C29.7 195 27.8 193.1 26.5 190.5C25.2 188 24.5 184.9 24.5 181.3C24.5 177.7 25.2 174.6 26.5 172.1C27.8 169.6 29.7 167.6 32.2 166.3C34.7 165 37.8 164.3 41.5 164.3H59.6C63.3 164.3 66.4 165 68.9 166.3C71.4 167.6 73.3 169.6 74.6 172.1C75.8 174.6 76.5 177.7 76.5 181.3ZM67.6 181.2C67.6 180.1 67.3 179.3 66.7 178.7C66.1 178.1 65.3 177.7 64.2 177.6C63.1 177.4 61.9 177.3 60.5 177.3H40.6C39.2 177.3 37.9 177.4 36.9 177.6C35.9 177.8 35 178.2 34.4 178.7C33.8 179.3 33.4 180.1 33.4 181.2C33.4 182.3 33.7 183.1 34.4 183.7C35 184.3 35.9 184.7 36.9 184.9C37.9 185.1 39.2 185.2 40.6 185.2H60.5C61.9 185.2 63.1 185.1 64.2 184.9C65.3 184.7 66.1 184.3 66.7 183.7C67.3 183.1 67.6 182.3 67.6 181.2Z" stroke="white" stroke-width="1.2" stroke-miterlimit="10"/>
<path d="M79.5 154.9H1.30005V130.1C1.30005 125.4 2.20005 121.6 4.00005 118.6C5.80005 115.6 8.30005 113.4 11.7 112C15 110.6 19.1001 109.8 23.9001 109.8C29.5001 109.8 33.9001 110.8 37 112.6C40.2001 114.5 42.4001 117.1 43.7001 120.4C45 123.7 45.7001 127.4 45.7001 131.7V138.9H79.6V154.9H79.5ZM34.4001 139V133.4C34.4001 131.1 34 129.3 33.3 128C32.6 126.7 31.4 125.9 29.8 125.4C28.2 125 26.1 124.7 23.6 124.7C21.2 124.7 19.2 124.9 17.6 125.2C16 125.6 14.7 126.3 13.8 127.6C12.9 128.8 12.4 130.8 12.4 133.4V138.9H34.4001V139Z" fill="#DC002E"/>
<path d="M79.5 101.6H1.30005V81.3001C1.30005 76.0001 1.90005 71.5001 3.10005 67.7001C4.30005 63.9001 6.40005 61.0001 9.40005 59.0001C12.4 57.0001 16.6 56.0001 21.9 56.0001C25.1 56.0001 28.0001 56.3001 30.4001 56.8001C32.9001 57.3001 35 58.3001 36.9001 59.7001C38.7001 61.1001 40.2001 63.0001 41.3 65.5001L79.4 54.7001V71.0001L44 80.0001V85.6001H79.4V101.6H79.5ZM34.6 85.7001V81.1001C34.6 78.5001 34.2001 76.5001 33.3 75.0001C32.5 73.5001 31.2001 72.5001 29.5 71.9001C27.8 71.3001 25.7001 71.0001 23.2001 71.0001C19.6 71.0001 16.8 71.7001 14.9 73.0001C13 74.3001 12.1 76.8001 12.1 80.4001V85.8001H34.6V85.7001Z" fill="#DC002E"/>
<path d="M80.6 23.5C80.6 29.2001 79.6 33.8 77.5 37.1C75.4 40.4 72.5 42.8 68.7 44.3C64.9 45.7001 60.3001 46.5 54.9001 46.5H25.7001C20.4001 46.5 15.8 45.8 12 44.3C8.20005 42.9 5.30005 40.5 3.30005 37.1C1.30005 33.8 0.300049 29.2001 0.300049 23.5C0.300049 17.7001 1.30005 13.1 3.30005 9.70005C5.30005 6.30005 8.20005 3.90005 12 2.50005C15.8 1.10005 20.3001 0.300049 25.7001 0.300049H54.8C60.1 0.300049 64.7 1.00005 68.6 2.50005C72.4 3.90005 75.4 6.40005 77.4 9.70005C79.5 13.2 80.6 17.7001 80.6 23.5ZM69.1 23.5C69.1 21.4 68.6 19.9 67.7 19C66.8 18 65.5001 17.4 63.9001 17.1C62.3001 16.8 60.6001 16.6 58.8001 16.6H21.8C20 16.6 18.3 16.8 16.8 17.1C15.3 17.4 14 18.1 13.1 19C12.2 20 11.7 21.5 11.7 23.5C11.7 25.4 12.2 26.9 13.1 27.8C14 28.8 15.3 29.4001 16.8 29.7001C18.3 30 20 30.2001 21.8 30.2001H58.8001C60.6001 30.2001 62.3001 30.1 63.9001 29.8C65.5001 29.5 66.7 28.9001 67.7 27.9001C68.6 27.0001 69.1 25.5 69.1 23.5Z" fill="#DC002E"/>
</svg>
