<svg width="116" height="73" viewBox="0 0 116 73" fill="none" xmlns="http://www.w3.org/2000/svg">
<path d="M13.2 15.9C11.6 16.2 9.49998 16.3 7.69998 16.3C6.19998 16.3 4.89998 16.2 4.19998 16.1C1.99997 15.6 1.09998 14.2 1.09998 12.7C1.09998 11.3 1.89997 9.9 2.89997 8.8L3.89997 9.3C2.89997 10.3 2.29998 11.5 2.29998 12.5C2.29998 13.5 2.99998 14.5 4.59998 14.8C5.19998 14.9 6.29998 15 7.49998 15C9.19998 15 11.3 14.9 13 14.5L13.2 15.9ZM5.09998 6.8C5.99998 6.1 7.29997 5.2 8.29997 4.7C6.89997 4.9 3.79998 4.9 1.79998 4.9C1.79998 4.6 1.79998 4 1.79998 3.6C2.19998 3.6 9.09998 3.7 12.1 3L12.2 4.3C10.1 4.6 7.29997 6.4 6.19998 7.3L5.09998 6.8Z" fill="white"/>
<path d="M18.8 5.19998C20.3 5.19998 21.6 5.09997 22.2 4.89997C22.2 3.79997 22.3 3.19998 22.3 1.59998L24.2 1.69998C24.2 1.89998 24 1.99998 23.7 2.09998C23.6 2.89998 23.6 3.99997 23.5 4.69998L24.1 4.89997C23.7 5.79997 23.5 6.79998 23.4 7.49998C25.4 5.59998 27.6 4.29998 29.1 4.29998C30.8 4.29998 31.6 5.49998 31.6 7.59998C31.6 7.79998 31.6 8.09997 31.6 8.29997C31.5 9.89997 31.3 12.1 31.3 13.6C31.3 14.7 31.4 15.3 32.2 15.3C32.7 15.3 33.8 14.8 34.6 14.1C34.6 14.5 34.8 15.2 34.9 15.5C34 16.2 32.9 16.7 32.1 16.7C30.6 16.7 30.1 15.8 30.1 13.9C30.1 13 30.4 7.99998 30.4 7.99998C30.4 6.39998 29.9 5.69998 29 5.69998C27.6 5.69998 25.4 7.19998 23.5 9.09998C23.5 11.7 23.5 14.9 23.5 17.4H22C22 16.4 22 11.2 22 10.1C21.4 11.4 20.1 13 18.7 14.4L18.1 13.3C19.6 11.9 21.3 9.69998 22.1 7.89997C22.1 7.39997 22.1 6.89998 22.1 6.29998C21.5 6.39998 20.2 6.59998 18.8 6.59998V5.19998Z" fill="white"/>
<path d="M44.9 1.89995C44.9 2.09995 44.6 2.19995 44.3 2.19995C44.1 3.19995 43.8 4.99995 43.6 5.99995C44.4 5.89995 45.1 5.79995 45.6 5.79995C48.3 5.79995 49.3 7.59995 49.3 10.3C49.3 11.7 49 13.3 48.7 14.3C48.1 16.1 47 17 45.5 17C44.8 17 43.8 16.7 42.2 15.4C42.4 15.1 42.5 14.7 42.7 14.3C44.1 15.4 44.9 15.7 45.5 15.7C46.5 15.7 47.1 15.1 47.5 13.9C47.9 12.8 48.1 11.1 48.1 10.2C48.1 8.09995 47.4 6.89995 45.6 6.89995C45.1 6.89995 44.3 6.99995 43.4 7.09995C42.5 10.8 41.4 13.9 39.7 16.7999L38.5 16.2C40.2 13.4 41.2 10.6 42.1 7.19995C41.2 7.29995 39.9 7.49995 38.9 7.59995L38.8 6.29995C39.7 6.19995 41.2 5.99995 42.4 5.89995C42.7 4.59995 43 2.99995 43.2 1.39995L44.9 1.89995ZM49.1 1.39995C50 2.09995 51 3.09995 51.5 3.89995L50.8 4.39995C50.3 3.59995 49.2 2.49995 48.4 1.89995L49.1 1.39995ZM53.1 11.8C52.5 9.19995 51.1 6.99995 49.4 5.69995L50.4 4.99995C52.2 6.49995 53.7 8.69995 54.3 11.4L53.1 11.8ZM51.8 0.699951C52.7 1.29995 53.7 2.39995 54.2 3.19995L53.5 3.69995C53 2.89995 51.9 1.79995 51.1 1.19995L51.8 0.699951Z" fill="white"/>
<path d="M11 38.7C9.20005 37.7 6.60005 36.4999 4.70005 35.7999V44.7999H3.30005V29.2L5.10005 29.2999C5.10005 29.4999 4.90005 29.6 4.60005 29.7V35L4.90005 34.5999C7.00005 35.3999 9.80005 36.5999 11.7 37.5999L11 38.7Z" fill="white"/>
<path d="M17.8 34C18.3 35.1 18.9 36.8 19.2 37.9L18.2 38.2C18 37.2 17.4 35.5 16.9 34.4L17.8 34ZM28.5 34.1C28.5 34.3 28.3 34.3 28.1 34.3C26.7 39.6 24 42.8 19.7 44.5C19.6 44.3 19.2 43.9 19 43.7C23.3 42 25.8 39.1 27.1 33.7L28.5 34.1ZM22.2 33.1C22.6 34.3 22.9 36 23 37.2L21.9 37.4C21.8 36.2 21.4 34.6 21.1 33.3L22.2 33.1Z" fill="white"/>
<path d="M32.2 31.3H43.7L43.7999 31.2L45 32.1C44.9 32.2 44.9 32.2 44.7999 32.3C43.2999 39.1 40.2 42.6 34.7 44.7C34.5 44.4 34.1 43.9 33.9 43.6C39.1 41.7 42.1999 38.3 43.2999 32.5H32.2V31.3ZM45.9 28.1C47 28.1 47.9 29 47.9 30.1C47.9 31.2 47 32.1 45.9 32.1C44.8 32.1 43.9 31.2 43.9 30.1C43.9 29 44.9 28.1 45.9 28.1ZM47.2999 30.1C47.2999 29.3 46.7 28.7 45.9 28.7C45.1 28.7 44.5 29.3 44.5 30.1C44.5 30.9 45.1 31.5 45.9 31.5C46.7 31.5 47.2999 30.8 47.2999 30.1Z" fill="white"/>
<path d="M62.2 32.6C62.1 32.7 62 32.8 61.9 32.9C60 38.7 57.1 42.5 52.1 45C51.9 44.7 51.5 44.3 51.2 44C55.9 41.7 58.8 38.1 60.3 33.3H53.9C52.9 34.9 51.5 36.5 49.9 37.7C49.6 37.4 49.2 37.1 48.9 36.9C51.3 35 53.4 32.3 54.6 29.1L56.3 29.6C56.2 29.8 56 29.8 55.8 29.8C55.4 30.6 55.1 31.3 54.6 32.1H61L61.2 32L62.2 32.6Z" fill="white"/>
<path d="M79.7 35C79.7 35.1 79.6 35.1 79.5 35.2C78 40.6 75 43.3 69.6 44.8C69.4 44.5 69.1 44 68.8 43.8C73.7 42.6 76.7 40.1 77.9 35.9H66V34.7H78.5L78.7 34.6L79.7 35ZM78 31.2H67.7V30H78V31.2Z" fill="white"/>
<path d="M94.6 30.9999C94.6 31.0999 94.5 31.1999 94.4 31.1999C93.4 33.4999 92.3 35.4999 90.8 37.3999C92.8 38.9999 95.7 41.6999 97.4 43.4999L96.3 44.4999C94.7 42.6999 91.8 39.8999 90 38.3999C88.4 40.2999 85.7 42.9999 83.1 44.4999C82.9 44.1999 82.5 43.7999 82.2 43.4999C87.2 40.7999 91.1 35.5999 92.8 31.6999H84V30.4999H93.5L93.7 30.3999L94.6 30.9999Z" fill="white"/>
<path d="M108.9 31.8999C108.8 32.0999 108.7 32.1999 108.4 32.1999C107.8 37.7999 105.9 42.6999 102.9 42.6999C101.4 42.6999 100 41.1999 100 38.2999C100 33.9999 103.4 30.3999 108.1 30.3999C113.3 30.3999 115.6 33.6999 115.6 37.1999C115.6 41.4999 113.1 43.5999 108.8 44.5999C108.6 44.2999 108.3 43.7999 108 43.4999C112.1 42.6999 114.3 40.6999 114.3 37.2999C114.3 34.2999 112.4 31.5999 108.2 31.5999C108 31.5999 107.8 31.5999 107.7 31.5999L108.9 31.8999ZM107.1 31.6999C103.5 32.1999 101.2 35.1999 101.2 38.2999C101.2 40.1999 102 41.3999 102.9 41.3999C105.1 41.3999 106.7 36.5999 107.1 31.6999Z" fill="white"/>
<path d="M6.3 65.3L4.1 66.1V71.5C4.1 72.8 3.5 73 1.1 73C1 72.7 0.9 72.2 0.7 71.9C1.5 71.9 2.3 71.9 2.6 71.9C2.8 71.9 2.9 71.8 2.9 71.6V66.6C2.1 66.9 1.3 67.2 0.7 67.4C0.7 67.5 0.6 67.7 0.5 67.7L0 66.1C0.8 65.9 1.8 65.6 3 65.2V61H0.2V59.9H3V56.3L4.5 56.4C4.5 56.5 4.4 56.6 4.1 56.7V60H6.2V61H4.1V64.9L6.1 64.3L6.3 65.3ZM15.1 63.6L15.9 64C15.9 64.1 15.8 64.1 15.7 64.2C15 66.4 13.8 68.2 12.3 69.6C13.6 70.7 15.2 71.5 17 72C16.7 72.3 16.4 72.7 16.2 73C14.3 72.4 12.7 71.5 11.4 70.3C9.8 71.5 8 72.5 6 73C5.9 72.7 5.6 72.2 5.3 71.9C7.1 71.4 8.9 70.6 10.5 69.5C9.3 68.3 8.4 66.8 7.8 65L8.6 64.7H6.7V63.6H10.8V60.4H6.5V59.2H10.8V56.2L12.4 56.3C12.4 56.4 12.3 56.5 12 56.6V59.2H16.6V60.4H12V63.6H14.9H15.1ZM8.9 64.7C9.5 66.2 10.3 67.6 11.4 68.7C12.6 67.6 13.6 66.3 14.2 64.7H8.9Z" fill="white"/>
<path d="M24.7 56.8C24.6 56.9 24.5 57 24.3 56.9C23.5 58.1 22 59.8 20.7 60.9C20.5 60.6 20.2 60.3 20 60C21.2 59 22.6 57.5 23.3 56.2L24.7 56.8ZM22.3 65C21.8 65.8 21.3 66.5 20.7 67.1C20.6 66.8 20.2 66.3 20.1 66.1C21.4 64.7 22.8 62.4 23.7 60.2L25.1 60.7C25 60.8 24.9 60.9 24.7 60.9C24.3 61.7 23.9 62.5 23.5 63.3L23.9 63.4C23.9 63.5 23.8 63.6 23.5 63.6V73H22.4V65H22.3ZM26.9 64.1C26.9 64.2 26.8 64.3 26.6 64.3C26.4 66.7 26 69.2 25.2 70.7C25 70.5 24.6 70.3 24.4 70.2C25.1 68.8 25.4 66.3 25.6 63.9L26.9 64.1ZM31.9 61.5H29V72.7H27.9V61.5H25.1V60.4H27.9V56.5L29.4 56.6C29.4 56.7 29.3 56.8 29.1 56.9V60.4H32V61.5H31.9ZM30.5 56.8C31.2 57.5 31.8 58.5 32.1 59.2L31.2 59.7C30.9 59 30.2 58 29.6 57.2L30.5 56.8ZM31 69.5C30.9 68 30.5 65.8 30 64C30.7 63.9 30.8 63.8 30.9 63.8C31.4 65.5 31.8 67.8 31.9 69.2L31 69.5ZM36.9 62.4V63.5H35.2V71.5C35.2 72.9 34.6 73 32 73C32 72.7 31.8 72.2 31.6 71.8C32.2 71.8 32.7 71.8 33.1 71.8C34 71.8 34 71.8 34 71.5V63.5H31.8V62.4H36.9ZM36.6 57.3V58.4H32.3V57.3H36.6Z" fill="white"/>
<path d="M54.7 60.3C55 60.3 55 60.3 55.3 60.3L56 60.4C56 60.5 56 60.7 56 60.8C55.7 68.7 55.5 71.4 54.7 72.2C54.2 72.8 53.6 72.9 52.4 72.9C51.8 72.9 51 72.9 50.3 72.8C50.3 72.4 50.1 71.9 49.9 71.5C51.2 71.6 52.3 71.6 52.8 71.6C53.2 71.6 53.4 71.5 53.6 71.3C54.2 70.7 54.5 68.1 54.7 61.4H48.2C47.9 65.2 46.7 69.7 41.4 73C41.2 72.7 40.8 72.2 40.5 72C45.6 69 46.7 64.9 47 61.4H41V60.2H47C47 59.9 47 59.6 47 59.3V56.2L48.6 56.3C48.6 56.4 48.5 56.5 48.2 56.6V59.3C48.2 59.6 48.2 59.9 48.2 60.2H54.7V60.3Z" fill="white"/>
<path d="M69.6 59.5C69.5 59.7 69.4 59.8 69.1 59.8C68.5 65.4 66.6 70.3 63.6 70.3C62.1 70.3 60.7 68.8 60.7 65.9C60.7 61.6 64.1 58 68.8 58C74 58 76.3 61.3 76.3 64.8C76.3 69.1 73.8 71.2 69.5 72.2C69.3 71.9 69 71.4 68.7 71.1C72.8 70.3 75 68.3 75 64.9C75 61.9 73.1 59.2 68.9 59.2C68.7 59.2 68.5 59.2 68.4 59.2L69.6 59.5ZM67.8 59.3C64.2 59.8 61.9 62.8 61.9 65.9C61.9 67.8 62.7 69 63.6 69C65.8 69 67.4 64.2 67.8 59.3Z" fill="white"/>
<path d="M89.5 59.2999V60.2999H82.9V59.2999H89.5ZM89 66.7999V72.0999H84.9V72.9999H83.8V66.8999H89V66.7999ZM88.9 61.8999V62.8999H83.8V61.8999H88.9ZM83.8 65.2999V64.2999H88.9V65.2999H83.8ZM88.9 56.8999V57.8999H83.9V56.8999H88.9ZM87.9 67.8999H84.8V71.0999H87.9V67.8999ZM95.6 71.1999H99.7V72.3999H89.5V71.1999H91V61.8999L92.5 61.9999C92.5 62.0999 92.4 62.1999 92.2 62.1999V71.0999H94.5V58.3999H90.2V57.1999H99.5V58.3999H95.7V63.6999H99.4V64.8999H95.7V71.1999H95.6Z" fill="white"/>
<path d="M108.3 70.5C108.3 71.9 107.2 73 105.8 73C104.4 73 103.3 71.9 103.3 70.5C103.3 69.1 104.4 68 105.8 68C107.2 67.9 108.3 69.1 108.3 70.5ZM107.6 70.5C107.6 69.5 106.8 68.6 105.7 68.6C104.7 68.6 103.8 69.4 103.8 70.5C103.8 71.5 104.6 72.4 105.7 72.4C106.8 72.3 107.6 71.5 107.6 70.5Z" fill="white"/>
</svg>
