<svg width="359" height="48" viewBox="0 0 359 48" fill="none" xmlns="http://www.w3.org/2000/svg">
<path d="M6.7999 13.2C6.2999 12.4 5.6999 11.7 5.0999 11L5.9999 10.5C7.2999 12 8.7999 13.9 9.3999 15.2L8.3999 15.8C8.1999 15.3 7.7999 14.7 7.4999 14.1C5.2999 14.8 2.9999 15.5 1.5999 16C1.5999 16.1 1.4999 16.2 1.3999 16.3L0.899902 14.9C1.2999 14.8 1.6999 14.7 2.1999 14.6V1.6H8.6999V9.9H3.1999V14.3L6.7999 13.2ZM7.3999 2.7H3.1999V5.1H7.3999V2.7ZM3.1999 8.7H7.3999V6.2H3.1999V8.7ZM16.6999 1.5V12.6C16.6999 14.1 15.8999 14.2 13.3999 14.2C13.2999 13.9 13.0999 13.3 12.9999 12.9C13.5999 12.9 14.1999 12.9 14.5999 12.9C15.4999 12.9 15.5999 12.9 15.5999 12.5V2.6H11.4999V17.1H10.2999V1.5H16.6999Z" fill="white"/>
<path d="M30.0999 14H25.9999V17.2H24.7999V14H20.5999V12.9H24.7999V11.2H21.3999V4.8H29.4999V11.2H25.9999V12.9H30.0999V14ZM21.5999 0.9C22.1999 1.8 22.7999 3.1 22.9999 3.9L21.8999 4.3C21.6999 3.5 21.1999 2.2 20.5999 1.3L21.5999 0.9ZM22.3999 5.8V7.5H24.7999V5.8H22.3999ZM22.3999 8.5V10.3H24.7999V8.5H22.3999ZM25.0999 0.6C25.4999 1.6 25.8999 2.9 25.8999 3.7L24.7999 4C24.7999 3.2 24.3999 1.8 23.9999 0.8L25.0999 0.6ZM28.3999 7.6V5.9H25.8999V7.6H28.3999ZM28.3999 10.3V8.5H25.8999V10.3H28.3999ZM30.2999 1.2C30.1999 1.3 30.0999 1.4 29.8999 1.4C29.4999 2.3 28.6999 3.7 28.0999 4.6L27.0999 4.2C27.6999 3.3 28.3999 1.8 28.7999 0.7L30.2999 1.2ZM32.9999 6.8C33.1999 8.5 33.3999 10.1 33.6999 11.5C34.4999 10.3 35.1999 8.9 35.6999 7.5L37.0999 7.9C37.0999 8 36.8999 8.1 36.6999 8.1C35.9999 9.9 35.0999 11.5 33.9999 13C34.4999 14.9 35.1999 16.1 35.9999 16.1C36.4999 16.1 36.6999 15.1 36.7999 12.9C37.0999 13.2 37.3999 13.5 37.7999 13.6C37.5999 16.5 37.1999 17.3 35.9999 17.3C34.7999 17.3 33.8999 16.1 33.1999 14.1C32.1999 15.3 30.9999 16.3 29.6999 17.1C29.4999 16.9 29.1999 16.5 28.8999 16.2C30.3999 15.4 31.6999 14.2 32.7999 12.8C32.3999 11.1 32.0999 9.1 31.8999 6.9L29.8999 7.2L29.6999 6L31.7999 5.7C31.6999 4 31.5999 2.2 31.5999 0.5L33.1999 0.6C33.1999 0.7 33.0999 0.8 32.7999 0.9C32.7999 2.5 32.8999 4.1 32.9999 5.7L37.3999 5.2L37.4999 6.3L32.9999 6.8ZM34.7999 0.8C35.6999 1.7 36.6999 3 37.0999 3.8L36.0999 4.4C35.6999 3.5 34.7999 2.2 33.8999 1.3L34.7999 0.8Z" fill="white"/>
<path d="M54.9 4.5C55.2 4.5 55.2 4.5 55.5 4.5L56.2 4.6C56.2 4.7 56.2 4.9 56.2 5C55.9 12.9 55.7 15.6 54.9 16.4C54.4 17 53.7999 17.1 52.5999 17.1C51.9999 17.1 51.2 17.1 50.5 17C50.5 16.6 50.2999 16.1 50.0999 15.7C51.3999 15.8 52.5 15.8 53 15.8C53.4 15.8 53.5999 15.7 53.7999 15.5C54.4 14.9 54.7 12.3 54.9 5.6H48.4C48.1 9.4 46.8999 13.9 41.5999 17.2C41.3999 16.9 41 16.4 40.7 16.2C45.8 13.2 46.9 9.1 47.2 5.6H41.2V4.4H47.2C47.2 4.1 47.2 3.8 47.2 3.5V0.5L48.7999 0.6C48.7999 0.7 48.7 0.8 48.4 0.9V3.6C48.4 3.9 48.4 4.2 48.4 4.5H54.9Z" fill="white"/>
<path d="M72.7998 6.90001H72.6998C72.5998 6.90001 72.3998 6.90001 72.2998 6.80001C66.9998 8.40001 62.0998 10.7 62.0998 13.1C62.0998 14.8 63.9998 15.4 66.8998 15.4C69.7998 15.4 71.9998 15.2 73.2998 15L73.3998 16.3C71.6998 16.5 69.0998 16.6 66.9998 16.6C63.3998 16.6 60.7998 15.8 60.7998 13.1C60.7998 11.2 62.6998 9.50001 65.4998 8.00001C64.8998 6.90001 64.6998 4.80001 64.6998 0.700012L66.6998 0.900012C66.6998 1.10001 66.4998 1.30001 66.0998 1.30001C66.0998 4.50001 66.1998 6.40001 66.6998 7.40001C68.3998 6.60001 70.2998 5.90001 72.2998 5.20001L72.7998 6.90001Z" fill="white"/>
<path d="M84.0999 1.00005C83.9999 1.10005 83.8999 1.30005 83.4999 1.30005C83.3999 2.10005 83.1999 3.00005 83.0999 3.70005C84.8999 3.60005 86.7999 3.30005 88.3999 2.80005L88.5999 4.00005C86.8999 4.40005 84.8999 4.70005 82.8999 4.90005C81.9999 8.40005 80.7999 11.2 79.0999 13.8L77.8999 13.3C79.4999 10.9 80.7999 8.20005 81.5999 5.00005H77.9999V3.80005H79.9999C80.5999 3.80005 81.0999 3.80005 81.6999 3.80005C81.8999 2.80005 82.0999 1.80005 82.1999 0.800049L84.0999 1.00005ZM88.8999 8.70005C88.8999 10.2 88.9999 11.1 89.0999 12.4C90.2999 12.9 91.6999 13.6 92.8999 14.5L92.2999 15.7C91.2999 14.9 90.0999 14.2 89.0999 13.8C89.0999 15.6 88.3999 17 85.6999 17C83.6999 17 82.1999 16.1 82.1999 14.4C82.1999 12.6 84.0999 11.7 85.6999 11.7C86.2999 11.7 86.9999 11.8 87.6999 12C87.5999 10.8 87.4999 9.70005 87.4999 8.80005L88.8999 8.70005ZM87.8999 13.2C87.1999 12.9 86.3999 12.8 85.7999 12.8C84.6999 12.8 83.3999 13.2 83.3999 14.3C83.3999 15.3 84.3999 15.8 85.7999 15.8C87.0999 15.8 87.8999 15.2 87.8999 14C87.8999 13.7 87.8999 13.5 87.8999 13.2ZM92.7999 6.90005C90.7999 6.90005 88.2999 7.20005 86.3999 7.80005L86.1999 6.70005C88.2999 6.10005 90.6999 5.70005 92.6999 5.70005L92.7999 6.90005Z" fill="white"/>
<path d="M102 8.40001C103.2 7.80001 105 7.40001 106.5 7.40001C109.4 7.40001 111.2 9.10001 111.2 11.7C111.2 15 108.3 16.8 104.7 16.8C102.4 16.8 100.8 15.9 100.8 14.3C100.8 13 102.1 11.9 103.8 11.9C105.8 11.9 107.2 13.5 107.5 15.2C108.9 14.7 110 13.5 110 11.8C110 9.90001 108.6 8.60001 106.3 8.60001C103.6 8.60001 101 9.80001 99.8 11C99.3 11.5 98.6 12.3 98.1 12.8L97.2 11.9C98.8 10.2 104 5.30001 106.4 3.00001C105.4 3.10001 101.8 3.30001 99.7 3.40001C99.6 3.50001 99.5 3.60001 99.3 3.70001L99.2 2.20001C101.6 2.20001 106.3 2.00001 107.6 1.80001L107.9 1.70001L108.9 2.90001C108.8 3.00001 108.6 3.00001 108.5 3.10001C106.8 3.80001 103.4 7.10001 102 8.40001ZM104.5 15.6C105 15.6 105.7 15.5 106.1 15.4C105.9 14 104.9 12.8 103.5 12.8C102.6 12.8 101.7 13.3 101.7 14.1C101.8 15.3 103.3 15.6 104.5 15.6Z" fill="white"/>
<path d="M123.8 2.3H131.2V3.4H115.3V2.3H122.6V0.5L124.2 0.6C124.2 0.7 124.1 0.8 123.8 0.9V2.3ZM130.5 9.4V15.8C130.5 16.5 130.3 16.9 129.8 17.1C129.2 17.3 128.3 17.3 126.7 17.3C126.6 17 126.5 16.5 126.3 16.1C127 16.1 127.7 16.1 128.2 16.1C129.2 16.1 129.3 16.1 129.3 15.7V10.4H117.4V17.2H116.2V9.3H130.5V9.4ZM118.4 4.4H128.2V8.1H118.4V4.4ZM127 7.2V5.3H119.6V7.2H127ZM126.8 15.5H120.9V16.5H119.8V11.7H126.8V15.5ZM125.7 12.6H120.9V14.6H125.7V12.6Z" fill="white"/>
<path d="M151.3 3.5H137.3V7.7C137.3 10.5 137.1 14.6 135.5 17.4C135.3 17.2 134.8 16.8 134.5 16.7C136 14.1 136.1 10.4 136.1 7.7V2.4H142.9V0.5L144.5 0.6C144.5 0.7 144.4 0.8 144.1 0.9V2.4H151.2V3.5H151.3ZM148.9 10.9L149.7 11.3C149.7 11.4 149.6 11.4 149.5 11.5C148.7 13 147.4 14.1 145.8 15C147.5 15.6 149.4 16 151.4 16.2C151.1 16.5 150.8 16.9 150.7 17.3C148.4 17 146.3 16.5 144.5 15.6C142.6 16.4 140.3 17 138 17.2C137.9 16.9 137.7 16.4 137.5 16.2C139.5 16 141.6 15.6 143.4 14.9C142.2 14.2 141.1 13.3 140.4 12.2L141.2 11.9H138.3V10.9H148.7H148.9ZM147.9 9.6H141V6.6H138.1V5.6H141V4L142.5 4.1C142.5 4.2 142.4 4.3 142.1 4.3V5.6H146.7V4L148.2 4.1C148.2 4.2 148.1 4.3 147.8 4.3V5.6H151.1V6.6H147.8V9.6H147.9ZM141.5 11.9C142.2 12.9 143.3 13.7 144.6 14.4C145.9 13.8 147 12.9 147.8 11.9H141.5ZM146.8 6.6H142.2V8.6H146.8V6.6Z" fill="white"/>
<path d="M161.5 1.00005C161.4 1.10005 161.3 1.30005 160.9 1.30005C160.8 2.10005 160.6 3.00005 160.5 3.70005C162.3 3.60005 164.2 3.30005 165.8 2.80005L166 4.00005C164.3 4.40005 162.3 4.70005 160.3 4.90005C159.4 8.40005 158.2 11.2 156.5 13.8L155.3 13.3C156.9 10.9 158.2 8.20005 159 5.00005H155.4V3.80005H157.5C158.1 3.80005 158.6 3.80005 159.2 3.80005C159.4 2.80005 159.6 1.80005 159.7 0.800049L161.5 1.00005ZM166.3 8.70005C166.3 10.2 166.4 11.1 166.5 12.4C167.7 12.9 169.1 13.6 170.3 14.5L169.7 15.7C168.7 14.9 167.5 14.2 166.5 13.8C166.5 15.6 165.8 17 163.1 17C161.1 17 159.6 16.1 159.6 14.4C159.6 12.6 161.5 11.7 163.1 11.7C163.7 11.7 164.4 11.8 165.1 12C165 10.8 164.9 9.70005 164.9 8.80005L166.3 8.70005ZM165.3 13.2C164.6 12.9 163.8 12.8 163.2 12.8C162.1 12.8 160.8 13.2 160.8 14.3C160.8 15.3 161.8 15.8 163.2 15.8C164.5 15.8 165.3 15.2 165.3 14C165.3 13.7 165.3 13.5 165.3 13.2ZM170.2 6.90005C168.2 6.90005 165.7 7.20005 163.8 7.80005L163.6 6.70005C165.7 6.10005 168.1 5.70005 170.1 5.70005L170.2 6.90005Z" fill="white"/>
<path d="M180.5 9.60003L178.3 10.4V15.8C178.3 17.1 177.7 17.3 175.3 17.3C175.2 17 175.1 16.5 174.9 16.2C175.7 16.2 176.5 16.2 176.8 16.2C177 16.2 177.1 16.1 177.1 15.9V10.9C176.3 11.2 175.5 11.5 174.9 11.7C174.9 11.8 174.8 12 174.7 12L174.2 10.6C175 10.4 176 10.1 177.2 9.70003V5.50002H174.5V4.40002H177.2V0.500025L178.7 0.600025C178.7 0.700025 178.6 0.800024 178.3 0.900024V4.20002H180.4V5.30002H178.3V9.20003L180.3 8.60003L180.5 9.60003ZM189.3 7.80002L190.1 8.20003C190.1 8.30003 190 8.30002 189.9 8.40002C189.2 10.6 188 12.4 186.5 13.8C187.8 14.9 189.4 15.7 191.2 16.2C190.9 16.5 190.6 16.9 190.4 17.2C188.5 16.6 186.9 15.7 185.6 14.5C184 15.7 182.2 16.6 180.2 17.2C180.1 16.9 179.8 16.4 179.5 16.1C181.3 15.6 183.1 14.8 184.7 13.7C183.5 12.5 182.6 11 182 9.20003L182.8 8.90002H181V7.80002H185.1V4.60003H180.8V3.40002H185.1V0.400024L186.7 0.500025C186.7 0.600025 186.6 0.700025 186.3 0.800025V3.40002H190.9V4.60003H186.3V7.80002H189.2H189.3ZM183.1 9.00002C183.7 10.5 184.5 11.9 185.6 13C186.8 11.9 187.8 10.6 188.4 9.00002H183.1Z" fill="white"/>
<path d="M198.7 1.00002C198.6 1.10002 198.5 1.20003 198.3 1.10003C197.5 2.30003 196 4.00003 194.7 5.10003C194.5 4.80002 194.2 4.50002 194 4.20002C195.2 3.20002 196.6 1.70002 197.3 0.400024L198.7 1.00002ZM196.3 9.20003C195.8 10 195.3 10.7 194.7 11.3C194.6 11 194.2 10.5 194.1 10.3C195.4 8.90002 196.8 6.60002 197.7 4.40002L199 4.90002C198.9 5.00002 198.8 5.10003 198.6 5.10003C198.2 5.90003 197.8 6.70002 197.4 7.50002L197.8 7.60003C197.8 7.70003 197.7 7.80002 197.4 7.80002V17.2H196.3V9.20003ZM200.9 8.40002C200.9 8.50002 200.8 8.60003 200.6 8.60003C200.4 11 200 13.5 199.2 15C199 14.8 198.6 14.6 198.4 14.5C199.1 13.1 199.4 10.6 199.6 8.20003L200.9 8.40002ZM205.9 5.70002H203V17H201.9V5.70002H199V4.60003H201.8V0.800025L203.3 0.900024C203.3 1.00002 203.2 1.10002 203 1.20002V4.70002H205.9V5.70002ZM204.4 1.00002C205.1 1.70002 205.7 2.70002 206 3.40002L205.1 3.90002C204.8 3.20002 204.1 2.20002 203.5 1.40002L204.4 1.00002ZM205 13.8C204.9 12.3 204.5 10.1 204 8.30002C204.7 8.20002 204.8 8.10003 204.9 8.10003C205.4 9.80002 205.8 12.1 205.9 13.5L205 13.8ZM210.8 6.60003V7.70002H209.1V15.7C209.1 17.1 208.5 17.2 205.9 17.2C205.9 16.9 205.7 16.4 205.5 16C206.1 16 206.6 16 207 16C207.9 16 207.9 16 207.9 15.7V7.70002H205.7V6.60003H210.8ZM210.5 1.60003V2.70002H206.2V1.60003H210.5Z" fill="white"/>
<path d="M226.6 6.90001H226.5C226.4 6.90001 226.2 6.90001 226.1 6.80001C220.8 8.40001 215.9 10.7 215.9 13.1C215.9 14.8 217.8 15.4 220.7 15.4C223.6 15.4 225.8 15.2 227.1 15L227.2 16.3C225.5 16.5 222.9 16.6 220.8 16.6C217.2 16.6 214.6 15.8 214.6 13.1C214.6 11.2 216.5 9.50001 219.3 8.00001C218.7 6.90001 218.5 4.80001 218.5 0.700012L220.5 0.900012C220.5 1.10001 220.3 1.30001 219.9 1.30001C219.9 4.50001 220 6.40001 220.5 7.40001C222.2 6.60001 224.1 5.90001 226.1 5.20001L226.6 6.90001Z" fill="white"/>
<path d="M232.9 17.3V7.00004C232.3 8.10004 231.7 9.10004 231 9.90004C230.9 9.60004 230.6 9.00004 230.4 8.70004C231.9 6.80004 233.4 3.70004 234.4 0.600037L235.8 1.10004C235.7 1.20004 235.6 1.30004 235.4 1.30004C235 2.50004 234.5 3.70004 234 4.90004L234.4 5.00004C234.4 5.10004 234.3 5.20004 234.1 5.20004V17.3H232.9ZM236.3 1.60004H247V17H245.8V16.1H237.3V17.1H236.2V1.60004H236.3ZM237.5 15.1H246V2.70004H237.5V15.1ZM245.1 6.40004H242.2V8.60004H244.4V13.5H239.1V8.60004H241.2V6.40004H238.3V5.40004H241.2V3.30004L242.5 3.40004C242.5 3.50004 242.4 3.60004 242.2 3.60004V5.40004H245.1V6.40004ZM243.3 12.6V9.60004H240V12.6H243.3Z" fill="white"/>
<path d="M252.5 4.2C252.5 5.8 252.2 7.8 251.5 8.9L250.5 8.4C251.1 7.4 251.4 5.5 251.4 4L252.5 4.2ZM253.3 0.5L254.8 0.6C254.8 0.7 254.7 0.8 254.4 0.8V17.2H253.2V0.5H253.3ZM255.6 3.3C256.2 4.2 256.8 5.3 257.1 6.1L256.2 6.7C255.9 5.9 255.3 4.7 254.7 3.8L255.6 3.3ZM262.5 15.4H267.3V16.6H256.1V15.4H261.3V11H257.5V9.9H261.3V5.9H258.5C258.1 7 257.7 8 257.3 8.8C257.1 8.6 256.6 8.4 256.3 8.2C257.3 6.6 258 3.9 258.4 1.3L259.9 1.6C259.9 1.7 259.7 1.8 259.5 1.8C259.3 2.8 259.1 3.7 258.8 4.7H261.3V0.5L262.9 0.6C262.9 0.7 262.8 0.8 262.5 0.9V4.8H266.8V6H262.5V10H266.2V11H262.5V15.4Z" fill="white"/>
<path d="M286 8.20004H285.9C285.8 8.20004 285.7 8.10004 285.6 8.10004C284.2 8.60004 282.2 9.30004 280.7 9.90004C280.7 10.3 280.8 10.8 280.8 11.3C280.8 11.9 280.8 12.5 280.7 13.2L279.4 13.3C279.5 12.7 279.5 11.8 279.5 11.1C279.5 10.8 279.5 10.6 279.5 10.4C277.5 11.4 275.8 12.6 275.8 13.7C275.8 14.7 277 15.2 279.5 15.2C281.2 15.2 282.9 15.2 284 15V16.2C282.9 16.3 281.3 16.3 279.5 16.3C276 16.3 274.5 15.5 274.5 13.6C274.5 12 276.6 10.5 279.3 9.10004C279.2 8.00004 278.7 7.40004 278 7.40004C276.7 7.40004 275.3 8.10004 273.7 9.90004C273.2 10.5 272.5 11.2 271.7 11.9L270.8 11C272.6 9.40004 274.3 7.90004 275.3 4.40004H274.3H271.3V3.20004C272.4 3.20004 273.7 3.20004 274.4 3.20004H275.6C275.8 2.40004 276 1.60004 276.1 0.600037L277.9 0.800036C277.9 1.00004 277.7 1.10004 277.4 1.10004C277.3 1.80004 277.1 2.50004 276.9 3.10004C278.1 3.10004 280.8 2.80004 283.1 2.10004L283.3 3.30004C281 4.00004 278.3 4.30004 276.5 4.30004C276.1 5.70004 275.6 6.70004 275.2 7.30004C276 6.60004 277.2 6.10004 278.1 6.10004C279.3 6.10004 280.1 7.00004 280.3 8.40004C281.8 7.70004 283.7 7.00004 285.2 6.40004L286 8.20004Z" fill="white"/>
<path d="M292 3.3V7.6C292 10.4 291.8 14.5 290.4 17.3C290.2 17.1 289.7 16.7 289.4 16.6C290.8 14 290.9 10.3 290.9 7.6V2.2H297.8V0.5L299.4 0.6C299.4 0.7 299.3 0.8 299 0.9V2.2H306V3.3H292ZM292.6 10.8V9.8H306V10.8H298.2C297.8 11.4 297.4 11.9 296.8 12.5H304.8V17.2H303.6V16.6H296.5V17.2H295.4V13.7C294.5 14.4 293.4 15.1 292.4 15.6C292.2 15.3 291.9 14.9 291.7 14.7C293.7 13.8 295.7 12.3 296.8 10.7H292.6V10.8ZM299.1 5.8H296.5V6C297 6.3 298.6 7.3 299 7.5L298.4 8.3C298.1 8 297.2 7.3 296.5 6.9V9.2H295.5V6.7C294.7 7.6 293.8 8.5 292.9 9C292.8 8.8 292.4 8.4 292.2 8.3C293.2 7.8 294.3 6.9 295.1 5.9H292.7V5H295.5V3.6L296.8 3.7C296.8 3.8 296.7 3.9 296.5 3.9V4.9H299.1V5.8ZM303.8 15.7V13.4H296.7V15.7H303.8ZM306 5.8H303.5C304.2 6.7 305.4 7.6 306.3 8.1C306.1 8.3 305.8 8.6 305.6 8.9C304.8 8.4 303.8 7.5 303.1 6.7V9.4H302.1V6.8C301.3 7.7 300.4 8.6 299.5 9.1C299.3 8.9 299 8.5 298.8 8.4C299.8 7.9 300.9 7 301.7 6H299.6V5.1H302.1V3.7L303.5 3.8C303.5 3.9 303.4 4 303.2 4V5H306.1V5.8H306Z" fill="white"/>
<path d="M324.4 7C322.8 7.6 320.8 7.9 319 8.1C319.6 9.1 320.7 10.4 322 10.9L321.3 11.9C321 11.8 320.6 11.6 320.3 11.4C319.9 11.3 319 11.1 318.2 11.1C317.9 11.1 317.7 11.1 317.5 11.1L317.2 10.1C317.8 10.1 318.7 10.1 319.2 10.2C318.7 9.7 318.1 8.9 317.8 8.2C316.6 8.3 315.3 8.4 313 8.4C312.1 8.4 311.1 8.4 310.3 8.4V7.3C311.1 7.3 312.2 7.3 313.1 7.3C314.6 7.3 316 7.3 317.5 7.2C317.3 6.6 317 5.6 316.8 4.8C316.1 4.9 315.3 4.9 314.5 4.9C313.5 4.9 312.3 4.9 311.4 4.9V3.8C312.5 3.9 313.7 3.9 314.4 3.9C315 3.9 315.8 3.9 316.5 3.8C316.3 3 316.2 2 316 1H317.9C317.9 1.2 317.7 1.3 317.4 1.4C317.5 2.2 317.6 3 317.8 3.7C319.5 3.5 321.3 3.2 322.6 2.7L322.9 3.8C321.6 4.3 319.8 4.6 318 4.8C318.2 5.8 318.5 6.6 318.7 7.2C320.6 7 322.7 6.6 324.3 6L324.4 7ZM321.3 16.5C320.3 16.6 319.1 16.6 317.3 16.6C314.4 16.6 312.1 15.6 312.2 13.6C312.2 12.5 313.2 11.4 314.3 10.8L315.1 11.6C314.1 12.2 313.4 12.9 313.4 13.6C313.4 14.9 315 15.4 317.3 15.5C318.7 15.5 320.1 15.4 321.3 15.3V16.5Z" fill="white"/>
<path d="M328.6 12.3C329.9 13.4 331.7 15.1 332.7 16.3L331.6 17.3C330.7 16.1 328.9 14.3001 327.7 13.2001L328.6 12.3Z" fill="white"/>
<path d="M17.3 41.8V42.9H13.1V45.9C13.1 46.6 12.9 46.9 12.4 47.1C11.8 47.3 10.9 47.3 9.2 47.3C9.1 47 9 46.5 8.8 46.2C9.5 46.2 10.2 46.2 10.7 46.2C11.7 46.2 11.9 46.2 11.9 45.8V42.8H1V41.7H12V40.2H3V34.3H8.6V33H1.4V32H8.5V30.5L10 30.6C10 30.7 9.9 30.8 9.7 30.9V32H17V33H9.7V34.3H15.5V40.2H12.3L13.5 40.3C13.5 40.4 13.4 40.5 13.2 40.6V41.8H17.3ZM6.7 46.4C6.1 45.6 4.9 44.5 3.8 43.8L4.7 43.1C5.8 43.8 7 44.8 7.7 45.6L6.7 46.4ZM4.1 35.3V36.9H8.5V35.3H4.1ZM4.1 37.8V39.4H8.5V37.8H4.1ZM14.3 35.3H9.7V36.9H14.3V35.3ZM14.3 39.4V37.8H9.7V39.4H14.3Z" fill="white"/>
<path d="M28 31.4V38H22.7V47.2H21.5V31.4H28ZM26.9 32.4H22.8V34.1H26.9V32.4ZM22.8 37H26.9V35.1H22.8V37ZM36.5 31.4V45.5C36.5 47.1 35.9 47.2 32.4 47.2C32.3 46.9 32.1 46.3 32 45.9C32.8 45.9 33.5 45.9 34.1 45.9C35.3 45.9 35.4 45.9 35.4 45.4V38H29.9V31.4H36.5ZM35.3 32.4H31V34.1H35.3V32.4ZM31 37H35.3V35.1H31V37Z" fill="white"/>
<path d="M45.9999 39.8L44.1999 40.4V45.8C44.1999 47.2 43.4999 47.3 41.0999 47.3C41.0999 47 40.8999 46.5 40.6999 46.1C41.0999 46.1 41.4999 46.1 41.7999 46.1C43.0999 46.1 43.0999 46.1 43.0999 45.7V40.7L40.9999 41.3C40.9999 41.4 40.8999 41.5 40.7999 41.6L40.3999 40.2C41.0999 40 42.0999 39.8 43.0999 39.5V35.4H40.4999V34.3H43.0999V30.5L44.5999 30.6C44.5999 30.7 44.4999 30.8 44.1999 30.9V34.3H46.3999V35.4H44.1999V39.1L45.7999 38.6L45.9999 39.8ZM54.9999 39.4L55.7999 39.7C55.7999 39.8 55.6999 39.8 55.5999 39.9C54.8999 41.8 53.7999 43.2 52.3999 44.4C53.7999 45.3 55.3999 45.9 57.2999 46.3C56.9999 46.6 56.6999 47 56.5999 47.3C54.5999 46.9 52.7999 46.1 51.3999 45.1C49.7999 46.1 47.9999 46.8 45.9999 47.2C45.8999 46.9 45.5999 46.4 45.3999 46.1C47.1999 45.8 48.8999 45.2 50.3999 44.3C49.2999 43.3 48.4999 42.1 47.7999 40.8L48.6999 40.5H46.8999V39.5H54.6999L54.9999 39.4ZM53.3999 35.8C53.9999 35 54.8999 33.6 55.2999 32.6L56.5999 33.1C56.4999 33.2 56.3999 33.3 56.1999 33.3C55.6999 34.1 54.9999 35.3 54.2999 36.1H56.7999V39.2H55.6999V37.1H47.0999V39.1H45.9999V36H53.9999L53.3999 35.8ZM56.2999 31.5C56.1999 31.5 56.1999 31.6 56.0999 31.6H55.9999C53.7999 32.2 49.7999 32.7 46.4999 33C46.4999 32.7 46.2999 32.3 46.1999 32C49.3999 31.7 53.3999 31.3 55.3999 30.6L56.2999 31.5ZM48.0999 36C47.9999 35.3 47.4999 34.3 46.9999 33.5L47.9999 33.2C48.4999 33.9 48.9999 34.9 49.0999 35.6L48.0999 36ZM48.9999 40.5C49.5999 41.7 50.3999 42.8 51.4999 43.7C52.6999 42.9 53.5999 41.8 54.1999 40.5H48.9999ZM50.9999 35.7C50.8999 35 50.5999 33.9 50.2999 33.1L51.2999 32.9C51.6999 33.7 51.9999 34.8 52.0999 35.5L50.9999 35.7Z" fill="white"/>
<path d="M76.5998 42.8H70.3998C72.0998 44.2 74.6998 45.3 77.0998 45.9C76.7998 46.2 76.4998 46.6 76.2998 47C73.7998 46.3 70.9998 44.9 69.2998 43.1V47.2H68.0998V43.2C66.2998 44.8 63.5998 46.2 61.0998 46.9C60.8998 46.6 60.5998 46.1 60.2998 45.9C62.5998 45.4 65.1998 44.2 66.8998 42.9H60.7998V41.9H68.0998V40.4H62.4998V39.4H68.0998V38H61.5998V37H65.6998C65.4998 36.4 65.0998 35.7 64.7998 35.1L65.4998 35H60.8998V33.9H63.8998C63.5998 33.1 62.9998 32 62.3998 31.2L63.3998 30.8C63.9998 31.6 64.6998 32.8 64.9998 33.5L63.9998 33.9H66.3998V30.6L67.8998 30.7C67.8998 30.9 67.6998 31 67.4998 31V33.9H69.7998V30.6L71.3998 30.7C71.3998 30.9 71.1998 31 70.9998 31V33.9H73.2998C73.0998 33.8 72.7998 33.7 72.5998 33.6C73.0998 32.8 73.7998 31.6 74.0998 30.8L75.4998 31.3C75.4998 31.4 75.2998 31.5 75.0998 31.5C74.6998 32.2 74.0998 33.2 73.5998 33.9H76.5998V35H72.4998L72.9998 35.2C72.8998 35.3 72.7998 35.4 72.5998 35.4C72.2998 35.9 71.9998 36.6 71.5998 37.1H75.8998V38.1H69.1998V39.5H74.9998V40.5H69.1998V42H76.5998V42.8ZM70.3998 36.8C70.6998 36.3 71.0998 35.5 71.3998 34.9H65.7998C66.1998 35.5 66.5998 36.3 66.7998 36.8L66.1998 36.9H70.5998L70.3998 36.8Z" fill="white"/>
<path d="M80.2998 32.9C81.6998 32.8 92.6998 32.1 95.0998 32V33.4C94.8998 33.4 94.5998 33.4 94.3998 33.4C93.3998 33.4 92.4998 33.6 91.2998 34.3C88.6998 36 85.9998 38.9 85.9998 41.2C85.9998 43.7 87.7998 45.2 92.1998 45.8L91.6998 47C86.5998 46.3 84.6998 44.4 84.6998 41.1C84.6998 38.6 87.1998 35.5 90.4998 33.4C88.4998 33.5 83.1998 33.9 80.8998 34.2C80.7998 34.3 80.5998 34.5 80.4998 34.5L80.2998 32.9ZM91.9998 36.5C92.8998 37.1 93.8998 38.2 94.3998 39L93.6998 39.6C93.1998 38.8 92.0998 37.7 91.2998 37.1L91.9998 36.5ZM93.8998 34.9C94.7998 35.5 95.7998 36.6 96.2998 37.4L95.5998 37.9C95.0998 37.2 94.0998 36.1 93.1998 35.4L93.8998 34.9Z" fill="white"/>
<path d="M115.9 42.5H108.9C110.1 44.7 112.5 45.8 116.1 46.1C115.8 46.4 115.5 46.9 115.4 47.2C111.5 46.7 109 45.3 107.7 42.5H107.5C106.6 44.9 104.7 46.4 99.8 47.2C99.7 46.9 99.4 46.4 99.2 46.1C103.4 45.5 105.2 44.3 106.2 42.5H99.5V41.4H106.6C106.8 40.9 106.9 40.3 106.9 39.6H99.5V38.5H107V36.9H101.3V35.8H107V34.2H100.4V33.1H104.3C104 32.4 103.4 31.5 102.8 30.9L103.8 30.5C104.5 31.2 105.2 32.2 105.4 32.8L104.8 33.1H110.1C109.9 33 109.7 32.9 109.6 32.9C110.2 32.3 110.9 31.2 111.3 30.5L112.7 31.1C112.6 31.2 112.5 31.2 112.3 31.2C111.9 31.8 111.3 32.5 110.7 33.1H114.9V34.2H108.1V35.8H113.9V36.9H108.1V38.5H115.6V39.6H108.4C108.4 39.7 108.2 39.8 108 39.8C107.9 40.4 107.8 40.9 107.7 41.4H115.7V42.5H115.9Z" fill="white"/>
<path d="M122.4 41.9C121.6 42.4 120.7 42.9 119.8 43.4C119.6 43.1 119.3 42.7 119.1 42.4C122.2 41 125.3 38.5 126.8 36.4L128.6 36.5C128.6 36.6 128.4 36.7 128.2 36.7C129.9 38.8 133.2 41 135.9 42.2C135.6 42.5 135.3 42.9 135.1 43.3C134.2 42.9 133.3 42.4 132.4 41.8V47.2H131.2V46.6H123.5V47.2H122.3V41.9H122.4ZM121.1 33.4V35.5H119.9V32.3H126.8V30.5L128.4 30.6C128.4 30.7 128.3 30.8 128 30.8V32.3H135V35.5H133.8V33.4H121.1ZM125.8 35C125.7 35.1 125.6 35.2 125.4 35.2C124.2 36.6 122.4 38 120.8 38.9C120.6 38.7 120.2 38.2 120 38C121.6 37.2 123.3 35.8 124.4 34.5L125.8 35ZM131.6 41.2C130 40.1 128.4 38.8 127.4 37.6C126.5 38.8 125.1 40 123.5 41.2H131.6ZM123.6 45.5H131.3V42.2H123.6V45.5ZM133.9 38.8C132.9 37.7 130.8 36.2 129.1 35.1L129.9 34.4C131.6 35.4 133.7 36.9 134.8 38L133.9 38.8Z" fill="white"/>
<path d="M140.7 38.2V40H145.2V45.4H140.7V46.6H139.6V33.3H141.1C141.4 32.5 141.8 31.4 141.9 30.5L143.4 30.8C143.4 30.9 143.2 31 143 31C142.8 31.6 142.5 32.5 142.1 33.2H144.9V38.2H140.7ZM143.9 34.3H140.6V37.2H143.9V34.3ZM144.1 41.1H140.7V44.4H144.1V41.1ZM155.6 32.6H151.2V35.4H154.9V43.3C154.9 44.6 154.3 44.6 152.4 44.6C152.3 44.3 152.2 43.8 152 43.5C152.4 43.5 152.7 43.5 153 43.5C153.7 43.5 153.8 43.5 153.8 43.2V36.5H151.2V47.2H150V36.6H147.6V44.8H146.5V35.5H150V32.7H145.7V31.6H155.6V32.6Z" fill="white"/>
<path d="M159.5 31.4H174.6V47.3H173.4V46.4H160.7V47.3H159.5V31.4ZM160.7 45.3H173.4V32.5H160.7V45.3ZM167.5 42.4H172.2V43.5H162V42.4H166.3V39.1H162.8V38.1H166.3V35.3H162.2V34.3H171.7V35.3H167.4V38.1H171.2V39.1H167.4V42.4H167.5ZM170.6 42.1C170.2 41.5 169.4 40.6 168.7 40L169.5 39.6C170.2 40.2 171 41.1 171.4 41.6L170.6 42.1Z" fill="white"/>
<path d="M188.1 36.7C188.5 37.9 189 39 189.6 40C190.8 39.3 192.2 38.3 193.1 37.5L194.2 38.5C194.1 38.6 194 38.6 193.8 38.6C192.9 39.3 191.4 40.3 190.2 41C191.5 42.8 193.2 44.2 195.3 44.8C195 45 194.7 45.5 194.5 45.8C190.8 44.4 188.4 41.1 187.2 37C186.6 37.4 185.9 37.9 185.2 38.2C187.7 40 188.7 42.3 188.7 44.1C188.7 46 187.5 47.2 185.6 47.2C185.1 47.2 184.6 47.2 184 47.1C184 46.8 183.9 46.3 183.7 46C184.4 46.1 185 46.1 185.4 46.1C185.9 46.1 186.4 46.1 186.7 45.8C187.2 45.5 187.5 44.8 187.5 44C187.5 43.5 187.4 42.9 187.2 42.3C185.2 44 182.1 45.7 179.5 46.6C179.4 46.3 179.1 45.8 178.9 45.6C181.6 44.9 184.9 43.1 186.8 41.4C186.6 41 186.3 40.6 186 40.3C184.5 41.5 182 42.7 180.1 43.4C180 43.1 179.7 42.7 179.5 42.4C181.4 41.8 183.9 40.7 185.4 39.6C185.1 39.3 184.8 39 184.4 38.8C183 39.4 181.6 40 180.2 40.3C180.1 40.1 179.8 39.6 179.6 39.4C181.8 38.8 184.3 37.9 186.1 36.7H181.8V35.6H192.1V36.7H188.1ZM180.5 33.7V36.1H179.3V32.6H186.2V30.5L187.8 30.6C187.8 30.7 187.7 30.8 187.4 30.8V32.6H194.4V36.1H193.2V33.7H180.5Z" fill="white"/>
<path d="M198.4 35.8C199.7 35.5 201.6 34.9 203.5 34.4L203.6 35.4C201.9 35.9 200.2 36.5 199.1 36.8C199.1 36.9 199 37 198.9 37.1L198.4 35.8ZM205.2 45.2C205.1 45.3 205 45.3 204.8 45.3C203.4 46 201.2 46.8 199.4 47.2C199.2 47 198.8 46.5 198.6 46.3C200.4 45.9 202.6 45.2 203.9 44.5L205.2 45.2ZM199.9 30.9C201.2 31.2 202.9 31.9 203.7 32.3L203.2 33.3C202.3 32.8 200.7 32.1 199.4 31.8L199.9 30.9ZM200.8 44.3V37H212.6V44.4H200.8V44.3ZM202 37.8V39.1H211.5V37.8H202ZM202 40V41.3H211.5V40H202ZM202 42.1V43.5H211.5V42.1H202ZM209.7 32.8C210.1 34.3 211.2 35.6 214.9 36.2C214.7 36.4 214.4 36.9 214.3 37.2C211.1 36.6 209.8 35.4 209.1 34C208.5 35.4 207.2 36.3 204.4 36.8C204.3 36.5 204 36.1 203.8 35.9C206.8 35.4 207.9 34.4 208.4 32.7H206.3C205.8 33.3 205.3 33.8 204.6 34.3C204.4 34.1 204 33.8 203.7 33.7C205.1 32.7 206 31.5 206.5 30.4L207.8 30.6C207.8 30.7 207.7 30.8 207.5 30.8C207.4 31.1 207.2 31.4 207 31.8H213.6H213.8L214.5 31.9C214.3 32.6 213.2 34 212.6 34.6L211.6 34.2C212 33.8 212.4 33.3 212.8 32.7H209.7V32.8ZM213.4 47.3C212.2 46.7 210.2 45.9 208.2 45.3L209.2 44.7C211.2 45.3 213.4 46.1 214.7 46.7L213.4 47.3Z" fill="white"/>
<path d="M232.2 32.5C232.5 32.5 232.5 32.5001 232.7 32.4001L233.5 32.8C233.5 32.9 233.4 32.9 233.3 33C232.6 34.9 231.6 36.4 230.3 37.8C231.5 38.9 233.1 39.8001 234.9 40.4001C234.6 40.6001 234.3 41.1001 234.1 41.4001C233.8 41.3001 233.5 41.2 233.3 41.1V47.2001H232.1V46.4001H226.8V47.2001H225.7V41.1C225.2 41.3 224.7 41.6 224.2 41.7001C224.1 41.4001 223.7 40.9001 223.5 40.7001H223.6C223.3 40.1 222.6 39.1 222.1 38.3V47.2001H220.9V38.2001C220.2 40.3001 219.3 42.4001 218.3 43.7001C218.2 43.4001 217.8 42.9 217.6 42.6C218.8 41.1 220.1 38.1 220.7 35.5H218.1V34.4001H220.9V30.4001L222.4 30.5C222.4 30.6 222.3 30.7001 222.1 30.7001V34.3H224.5V35.4001H222.1V36.7001C222.6 37.3001 224.1 39.2001 224.5 39.7001C224.2 40.1 224 40.3 223.9 40.5C225.6 39.9 227.3 38.9 228.7 37.6C227.9 36.7 227.2 35.7001 226.6 34.7001C226 35.5001 225.3 36.2 224.7 36.8C224.5 36.6 224.1 36.2 223.8 36C225.3 34.7 226.8 32.5 227.7 30.3L229.1 30.8C229 30.9 228.9 31 228.7 31C228.5 31.5 228.3 31.9001 228.1 32.4001H232.2V32.5ZM232.4 40.6C231.3 40 230.4 39.3 229.6 38.6C228.8 39.4 227.8 40.1 226.9 40.6H232.4ZM226.9 45.3H232.2V41.6H226.9V45.3ZM227.6 33.6L227.4 33.9001C227.9 34.9001 228.6 36 229.6 37C230.5 36 231.3 34.9 231.9 33.6H227.6Z" fill="white"/>
<path d="M247.1 32.5H245.4V47.2H244.2V43.5C242 43.9 239.9 44.3 238.5 44.5C238.5 44.6 238.4 44.7 238.2 44.8L237.7 43.4C238.2 43.3 238.7 43.3 239.3 43.2V32.5H237.7V31.4H247V32.5H247.1ZM244.3 35.2V32.6H240.6V35.2H244.3ZM244.3 38.9V36.3H240.6V38.9H244.3ZM240.6 40V43C241.8 42.8 243 42.6 244.3 42.5V40H240.6ZM253.2 33.1L254 33.4C254 33.5 253.9 33.6 253.9 33.6C253.4 37.2 252.4 40.2 251 42.5C252 44.1 253.2 45.4 254.8 46.2C254.5 46.4 254.1 46.9 253.9 47.2C252.4 46.3 251.3 45.1 250.3 43.6C249.2 45.1 248 46.3 246.6 47.2C246.4 46.9 246.1 46.5 245.8 46.2C247.2 45.4 248.6 44.1 249.7 42.4C248.6 40.2 247.8 37.6 247.2 34.7L248.3 34.5C248.8 37 249.4 39.3 250.4 41.3C251.4 39.4 252.2 37.1 252.7 34.4H246.7V33.2H253.2V33.1Z" fill="white"/>
<path d="M260.2 39C259.6 39.8 258.9 40.6 258.2 41.3C258.1 41 257.7 40.5 257.5 40.3C258.9 38.9 260.7 36.7 261.7 34.5L263.1 35C263 35.1 262.8 35.2 262.7 35.2C262.3 35.9 261.8 36.7 261.3 37.4L261.6 37.5C261.6 37.6 261.5 37.7 261.2 37.7V47.2H260.1V39H260.2ZM262.7 31.1C262.6 31.3 262.4 31.3 262.3 31.2C261.3 32.4 259.6 34.1 258.2 35.3C258.1 35.1 257.7 34.6 257.5 34.4C258.8 33.4 260.5 31.8 261.3 30.5L262.7 31.1ZM274.3 41.1V42.2H271.5V45.9C271.5 47.3 270.8 47.3 268 47.3C267.9 47 267.7 46.5 267.6 46.2C268.2 46.2 268.8 46.2 269.2 46.2C270.1 46.2 270.2 46.2 270.2 45.9V42.2H262.7V41.1H270.2V39.4H263.1V38.4H273.8V39.4H271.7C271.7 39.5 271.6 39.5 271.4 39.6V41.1H274.3ZM272.8 31.1V37H264.3V31.1H272.8ZM266.7 45.8C266.3 45.1 265.3 43.9 264.5 43.2L265.3 42.6C266.2 43.4 267.2 44.4 267.6 45.2L266.7 45.8ZM271.6 33.6V32H265.5V33.6H271.6ZM271.6 36.1V34.5H265.5V36.1H271.6Z" fill="white"/>
<path d="M287.5 40.4C286.3 40.5 284.7 40.6 283.2 40.6C283.1 41.2 283.1 41.9 283.1 42.3C283.1 45.2 285 45.4 286.7 45.4C289.5 45.4 290.9 44.6 290.9 42.9C290.9 42 290.4 40.8 289.4 39.6C289.7 39.5 290.3 39.3 290.6 39.1C291.7 40.5 292.3 41.9 292.3 43.1C292.3 46.1 288.9 46.6 286.7 46.6C285 46.6 281.9 46.5 281.9 42.3C281.9 41.5 282 40.9 282 40.6C280.5 40.5 278.1 40.5 278.1 38.6C278.1 37.8 278.6 37 279.6 36.3L280.6 36.9C279.8 37.4 279.3 38 279.3 38.5C279.3 39.5 280.7 39.5 282.1 39.5C282.2 38.3 282.4 36.9 282.6 35.5C281.3 35.4 279.8 35 278.8 34.5L279.1 33.3C280.1 33.8 281.4 34.1 282.7 34.3C282.8 33.2 283 32 283.1 31.1L285 31.3C284.9 31.5 284.7 31.6 284.4 31.7C284.3 32.5 284.1 33.4 284 34.5C284.5 34.5 285.1 34.6 285.7 34.6C286.4 34.6 287.1 34.6 287.7 34.5L287.6 35.7C287.1 35.7 286.4 35.8 285.8 35.8C285.1 35.8 284.4 35.8 283.8 35.7C283.6 37.1 283.5 38.4 283.3 39.7C284.7 39.7 286.3 39.6 287.5 39.4V40.4Z" fill="white"/>
<path d="M297.7 31.8H309.9V47.3H308.6V46H298.9V47.3H297.7V31.8ZM308.7 32.9001H299V36.1H308.7V32.9001ZM308.7 37.2001H299V40.4001H308.7V37.2001ZM298.9 44.8H308.6V41.6H298.9V44.8Z" fill="white"/>
<path d="M320.9 38.5L321.1 39.5L318.9 40.3V45.7C318.9 47 318.3 47.2 315.9 47.2C315.8 46.9 315.7 46.4 315.5 46.1C316.3 46.1 317.1 46.1 317.4 46.1C317.6 46.1 317.7 46 317.7 45.8V40.8C316.9 41.1 316.1 41.4 315.5 41.6C315.5 41.7 315.4 41.9 315.3 41.9L314.8 40.5C315.6 40.3 316.6 40 317.8 39.6V35.4H315V34.3H317.7V30.7L319.2 30.8C319.2 30.9 319.1 31 318.8 31.1V34.4H320.9V35.5H318.8V39.4L320.9 38.5ZM323.2 35.7C323.2 36.3 323.4 36.5 324.7 36.5H329.2C330.3 36.5 330.4 36.2 330.6 34.2C330.9 34.4 331.4 34.6 331.7 34.7C331.5 37.1 331.1 37.7 329.3 37.7H324.7C322.6 37.7 322.1 37.3 322.1 35.8V30.6L323.7 30.7C323.7 30.8 323.6 30.9 323.3 31V33.4C325.6 32.9 328 32.3 329.4 31.7L330.4 32.7C330.3 32.8 330.3 32.8 330.2 32.8H330.1C328.5 33.4 325.7 34.1 323.3 34.5V35.7H323.2ZM322.3 47.2V39.2H330.6V47.1H329.4V46.4H323.5V47.3H322.3V47.2ZM329.3 40.3H323.4V42.3H329.3V40.3ZM323.4 45.3H329.3V43.3H323.4V45.3Z" fill="white"/>
<path d="M343.6 33.5C343.6 33.1 343.5 31.1 343.5 30.7L345.4 30.8C345.4 30.9 345.3 31.1 344.9 31.2C344.9 31.4 344.9 31.6 344.9 33.5C347.1 33.4 349.4 33.4 350.8 33.4V34.6C349.3 34.6 347.1 34.6 344.9 34.7C344.9 36.1 345 37.4 345 38.4C345.2 39 345.2 39.5 345.2 40.3C345.2 40.9 345.1 41.5 345 42C344.5 44.1 343 46 339.8 47.2C339.6 46.9 339.2 46.4 338.9 46.2C341.7 45.2 343.1 43.7 343.6 42C343.2 42.5 342.6 43 341.7 43C340.1 43 338.7 41.7 338.7 39.8C338.7 37.9 340.2 36.4 341.9 36.4C342.5 36.4 343.2 36.6 343.6 37C343.6 36.7 343.6 35.5 343.5 34.7C341.6 34.7 335.9 34.9 335.2 35V33.8L339.3 33.7L343.6 33.5ZM343.9 39.8C343.9 39.1 343.9 37.5 342.1 37.5C340.9 37.5 340 38.5 340 39.8C340 41.1 341 41.9 342 41.9C343.2 41.8 343.9 40.8 343.9 39.8Z" fill="white"/>
<path d="M359 44.7C359 46.1 357.9 47.2 356.5 47.2C355.1 47.2 354 46.1 354 44.7C354 43.3 355.1 42.2 356.5 42.2C357.9 42.2 359 43.4 359 44.7ZM358.3 44.7C358.3 43.7 357.5 42.8 356.4 42.8C355.4 42.8 354.5 43.6 354.5 44.7C354.5 45.7 355.3 46.6 356.4 46.6C357.6 46.6 358.3 45.7 358.3 44.7Z" fill="white"/>
</svg>
