<svg width="86" height="136" viewBox="0 0 86 136" fill="none" xmlns="http://www.w3.org/2000/svg">
<path d="M2.3999 43.4V1.79999H15.5999C18.0999 1.79999 20.0999 2.29999 21.6999 3.19999C23.2999 4.09999 24.3999 5.49999 25.1999 7.29999C25.9999 9.09999 26.3999 11.2 26.3999 13.8C26.3999 16.8 25.8999 19.1 24.8999 20.8C23.8999 22.5 22.4999 23.7 20.7999 24.4C19.0999 25.1 17.0999 25.5 14.7999 25.5H10.9999V43.5H2.3999V43.4ZM10.8999 19.4H13.8999C15.0999 19.4 16.0999 19.2 16.6999 18.8C17.3999 18.4 17.7999 17.8 18.0999 16.9C18.2999 16 18.4999 15 18.4999 13.6C18.4999 12.3 18.3999 11.3 18.1999 10.4C17.9999 9.49999 17.5999 8.89999 16.8999 8.39999C16.1999 7.89999 15.1999 7.69999 13.7999 7.69999H10.8999V19.4V19.4Z" stroke="white" stroke-width="1.2" stroke-miterlimit="10"/>
<path d="M30.8 43.4V1.79999H41.6C44.4 1.79999 46.8 2.09999 48.8 2.69999C50.8 3.29999 52.3001 4.49999 53.4001 6.09999C54.4001 7.69999 55 9.99999 55 12.8C55 14.5 54.9 16 54.6 17.3C54.3 18.6 53.8 19.8 53.1 20.7C52.4 21.7 51.3 22.5 50 23L55.7001 43.3H47L42.2001 24.5H39.2001V43.3H30.8V43.4ZM39.2001 19.5H41.7001C43.1001 19.5 44.1001 19.3 44.9001 18.8C45.7001 18.4 46.2 17.7 46.6 16.8C46.9 15.9 47.1 14.8 47.1 13.4C47.1 11.5 46.7 9.99999 46 8.99999C45.3 7.99999 44 7.49999 42.1 7.49999H39.2001V19.5V19.5Z" stroke="white" stroke-width="1.2" stroke-miterlimit="10"/>
<path d="M72.2 43.9C69.2 43.9 66.7 43.4 65 42.3C63.2 41.2 61.9 39.6 61.2 37.6C60.4 35.6 60 33.1 60 30.3V14.8C60 12 60.4 9.49999 61.2 7.49999C62 5.49999 63.2 3.89999 65 2.89999C66.8 1.79999 69.2 1.29999 72.2 1.29999C75.3 1.29999 77.7 1.79999 79.5 2.89999C81.3 3.99999 82.6 5.49999 83.3 7.49999C84.1 9.49999 84.5 11.9 84.5 14.8V30.3C84.5 33.1 84.1 35.6 83.3 37.6C82.5 39.6 81.2 41.2 79.5 42.3C77.8 43.4 75.3 43.9 72.2 43.9ZM72.2 37.8C73.3 37.8 74.1 37.6 74.6 37.1C75.1 36.6 75.5 35.9 75.6 35.1C75.7 34.3 75.9 33.4 75.9 32.4V12.7C75.9 11.7 75.8 10.9 75.6 9.99999C75.4 9.19999 75.1 8.49999 74.6 7.99999C74.1 7.49999 73.3 7.29999 72.2 7.29999C71.2 7.29999 70.4 7.49999 69.9 7.99999C69.4 8.49999 69 9.19999 68.9 9.99999C68.7 10.8 68.6 11.7 68.6 12.7V32.3C68.6 33.3 68.7 34.2 68.8 35C69 35.8 69.3 36.5 69.8 37C70.4 37.6 71.2 37.8 72.2 37.8Z" stroke="white" stroke-width="1.2" stroke-miterlimit="10"/>
<path d="M10.5 85C8.69995 85 7.19995 84.7 6.19995 84.1C5.19995 83.5 4.39995 82.8 3.99995 81.7C3.59995 80.6 3.39995 79.3 3.39995 77.8V62.6H0.699951V58H3.29995V50H10.4V58.1H14.3V62.7H10.4V77.2C10.4 78 10.6 78.6 11 79C11.4 79.4 12 79.5 12.7 79.5C13.1 79.5 13.4 79.5 13.8 79.4C14.1 79.4 14.4 79.3 14.7 79.3V84.7C14.3 84.8 13.7 84.8 12.9 84.9C12.1 85 11.3 85 10.5 85Z" stroke="white" stroke-width="1.2" stroke-miterlimit="10"/>
<path d="M26.8 85.2C24.9 85.2 23.3 84.9 21.9 84.2C20.5 83.5 19.5 82.5 18.8 81.2C18.1 79.9 17.8 78.2 17.8 76.3V66.7C17.8 64.7 18.1 63.1 18.8 61.8C19.5 60.5 20.5 59.5 21.9 58.8C23.3 58.1 24.9 57.8 26.8 57.8C28.7 57.8 30.3001 58.1 31.7001 58.8C33.1001 59.5 34.1 60.5 34.8 61.8C35.5 63.1 35.9001 64.8 35.9001 66.7V76.3C35.9001 78.3 35.5 79.9 34.8 81.2C34.1 82.5 33.1001 83.5 31.7001 84.2C30.4001 84.8 28.7 85.2 26.8 85.2ZM26.9 80.5C27.5 80.5 27.9001 80.3 28.2001 80C28.5001 79.7 28.7 79.2 28.8 78.7C28.9 78.1 28.9001 77.5 28.9001 76.7V66.1C28.9001 65.3 28.9 64.7 28.8 64.1C28.7 63.5 28.5001 63.1 28.2001 62.8C27.9001 62.5 27.4 62.3 26.9 62.3C26.3 62.3 25.9 62.5 25.6 62.8C25.3 63.1 25.1 63.6 25 64.1C24.9 64.7 24.8 65.3 24.8 66.1V76.7C24.8 77.4 24.9 78.1 25 78.7C25.1 79.3 25.3 79.7 25.6 80C25.9 80.3 26.3 80.5 26.9 80.5Z" stroke="white" stroke-width="1.2" stroke-miterlimit="10"/>
<path d="M2.3999 134V92.5H15.5999C18.0999 92.5 20.0999 93 21.6999 93.9C23.2999 94.8 24.3999 96.2 25.1999 98C25.9999 99.8 26.3999 101.9 26.3999 104.5C26.3999 107.5 25.8999 109.8 24.8999 111.5C23.8999 113.2 22.4999 114.4 20.7999 115.1C19.0999 115.8 17.0999 116.2 14.7999 116.2H10.9999V134.2H2.3999V134ZM10.8999 110.1H13.8999C15.0999 110.1 16.0999 109.9 16.6999 109.5C17.3999 109.1 17.7999 108.5 18.0999 107.6C18.2999 106.7 18.4999 105.7 18.4999 104.3C18.4999 103 18.3999 102 18.1999 101.1C17.9999 100.2 17.5999 99.6 16.8999 99.1C16.1999 98.6 15.1999 98.4 13.7999 98.4H10.8999V110.1V110.1Z" stroke="white" stroke-width="1.2" stroke-miterlimit="10"/>
<path d="M30.8 134V92.5H41.6C44.4 92.5 46.8 92.8 48.8 93.4C50.8 94 52.3001 95.2 53.4001 96.8C54.5001 98.4 55 100.6 55 103.5C55 105.2 54.9 106.7 54.6 108C54.3 109.3 53.8 110.5 53.1 111.4C52.4 112.4 51.3 113.2 50 113.7L55.7001 134H47L42.2001 115.2H39.2001V134H30.8ZM39.2001 110.2H41.7001C43.1001 110.2 44.1001 110 44.9001 109.5C45.7001 109.1 46.2 108.4 46.6 107.5C46.9 106.6 47.1 105.5 47.1 104.1C47.1 102.2 46.7 100.7 46 99.7C45.3 98.7 44 98.2 42.1 98.2H39.2001V110.2V110.2Z" stroke="white" stroke-width="1.2" stroke-miterlimit="10"/>
<path d="M72.2 134.6C69.2 134.6 66.7 134.1 65 133C63.2 131.9 61.9 130.3 61.2 128.3C60.4 126.3 60 123.8 60 121V105.5C60 102.7 60.4 100.2 61.2 98.2C62 96.2 63.2 94.6 65 93.6C66.8 92.5 69.2 92 72.2 92C75.3 92 77.7 92.5 79.5 93.6C81.3 94.7 82.6 96.2 83.3 98.2C84.1 100.2 84.5 102.6 84.5 105.5V121C84.5 123.8 84.1 126.3 83.3 128.3C82.5 130.3 81.2 131.9 79.5 133C77.8 134.1 75.3 134.6 72.2 134.6ZM72.2 128.5C73.3 128.5 74.1 128.3 74.6 127.8C75.1 127.3 75.5 126.6 75.6 125.8C75.8 125 75.9 124.1 75.9 123.1V103.5C75.9 102.5 75.8 101.7 75.6 100.8C75.4 99.9 75.1 99.3 74.6 98.8C74.1 98.3 73.3 98.1 72.2 98.1C71.2 98.1 70.4 98.3 69.9 98.8C69.4 99.3 69 100 68.9 100.8C68.7 101.6 68.6 102.5 68.6 103.5V123C68.6 124 68.7 124.9 68.8 125.7C69 126.5 69.3 127.2 69.8 127.7C70.4 128.2 71.2 128.5 72.2 128.5Z" stroke="white" stroke-width="1.2" stroke-miterlimit="10"/>
</svg>
