<svg width="304" height="309" viewBox="0 0 304 309" fill="none" xmlns="http://www.w3.org/2000/svg">
<path d="M46.6 65.2C55.9 66.8 63.8 74.3 63.8 85.7C63.8 98.3 54.7001 109.3 37 109.3C29.1 109.3 21.9 106.8 18.3 104.2L20.9 97.4C23.8 99.3 30.1 102.2 37.1 102.2C50.4 102.2 54.7001 92.9 54.7001 85.6C54.7001 74 44.9 68.7 34.5 68.7H29.3V62.2H34.5C42.1 62.2 51.9001 57.4 51.9001 47.5C51.9001 40.6 47.8 34.7 38.3 34.7C32.5 34.7 27 37.6 23.8 39.9L21.2 33.5C25 30.5 32.4 27.6 40 27.6C54.5 27.6 60.9001 36.8 60.9001 46.3C60.9001 54.4 55.7001 61.7 46.5 65V65.2H46.6Z" fill="white"/>
<path d="M163.7 84.2V90.5H127.8V112.5H121.3V90.5H75.8V84.2H91.9V57.8H121.3V42H96.5C91.9 49.6 86.6 56.4 81.1 61.4C79.9 60.2 77.5 58.1 75.9 57.2C84.8 49.5 93.3 36.3 98.3 22.9L106.5 25.5C106.1 26.4 105.3 26.6 104.3 26.4C103.1 29.6 101.6 32.6 100 35.7H159.1V42H127.8V57.7H157V63.8H127.8V84.1H163.7V84.2ZM98.5 84.2H121.3V63.9H98.5V84.2Z" fill="white"/>
<path d="M74.7 151.8C74.5 151.9 74.3 151.9 74 151.9C73.4 151.9 72.7 151.7 72.2 151.4C46.9 158.8 23.9 170 24 181.4C24 189.6 33.1 192.4 46.9 192.4C60.7 192.4 71.2 191.4 77.1 190.4L77.6 196.6C69.7 197.6 57 198.1 47 198.1C30.1 198.1 17.8 194.2 17.7 181.6C17.6 172.5 26.8 164.4 40.2 157.5C37.3 152.3 36.3 142.4 36.3 123.1L45.7 123.9C45.6 125 44.8 125.7 43.1 125.9C43 140.9 43.5 150.2 45.9 154.8C53.9 151 63.2 147.6 72.6 144.5L74.7 151.8Z" fill="white"/>
<path d="M144.5 192C137 193.4 127.1 194 118.5 194C111.3 194 105.1 193.6 101.8 192.9C91.5 190.6 87 184.1 87 176.6C87 170 90.7 163.4 95.7 158.3L100.7 160.9C95.9 165.9 93.2 171.3 93.2 176.1C93.2 181.1 96.5 185.6 103.9 187.2C106.9 187.9 111.9 188.2 117.8 188.2C126.1 188.2 136 187.5 144.1 185.9L144.5 192ZM106.1 148.9C110.5 145.5 116.6 141.3 121.2 139V138.9C114.7 139.7 99.8 140 90.4 139.9C90.4 138.3 90.4 135.5 90.3 133.9C92.2 134 125 134.5 139 131.2L139.7 137.5C129.5 138.7 116.5 147.6 111 151.9L106.1 148.9Z" fill="white"/>
<path d="M209.3 151.8C209.1 151.9 208.9 151.9 208.6 151.9C208 151.9 207.3 151.7 206.8 151.4C181.4 158.8 158.4 170 158.5 181.5C158.5 189.7 167.6 192.5 181.4 192.5C195.2 192.5 205.7 191.5 211.6 190.5L212.1 196.7C204.2 197.7 191.5 198.2 181.5 198.2C164.6 198.2 152.3 194.3 152.2 181.7C152.1 172.6 161.3 164.5 174.7 157.6C171.8 152.4 170.8 142.5 170.8 123.2L180.2 124C180.1 125.1 179.3 125.8 177.6 126C177.5 141 178 150.3 180.4 154.9C188.4 151.1 197.7 147.7 207.1 144.6L209.3 151.8Z" fill="white"/>
<path d="M215.9 194.9C222.2 176.8 232.7 146.5 236.1 137.5C237.7 132.9 239.9 126.4 240.5 124.3L249.7 126.7C249.3 127.9 248.1 128.3 246.4 128.3C241.7 140 234.4 160 231.3 168.5H231.4C236.4 162.3 244.1 158 250.1 158C257.5 158 261.1 163 260.9 171L260.6 181.2C260.5 187.6 263.9 191.1 269.5 191.1C277.2 191.1 284.3 182.3 288.2 167.6C289.9 168.8 292 169.9 293.8 170.8C289.1 187.1 280.6 197.4 269.3 197.4C260.2 197.4 254.3 191.9 254.3 183.2C254.3 181.6 254.6 173.7 254.6 171.9C254.6 166.5 252.4 163.7 248.6 163.7C238.8 163.7 228.9 178 226.7 183.5C225.5 186.5 223.6 192 222 196.9L215.9 194.9Z" fill="white"/>
<path d="M63.9 270.6V279.3C63.9 289.5 57.5 289.9 41.5 289.7C41.1 285.3 39.3 280.1 37.3 276.4C38.7 276.5 45.5 276.8 47 276.8C49.6 276.8 49.6 276.2 49.6 272.4V270.6H17.5V258.2H49.7V253.2L55.4 253.6C57 252.4 57.7 251.9 58.8 250.9H33.9V239.1H76L80.5 247.1C78.5 249.2 74 253 66.9 258.1H94.8V270.5H63.9V270.6ZM49.8 224.6C49.1 223.1 46.9 218.7 42.8 213.2L55.1 208.6C57.2 211 61.4 217.2 63 221.2C58.6 223.2 57.4 223.8 56.3 224.5H66.4C66.5 224.4 74.2 212.4 75.1 209.5L89.5 213.7C90.3 214 91 214.1 91 214.9C91 216.1 89.5 216.5 88 216.5C85.5 220.9 84.8 221.8 83 224.4H94.7V247.6H81V236H31.3V247.6H17.8V224.4H29C28.4 223.2 25.8 218.5 22.8 215.2L34.8 209.8C38.4 213.5 41.7 219.5 42.8 221.8C40.4 223 39.3 223.6 37.8 224.4H49.8V224.6Z" fill="white"/>
<path d="M102.3 264.9C109.1 261.3 118.7 254.1 124.5 248.7C126.3 253.2 128.9 258.3 130.7 261.3C129.7 262.3 128.5 263.5 126.7 265.1C124.3 267.2 113.7 276.2 111.6 278.1C111.3 279 111 280.3 110.1 280.3C109.4 280.3 109.1 279.5 108.8 278.9L102.3 264.9ZM134.3 210.5C143.4 212.6 156.4 218.6 161 221.9C158.4 225.3 156.6 227.8 151.9 234C148.9 231.9 139.9 225.1 126.9 222.1L134.3 210.5ZM146.9 238C144.8 240.5 144.8 242.9 144.8 243.3C144.8 246.4 146.8 248.2 149.6 250.8C159.5 260.3 161 266.7 161 271C161 278.7 155.3 287.1 143.6 287.1C142.2 287.1 135.3 287 127.5 283.8C128.5 278.7 128.9 275.1 128.9 268.4C133.9 272.2 140.1 273 140.9 273C142.8 273 145 271.9 145 269.4C145 266.1 141.5 262.7 137.7 258.9C133.7 255 129.2 250.6 129.2 244.3C129.2 242.5 129.6 236.7 134.9 231.2L146.9 238ZM165.1 241.2C172.8 247.5 181.8 258.3 184.7 264C181.6 266.6 175.8 272.9 174.2 275.4C168.3 264.8 161.5 255.6 156.1 250.9L165.1 241.2ZM168.3 222.6C171.1 225.2 175 230.4 176.4 232.9C173.8 234.7 171.1 237.3 169.6 238.7C168.4 236.8 165 231.6 161.8 228.2L168.3 222.6ZM176.7 215.6C179.9 218.7 183.5 224 184.6 225.6C182.5 227.1 180.1 229.4 178.4 231.2C174.1 225.5 173.2 224.2 170.2 221L176.7 215.6Z" fill="white"/>
</svg>
