<svg width="36" height="35" viewBox="0 0 36 35" fill="none" xmlns="http://www.w3.org/2000/svg">
<path d="M29.8574 12.8275C29.8574 13.018 29.7023 13.172 29.5132 13.172H26.1385V14.4767H29.5132C29.7023 14.4767 29.8574 14.6331 29.8574 14.8211V16.0653C29.8574 16.2545 29.7023 16.4097 29.5132 16.4097H26.1385V17.7144H29.5132C29.7023 17.7144 29.8574 17.8696 29.8574 18.0614V19.3018C29.8574 19.4923 29.7023 19.6475 29.5132 19.6475H24.5508C24.4587 19.6475 24.3742 19.6096 24.3137 19.5516C24.3124 19.5503 24.3099 19.5478 24.3087 19.5466C24.3061 19.5453 24.3036 19.5428 24.3036 19.5415C24.2431 19.4797 24.2078 19.3951 24.2078 19.3018V11.5846V11.5833C24.2078 11.4938 24.2431 11.408 24.3024 11.3474C24.3036 11.3449 24.3061 11.3423 24.3087 11.3411C24.3099 11.3398 24.3112 11.3386 24.3124 11.336C24.3742 11.2767 24.4575 11.2401 24.5508 11.2401H29.5132C29.7023 11.2401 29.8574 11.3928 29.8574 11.5846V12.8275ZM22.9997 19.3018C22.9997 19.4923 22.8445 19.6475 22.6554 19.6475H21.4119C21.3817 19.6475 21.3527 19.6425 21.3249 19.6361L21.3199 19.6336C21.3123 19.6324 21.3035 19.6298 21.2959 19.626C21.2921 19.6248 21.2896 19.6235 21.2858 19.6235C21.2795 19.621 21.2745 19.616 21.2682 19.616C21.2631 19.6134 21.2581 19.6096 21.2531 19.6084C21.2493 19.6059 21.2455 19.6033 21.2417 19.6033C21.2367 19.597 21.2291 19.5932 21.2215 19.5907C21.2203 19.5882 21.219 19.5869 21.2177 19.5869C21.1862 19.5655 21.1547 19.5365 21.1307 19.5011L17.5909 14.7189V19.3018C17.5909 19.4923 17.4358 19.6475 17.2466 19.6475H16.0044C15.814 19.6475 15.6589 19.4923 15.6589 19.3018V11.5833C15.6589 11.3928 15.814 11.2401 16.0044 11.2401H17.2466H17.2579C17.2642 11.2401 17.2693 11.2401 17.2756 11.2414C17.2819 11.2414 17.2869 11.2439 17.2945 11.2439C17.2996 11.2439 17.3033 11.2439 17.3084 11.2452C17.3147 11.2464 17.3223 11.2477 17.3286 11.2502C17.3323 11.2515 17.3361 11.2515 17.3412 11.2528C17.3475 11.254 17.3538 11.2578 17.3601 11.2603C17.3651 11.2603 17.3689 11.2629 17.3727 11.2641C17.3777 11.2666 17.3853 11.2692 17.3916 11.2717C17.3954 11.2742 17.3992 11.2767 17.403 11.2767C17.408 11.2805 17.4143 11.2843 17.4219 11.2868C17.4244 11.2893 17.4282 11.2919 17.432 11.2931C17.4383 11.2982 17.4433 11.302 17.4496 11.307C17.4521 11.3095 17.4559 11.3108 17.4585 11.3133C17.4648 11.3184 17.4711 11.3247 17.4774 11.3285C17.4786 11.331 17.4811 11.3335 17.4837 11.3348C17.49 11.3411 17.4975 11.3474 17.5039 11.3562C17.5051 11.3562 17.5064 11.3587 17.5064 11.3587C17.5152 11.3688 17.5253 11.3802 17.5341 11.3928L21.0677 16.17V11.5833C21.0677 11.3928 21.2228 11.2401 21.4119 11.2401H22.6554C22.8445 11.2401 22.9997 11.3928 22.9997 11.5833V19.3018ZM14.452 19.3018C14.452 19.4923 14.2969 19.6475 14.1077 19.6475H12.8643C12.6752 19.6475 12.52 19.4923 12.52 19.3018V11.5833C12.52 11.3928 12.6752 11.2401 12.8643 11.2401H14.1077C14.2969 11.2401 14.452 11.3928 14.452 11.5833V19.3018ZM11.457 19.3018C11.457 19.4923 11.3044 19.6475 11.1139 19.6475H6.15157C6.05951 19.6475 5.97628 19.6096 5.91449 19.5516C5.91322 19.5503 5.9107 19.5478 5.90944 19.5466C5.90692 19.5453 5.90566 19.5428 5.90313 19.5415C5.84512 19.4797 5.80729 19.3951 5.80729 19.3018V11.5833C5.80729 11.3928 5.96241 11.2389 6.15157 11.2389H7.395C7.58542 11.2389 7.73927 11.3928 7.73927 11.5833V17.7144H11.1139C11.3044 17.7144 11.457 17.8696 11.457 18.0614V19.3018ZM35.4087 15.0697C35.4087 7.14434 27.4664 0.694031 17.7044 0.694031C7.94357 0.694031 0 7.14434 0 15.0697C0 22.1761 6.29912 28.1268 14.8064 29.2536C15.3814 29.3772 16.1671 29.6334 16.3664 30.1255C16.5442 30.5747 16.4836 31.2762 16.4231 31.728C16.4231 31.728 16.2163 32.9797 16.1709 33.2446C16.0927 33.6926 15.8153 34.9973 17.7044 34.2011C19.5935 33.4024 27.9002 28.1924 31.6154 23.9149H31.6141C34.1792 21.0986 35.4087 18.2431 35.4087 15.0697Z" fill="#2A3940"/>
</svg>
