<svg width="269" height="72" viewBox="0 0 269 72" fill="none" xmlns="http://www.w3.org/2000/svg">
<path d="M9.14648 24.7129H5.87891V32H1.77734V12.0938H9.17383C11.5254 12.0938 13.3392 12.6178 14.6152 13.666C15.8913 14.7142 16.5293 16.1953 16.5293 18.1094C16.5293 19.4674 16.2331 20.6022 15.6406 21.5137C15.0573 22.416 14.1686 23.1361 12.9746 23.6738L17.2812 31.8086V32H12.8789L9.14648 24.7129ZM5.87891 21.3906H9.1875C10.2174 21.3906 11.015 21.1309 11.5801 20.6113C12.1452 20.0827 12.4277 19.3581 12.4277 18.4375C12.4277 17.4987 12.1589 16.7604 11.6211 16.2227C11.0924 15.6849 10.2767 15.416 9.17383 15.416H5.87891V21.3906ZM31.6367 23.373H23.7617V28.7051H33.0039V32H19.6602V12.0938H32.9766V15.416H23.7617V20.1602H31.6367V23.373ZM46.6484 27.8984H39.457L38.0898 32H33.7285L41.1387 12.0938H44.9395L52.3906 32H48.0293L46.6484 27.8984ZM40.5645 24.5762H45.541L43.0391 17.125L40.5645 24.5762ZM58.3516 28.7051H67.0605V32H54.25V12.0938H58.3516V28.7051ZM13.7539 56.373H5.87891V61.7051H15.1211V65H1.77734V45.0938H15.0938V48.416H5.87891V53.1602H13.7539V56.373ZM33.1543 58.3691C32.9993 60.5111 32.2064 62.1973 30.7754 63.4277C29.3535 64.6582 27.4759 65.2734 25.1426 65.2734C22.5905 65.2734 20.5807 64.4167 19.1133 62.7031C17.6549 60.9805 16.9258 58.6198 16.9258 55.6211V54.4043C16.9258 52.4902 17.263 50.804 17.9375 49.3457C18.612 47.8874 19.5736 46.7708 20.8223 45.9961C22.0801 45.2122 23.5384 44.8203 25.1973 44.8203C27.4941 44.8203 29.3444 45.4355 30.748 46.666C32.1517 47.8965 32.9629 49.6237 33.1816 51.8477H29.0801C28.9798 50.5625 28.6198 49.6328 28 49.0586C27.3893 48.4753 26.4551 48.1836 25.1973 48.1836C23.8301 48.1836 22.8047 48.6758 22.1211 49.6602C21.4466 50.6354 21.1003 52.153 21.082 54.2129V55.7168C21.082 57.8678 21.4056 59.4401 22.0527 60.4336C22.709 61.4271 23.7389 61.9238 25.1426 61.9238C26.4095 61.9238 27.3529 61.6367 27.9727 61.0625C28.6016 60.4792 28.9616 59.5814 29.0527 58.3691H33.1543ZM51.4746 58.3691C51.3197 60.5111 50.5267 62.1973 49.0957 63.4277C47.6738 64.6582 45.7962 65.2734 43.4629 65.2734C40.9108 65.2734 38.901 64.4167 37.4336 62.7031C35.9753 60.9805 35.2461 58.6198 35.2461 55.6211V54.4043C35.2461 52.4902 35.5833 50.804 36.2578 49.3457C36.9323 47.8874 37.8939 46.7708 39.1426 45.9961C40.4004 45.2122 41.8587 44.8203 43.5176 44.8203C45.8145 44.8203 47.6647 45.4355 49.0684 46.666C50.472 47.8965 51.2832 49.6237 51.502 51.8477H47.4004C47.3001 50.5625 46.9401 49.6328 46.3203 49.0586C45.7096 48.4753 44.7754 48.1836 43.5176 48.1836C42.1504 48.1836 41.125 48.6758 40.4414 49.6602C39.7669 50.6354 39.4206 52.153 39.4023 54.2129V55.7168C39.4023 57.8678 39.7259 59.4401 40.373 60.4336C41.0293 61.4271 42.0592 61.9238 43.4629 61.9238C44.7298 61.9238 45.6732 61.6367 46.293 61.0625C46.9219 60.4792 47.2819 59.5814 47.373 58.3691H51.4746Z" fill="white"/>
<path d="M55.7856 62.4946L57.1618 57.9283H58.5546L56.4403 64H55.1351L53.0292 57.9283H54.4178L55.7856 62.4946ZM58.6714 61.7023C58.6714 61.2547 58.7575 60.8557 58.9299 60.5054C59.1023 60.1552 59.3497 59.8841 59.6722 59.6923C59.9975 59.5004 60.3742 59.4045 60.8023 59.4045C61.4111 59.4045 61.9074 59.5908 62.291 59.9633C62.6775 60.3359 62.8929 60.8418 62.9374 61.4812L62.9457 61.7898C62.9457 62.4821 62.7525 63.0381 62.3661 63.4579C61.9797 63.8749 61.4612 64.0834 60.8106 64.0834C60.1601 64.0834 59.6402 63.8749 59.251 63.4579C58.8646 63.0409 58.6714 62.4737 58.6714 61.7565V61.7023ZM59.8765 61.7898C59.8765 62.218 59.9571 62.546 60.1184 62.774C60.2796 62.9992 60.5104 63.1118 60.8106 63.1118C61.1025 63.1118 61.3305 63.0006 61.4945 62.7782C61.6586 62.553 61.7406 62.1943 61.7406 61.7023C61.7406 61.2825 61.6586 60.9572 61.4945 60.7265C61.3305 60.4957 61.0998 60.3803 60.8023 60.3803C60.5076 60.3803 60.2796 60.4957 60.1184 60.7265C59.9571 60.9544 59.8765 61.3089 59.8765 61.7898ZM64.9599 64H63.7506V57.5947H64.9599V64ZM66.0191 63.4078C66.0191 63.216 66.083 63.0603 66.2109 62.9408C66.3416 62.8212 66.5042 62.7615 66.6988 62.7615C66.8962 62.7615 67.0589 62.8212 67.1867 62.9408C67.3174 63.0603 67.3827 63.216 67.3827 63.4078C67.3827 63.5969 67.3188 63.7512 67.1909 63.8707C67.063 63.9875 66.899 64.0459 66.6988 64.0459C66.5014 64.0459 66.3388 63.9875 66.2109 63.8707C66.083 63.7512 66.0191 63.5969 66.0191 63.4078Z" fill="white"/>
<path d="M154.042 33.4355H155.237V37.1362H157.436V33.4355H158.631V42H157.436V37.9927H155.237V42H154.042V33.4355ZM160.974 42.0846C160.741 42.0846 160.53 42.0176 160.339 41.8837C160.156 41.7498 160.011 41.5735 159.906 41.355C159.8 41.1365 159.747 40.9074 159.747 40.6677C159.747 40.1884 159.849 39.8007 160.054 39.5047C160.258 39.2016 160.519 38.9619 160.836 38.7857C161.153 38.6094 161.594 38.4085 162.158 38.183V37.7495C162.158 37.3477 162.116 37.0657 162.031 36.9036C161.953 36.7344 161.791 36.6498 161.545 36.6498C161.115 36.6498 160.9 36.9388 160.9 37.5169V37.8235L159.779 37.7812C159.793 37.1045 159.948 36.6075 160.244 36.2903C160.54 35.9661 160.998 35.8039 161.619 35.8039C162.204 35.8039 162.627 35.9661 162.887 36.2903C163.155 36.6075 163.289 37.0904 163.289 37.7389V40.5303C163.289 40.9885 163.324 41.4784 163.395 42H162.359C162.281 41.5982 162.232 41.2986 162.211 41.1013C162.126 41.3762 161.978 41.6088 161.767 41.7991C161.562 41.9894 161.298 42.0846 160.974 42.0846ZM161.418 41.1118C161.566 41.1118 161.71 41.0554 161.851 40.9427C161.992 40.8228 162.094 40.71 162.158 40.6043V38.8703C161.855 39.0394 161.619 39.1875 161.449 39.3143C161.287 39.4342 161.15 39.5752 161.037 39.7373C160.931 39.8994 160.878 40.0933 160.878 40.3188C160.878 40.5726 160.924 40.77 161.016 40.9109C161.108 41.0449 161.241 41.1118 161.418 41.1118ZM164.45 33.795H165.581V34.9792H164.45V33.795ZM164.45 35.8885H165.581V42H164.45V35.8885ZM166.824 35.8885H167.955V36.7556C168.167 36.4102 168.382 36.167 168.6 36.026C168.826 35.885 169.062 35.8145 169.309 35.8145C169.372 35.8145 169.432 35.818 169.488 35.8251V37.0728C169.263 36.9882 169.055 36.9459 168.865 36.9459C168.681 36.9459 168.516 36.9917 168.368 37.0833C168.227 37.1679 168.089 37.3195 167.955 37.538V42H166.824V35.8885ZM172.838 33.4355H174.012L175.524 40.3823L177.046 33.4355H178.209L178.368 42H177.406L177.311 35.7828L175.862 42H175.185L173.747 35.7828L173.652 42H172.68L172.838 33.4355ZM180.685 42.0846C180.453 42.0846 180.241 42.0176 180.051 41.8837C179.868 41.7498 179.723 41.5735 179.617 41.355C179.512 41.1365 179.459 40.9074 179.459 40.6677C179.459 40.1884 179.561 39.8007 179.765 39.5047C179.97 39.2016 180.231 38.9619 180.548 38.7857C180.865 38.6094 181.306 38.4085 181.87 38.183V37.7495C181.87 37.3477 181.827 37.0657 181.743 36.9036C181.665 36.7344 181.503 36.6498 181.256 36.6498C180.826 36.6498 180.611 36.9388 180.611 37.5169V37.8235L179.49 37.7812C179.505 37.1045 179.66 36.6075 179.956 36.2903C180.252 35.9661 180.71 35.8039 181.33 35.8039C181.915 35.8039 182.338 35.9661 182.599 36.2903C182.867 36.6075 183.001 37.0904 183.001 37.7389V40.5303C183.001 40.9885 183.036 41.4784 183.107 42H182.07C181.993 41.5982 181.944 41.2986 181.922 41.1013C181.838 41.3762 181.69 41.6088 181.478 41.7991C181.274 41.9894 181.01 42.0846 180.685 42.0846ZM181.129 41.1118C181.277 41.1118 181.422 41.0554 181.563 40.9427C181.704 40.8228 181.806 40.71 181.87 40.6043V38.8703C181.566 39.0394 181.33 39.1875 181.161 39.3143C180.999 39.4342 180.862 39.5752 180.749 39.7373C180.643 39.8994 180.59 40.0933 180.59 40.3188C180.59 40.5726 180.636 40.77 180.728 40.9109C180.819 41.0449 180.953 41.1118 181.129 41.1118ZM184.109 33.4249H185.24V38.5319L186.89 35.8885H188.074L186.636 38.2781L188.032 42H186.9L185.758 38.8703L185.24 39.6527V41.9894H184.109V33.4249ZM190.312 42.0846C189.84 42.0846 189.474 41.9965 189.213 41.8203C188.952 41.637 188.769 41.3691 188.663 41.0167C188.557 40.6642 188.504 40.206 188.504 39.6421V38.2464C188.504 37.4005 188.635 36.7838 188.896 36.3961C189.163 36.0013 189.636 35.8039 190.312 35.8039C190.806 35.8039 191.176 35.9062 191.423 36.1106C191.676 36.315 191.842 36.604 191.92 36.9776C192.004 37.3442 192.046 37.8411 192.046 38.4685V38.9654H189.636V40.1919C189.636 40.5655 189.689 40.8369 189.794 41.0061C189.907 41.1682 190.083 41.2493 190.323 41.2493C190.563 41.2493 190.725 41.1682 190.809 41.0061C190.894 40.8369 190.936 40.5832 190.936 40.2448V39.8747H192.036V40.1073C192.036 40.7488 191.898 41.2387 191.623 41.5771C191.349 41.9154 190.912 42.0846 190.312 42.0846ZM190.936 38.3522V37.8023C190.936 37.3864 190.894 37.0904 190.809 36.9142C190.732 36.7309 190.563 36.6393 190.302 36.6393C190.119 36.6393 189.978 36.6815 189.879 36.7661C189.787 36.8507 189.724 36.9917 189.689 37.1891C189.653 37.3794 189.636 37.6578 189.636 38.0244V38.3522H190.936ZM193.949 42.0846C193.617 42.0846 193.381 41.9648 193.24 41.7251C193.099 41.4854 193.029 41.1894 193.029 40.8369V35.8885H194.16V40.4986C194.16 40.7312 194.195 40.9074 194.266 41.0272C194.336 41.14 194.463 41.1964 194.646 41.1964C194.872 41.1964 195.136 41.0695 195.439 40.8158V35.8885H196.571V42H195.439V41.3973C194.953 41.8555 194.456 42.0846 193.949 42.0846ZM197.728 35.8885H198.859V36.3749C199.19 35.9943 199.578 35.8039 200.022 35.8039C200.579 35.8039 200.949 36.0436 201.132 36.5229C201.323 36.9952 201.418 37.5204 201.418 38.0984V39.5787C201.418 40.3259 201.302 40.9321 201.069 41.3973C200.843 41.8555 200.452 42.0846 199.895 42.0846C199.536 42.0846 199.19 41.9048 198.859 41.5453V44.009H197.728V35.8885ZM199.673 41.1964C199.934 41.1964 200.1 41.066 200.17 40.8052C200.248 40.5373 200.287 40.1285 200.287 39.5787V38.0984C200.287 37.6473 200.244 37.3019 200.16 37.0622C200.075 36.8155 199.899 36.6921 199.631 36.6921C199.37 36.6921 199.113 36.7979 198.859 37.0093V40.9215C199.106 41.1048 199.377 41.1964 199.673 41.1964ZM206.311 33.4355H207.464L209.293 42H208.162L207.771 39.843H206.026L205.614 42H204.493L206.311 33.4355ZM207.612 38.9866L206.893 35.1272L206.185 38.9866H207.612ZM210.099 35.8885H211.23V36.7556C211.442 36.4102 211.657 36.167 211.875 36.026C212.101 35.885 212.337 35.8145 212.583 35.8145C212.647 35.8145 212.707 35.818 212.763 35.8251V37.0728C212.538 36.9882 212.33 36.9459 212.139 36.9459C211.956 36.9459 211.79 36.9917 211.642 37.0833C211.501 37.1679 211.364 37.3195 211.23 37.538V42H210.099V35.8885ZM215.092 42.0846C214.211 42.0846 213.771 41.5982 213.771 40.6254V36.6393H213.126V35.8885H213.771V34.1016H214.902V35.8885H215.885V36.6393H214.902V40.5514C214.902 40.7981 214.941 40.9708 215.018 41.0695C215.096 41.1682 215.244 41.2176 215.463 41.2176C215.603 41.2176 215.741 41.207 215.875 41.1858V42.0211C215.593 42.0634 215.332 42.0846 215.092 42.0846ZM216.791 33.795H217.922V34.9792H216.791V33.795ZM216.791 35.8885H217.922V42H216.791V35.8885ZM220.55 42.0846C220.056 42.0846 219.655 41.9295 219.344 41.6194C219.041 41.3092 218.869 40.8933 218.826 40.3717L219.767 40.0862C219.824 40.4809 219.919 40.7735 220.053 40.9638C220.194 41.1541 220.391 41.2493 220.645 41.2493C220.842 41.2493 220.994 41.1929 221.1 41.0801C221.212 40.9603 221.269 40.8017 221.269 40.6043C221.269 40.4281 221.23 40.2695 221.152 40.1285C221.075 39.9875 220.948 39.843 220.772 39.695L219.725 38.7962C219.485 38.5918 219.299 38.3768 219.165 38.1513C219.038 37.9186 218.974 37.6367 218.974 37.3054C218.974 36.8331 219.115 36.4666 219.397 36.2057C219.679 35.9379 220.063 35.8039 220.55 35.8039C221.015 35.8039 221.378 35.9555 221.639 36.2586C221.907 36.5547 222.062 36.9388 222.104 37.4111L221.343 37.6966C221.293 37.3512 221.212 37.0904 221.1 36.9142C220.987 36.7309 220.818 36.6393 220.592 36.6393C220.409 36.6393 220.261 36.6992 220.148 36.819C220.042 36.9388 219.989 37.0869 219.989 37.2631C219.989 37.4887 220.092 37.6931 220.296 37.8763L221.374 38.8703C221.649 39.124 221.861 39.3743 222.009 39.621C222.164 39.8677 222.241 40.1673 222.241 40.5197C222.241 41.0272 222.09 41.4149 221.787 41.6828C221.484 41.9507 221.071 42.0846 220.55 42.0846ZM224.716 42.0846C223.835 42.0846 223.394 41.5982 223.394 40.6254V36.6393H222.749V35.8885H223.394V34.1016H224.526V35.8885H225.509V36.6393H224.526V40.5514C224.526 40.7981 224.564 40.9708 224.642 41.0695C224.719 41.1682 224.867 41.2176 225.086 41.2176C225.227 41.2176 225.364 41.207 225.498 41.1858V42.0211C225.216 42.0634 224.956 42.0846 224.716 42.0846ZM230.998 42.0952C230.152 42.0952 229.556 41.8449 229.211 41.3444C228.866 40.8369 228.693 40.1391 228.693 39.2509V36.2269C228.693 35.2894 228.862 34.5774 229.2 34.091C229.539 33.6047 230.138 33.3615 230.998 33.3615C231.766 33.3615 232.316 33.5694 232.647 33.9853C232.986 34.4012 233.155 35.0145 233.155 35.8251V36.5018H232.024V35.8991C232.024 35.5044 232.006 35.2013 231.971 34.9898C231.935 34.7783 231.844 34.6091 231.696 34.4823C231.555 34.3554 231.326 34.2919 231.009 34.2919C230.684 34.2919 230.441 34.3624 230.279 34.5034C230.124 34.6373 230.022 34.8277 229.972 35.0744C229.923 35.314 229.898 35.6383 229.898 36.0471V39.4412C229.898 39.8783 229.934 40.2201 230.004 40.4668C230.075 40.7136 230.187 40.8898 230.342 40.9955C230.505 41.1013 230.727 41.1541 231.009 41.1541C231.312 41.1541 231.537 41.0872 231.685 40.9532C231.833 40.8193 231.925 40.636 231.96 40.4034C232.002 40.1708 232.024 39.8536 232.024 39.4518V38.8174H233.155V39.4518C233.155 40.3047 232.993 40.9603 232.669 41.4185C232.351 41.8696 231.795 42.0952 230.998 42.0952ZM235.879 42.0846C235.231 42.0846 234.769 41.8943 234.494 41.5136C234.226 41.1259 234.092 40.5655 234.092 39.8324V38.0561C234.092 37.323 234.226 36.7661 234.494 36.3855C234.769 35.9978 235.231 35.8039 235.879 35.8039C236.521 35.8039 236.975 35.9978 237.243 36.3855C237.518 36.7661 237.656 37.323 237.656 38.0561V39.8324C237.656 40.5655 237.518 41.1259 237.243 41.5136C236.975 41.8943 236.521 42.0846 235.879 42.0846ZM235.879 41.2493C236.084 41.2493 236.232 41.1894 236.323 41.0695C236.415 40.9497 236.471 40.8017 236.492 40.6254C236.514 40.4492 236.524 40.2096 236.524 39.9065V37.9927C236.524 37.6896 236.514 37.4499 236.492 37.2737C236.471 37.0904 236.415 36.9388 236.323 36.819C236.232 36.6992 236.084 36.6393 235.879 36.6393C235.675 36.6393 235.523 36.6992 235.425 36.819C235.333 36.9388 235.277 37.0904 235.255 37.2737C235.234 37.4499 235.224 37.6896 235.224 37.9927V39.9065C235.224 40.2096 235.234 40.4492 235.255 40.6254C235.277 40.8017 235.333 40.9497 235.425 41.0695C235.523 41.1894 235.675 41.2493 235.879 41.2493ZM239.567 42.0846C239.236 42.0846 239 41.9648 238.859 41.7251C238.718 41.4854 238.647 41.1894 238.647 40.8369V35.8885H239.779V40.4986C239.779 40.7312 239.814 40.9074 239.884 41.0272C239.955 41.14 240.082 41.1964 240.265 41.1964C240.491 41.1964 240.755 41.0695 241.058 40.8158V35.8885H242.189V42H241.058V41.3973C240.572 41.8555 240.075 42.0846 239.567 42.0846ZM243.378 35.8885H244.51V36.7556C244.721 36.4102 244.936 36.167 245.155 36.026C245.38 35.885 245.616 35.8145 245.863 35.8145C245.926 35.8145 245.986 35.818 246.043 35.8251V37.0728C245.817 36.9882 245.609 36.9459 245.419 36.9459C245.236 36.9459 245.07 36.9917 244.922 37.0833C244.781 37.1679 244.644 37.3195 244.51 37.538V42H243.378V35.8885ZM248.161 42.0846C247.667 42.0846 247.265 41.9295 246.955 41.6194C246.652 41.3092 246.479 40.8933 246.437 40.3717L247.378 40.0862C247.434 40.4809 247.53 40.7735 247.664 40.9638C247.805 41.1541 248.002 41.2493 248.256 41.2493C248.453 41.2493 248.605 41.1929 248.71 41.0801C248.823 40.9603 248.88 40.8017 248.88 40.6043C248.88 40.4281 248.841 40.2695 248.763 40.1285C248.686 39.9875 248.559 39.843 248.383 39.695L247.336 38.7962C247.096 38.5918 246.909 38.3768 246.775 38.1513C246.649 37.9186 246.585 37.6367 246.585 37.3054C246.585 36.8331 246.726 36.4666 247.008 36.2057C247.29 35.9379 247.674 35.8039 248.161 35.8039C248.626 35.8039 248.989 35.9555 249.25 36.2586C249.517 36.5547 249.673 36.9388 249.715 37.4111L248.954 37.6966C248.904 37.3512 248.823 37.0904 248.71 36.9142C248.598 36.7309 248.428 36.6393 248.203 36.6393C248.02 36.6393 247.872 36.6992 247.759 36.819C247.653 36.9388 247.6 37.0869 247.6 37.2631C247.6 37.4887 247.702 37.6931 247.907 37.8763L248.985 38.8703C249.26 39.124 249.472 39.3743 249.62 39.621C249.775 39.8677 249.852 40.1673 249.852 40.5197C249.852 41.0272 249.701 41.4149 249.398 41.6828C249.095 41.9507 248.682 42.0846 248.161 42.0846ZM252.39 42.0846C251.918 42.0846 251.551 41.9965 251.291 41.8203C251.03 41.637 250.846 41.3691 250.741 41.0167C250.635 40.6642 250.582 40.206 250.582 39.6421V38.2464C250.582 37.4005 250.713 36.7838 250.973 36.3961C251.241 36.0013 251.713 35.8039 252.39 35.8039C252.884 35.8039 253.254 35.9062 253.5 36.1106C253.754 36.315 253.92 36.604 253.997 36.9776C254.082 37.3442 254.124 37.8411 254.124 38.4685V38.9654H251.713V40.1919C251.713 40.5655 251.766 40.8369 251.872 41.0061C251.985 41.1682 252.161 41.2493 252.401 41.2493C252.64 41.2493 252.803 41.1682 252.887 41.0061C252.972 40.8369 253.014 40.5832 253.014 40.2448V39.8747H254.114V40.1073C254.114 40.7488 253.976 41.2387 253.701 41.5771C253.426 41.9154 252.989 42.0846 252.39 42.0846ZM253.014 38.3522V37.8023C253.014 37.3864 252.972 37.0904 252.887 36.9142C252.81 36.7309 252.64 36.6393 252.38 36.6393C252.196 36.6393 252.055 36.6815 251.957 36.7661C251.865 36.8507 251.802 36.9917 251.766 37.1891C251.731 37.3794 251.713 37.6578 251.713 38.0244V38.3522H253.014Z" fill="white"/>
<path d="M153.042 13.4355H156.362V14.3237H154.237V17.1574H155.961V18.0032H154.237V21.1435H156.383V22H153.042V13.4355ZM159.494 22.0952C158.649 22.0952 158.053 21.8449 157.708 21.3444C157.362 20.8369 157.189 20.1391 157.189 19.2509V16.2269C157.189 15.2894 157.359 14.5774 157.697 14.091C158.035 13.6047 158.634 13.3615 159.494 13.3615C160.263 13.3615 160.813 13.5694 161.144 13.9853C161.482 14.4012 161.651 15.0145 161.651 15.8251V16.5018H160.52V15.8991C160.52 15.5044 160.502 15.2013 160.467 14.9898C160.432 14.7783 160.34 14.6091 160.192 14.4823C160.051 14.3554 159.822 14.2919 159.505 14.2919C159.181 14.2919 158.938 14.3624 158.775 14.5034C158.62 14.6373 158.518 14.8277 158.469 15.0744C158.419 15.314 158.395 15.6383 158.395 16.0471V19.4412C158.395 19.8783 158.43 20.2201 158.501 20.4668C158.571 20.7136 158.684 20.8898 158.839 20.9955C159.001 21.1013 159.223 21.1541 159.505 21.1541C159.808 21.1541 160.034 21.0872 160.182 20.9532C160.33 20.8193 160.421 20.636 160.457 20.4034C160.499 20.1708 160.52 19.8536 160.52 19.4518V18.8174H161.651V19.4518C161.651 20.3047 161.489 20.9603 161.165 21.4185C160.848 21.8696 160.291 22.0952 159.494 22.0952ZM164.936 22.0952C164.09 22.0952 163.495 21.8449 163.149 21.3444C162.804 20.8369 162.631 20.1391 162.631 19.2509V16.2269C162.631 15.2894 162.8 14.5774 163.139 14.091C163.477 13.6047 164.076 13.3615 164.936 13.3615C165.704 13.3615 166.254 13.5694 166.586 13.9853C166.924 14.4012 167.093 15.0145 167.093 15.8251V16.5018H165.962V15.8991C165.962 15.5044 165.944 15.2013 165.909 14.9898C165.874 14.7783 165.782 14.6091 165.634 14.4823C165.493 14.3554 165.264 14.2919 164.947 14.2919C164.622 14.2919 164.379 14.3624 164.217 14.5034C164.062 14.6373 163.96 14.8277 163.91 15.0744C163.861 15.314 163.836 15.6383 163.836 16.0471V19.4412C163.836 19.8783 163.872 20.2201 163.942 20.4668C164.013 20.7136 164.125 20.8898 164.28 20.9955C164.443 21.1013 164.665 21.1541 164.947 21.1541C165.25 21.1541 165.475 21.0872 165.623 20.9532C165.771 20.8193 165.863 20.636 165.898 20.4034C165.941 20.1708 165.962 19.8536 165.962 19.4518V18.8174H167.093V19.4518C167.093 20.3047 166.931 20.9603 166.607 21.4185C166.289 21.8696 165.733 22.0952 164.936 22.0952ZM172.794 22.0952C171.948 22.0952 171.352 21.8449 171.007 21.3444C170.662 20.8369 170.489 20.1391 170.489 19.2509V16.2269C170.489 15.2894 170.658 14.5774 170.996 14.091C171.335 13.6047 171.934 13.3615 172.794 13.3615C173.562 13.3615 174.112 13.5694 174.443 13.9853C174.782 14.4012 174.951 15.0145 174.951 15.8251V16.5018H173.82V15.8991C173.82 15.5044 173.802 15.2013 173.767 14.9898C173.731 14.7783 173.64 14.6091 173.492 14.4823C173.351 14.3554 173.122 14.2919 172.804 14.2919C172.48 14.2919 172.237 14.3624 172.075 14.5034C171.92 14.6373 171.818 14.8277 171.768 15.0744C171.719 15.314 171.694 15.6383 171.694 16.0471V19.4412C171.694 19.8783 171.729 20.2201 171.8 20.4668C171.87 20.7136 171.983 20.8898 172.138 20.9955C172.3 21.1013 172.522 21.1541 172.804 21.1541C173.108 21.1541 173.333 21.0872 173.481 20.9532C173.629 20.8193 173.721 20.636 173.756 20.4034C173.798 20.1708 173.82 19.8536 173.82 19.4518V18.8174H174.951V19.4518C174.951 20.3047 174.789 20.9603 174.464 21.4185C174.147 21.8696 173.59 22.0952 172.794 22.0952ZM177.675 22.0846C177.027 22.0846 176.565 21.8943 176.29 21.5136C176.022 21.1259 175.888 20.5655 175.888 19.8324V18.0561C175.888 17.323 176.022 16.7661 176.29 16.3855C176.565 15.9978 177.027 15.8039 177.675 15.8039C178.317 15.8039 178.771 15.9978 179.039 16.3855C179.314 16.7661 179.451 17.323 179.451 18.0561V19.8324C179.451 20.5655 179.314 21.1259 179.039 21.5136C178.771 21.8943 178.317 22.0846 177.675 22.0846ZM177.675 21.2493C177.88 21.2493 178.028 21.1894 178.119 21.0695C178.211 20.9497 178.267 20.8017 178.288 20.6254C178.31 20.4492 178.32 20.2096 178.32 19.9065V17.9927C178.32 17.6896 178.31 17.4499 178.288 17.2737C178.267 17.0904 178.211 16.9388 178.119 16.819C178.028 16.6992 177.88 16.6393 177.675 16.6393C177.471 16.6393 177.319 16.6992 177.22 16.819C177.129 16.9388 177.072 17.0904 177.051 17.2737C177.03 17.4499 177.02 17.6896 177.02 17.9927V19.9065C177.02 20.2096 177.03 20.4492 177.051 20.6254C177.072 20.8017 177.129 20.9497 177.22 21.0695C177.319 21.1894 177.471 21.2493 177.675 21.2493ZM180.591 13.4355H181.723V22H180.591V13.4355ZM183.008 13.4355H184.139V22H183.008V13.4355ZM187.01 22.0846C186.537 22.0846 186.171 21.9965 185.91 21.8203C185.649 21.637 185.466 21.3691 185.36 21.0167C185.255 20.6642 185.202 20.206 185.202 19.6421V18.2464C185.202 17.4005 185.332 16.7838 185.593 16.3961C185.861 16.0013 186.333 15.8039 187.01 15.8039C187.503 15.8039 187.873 15.9062 188.12 16.1106C188.374 16.315 188.539 16.604 188.617 16.9776C188.701 17.3442 188.744 17.8411 188.744 18.4685V18.9654H186.333V20.1919C186.333 20.5655 186.386 20.8369 186.492 21.0061C186.604 21.1682 186.781 21.2493 187.02 21.2493C187.26 21.2493 187.422 21.1682 187.507 21.0061C187.591 20.8369 187.634 20.5832 187.634 20.2448V19.8747H188.733V20.1073C188.733 20.7488 188.596 21.2387 188.321 21.5771C188.046 21.9154 187.609 22.0846 187.01 22.0846ZM187.634 18.3522V17.8023C187.634 17.3864 187.591 17.0904 187.507 16.9142C187.429 16.7309 187.26 16.6393 186.999 16.6393C186.816 16.6393 186.675 16.6815 186.576 16.7661C186.485 16.8507 186.421 16.9917 186.386 17.1891C186.351 17.3794 186.333 17.6578 186.333 18.0244V18.3522H187.634ZM191.354 23.8927C190.762 23.8927 190.29 23.7975 189.938 23.6072C189.585 23.4239 189.409 23.1349 189.409 22.7401C189.409 22.4723 189.49 22.2397 189.652 22.0423C189.821 21.8449 190.033 21.6863 190.286 21.5665C190.096 21.5101 189.948 21.422 189.842 21.3022C189.744 21.1823 189.694 21.0519 189.694 20.9109C189.694 20.6995 189.747 20.5162 189.853 20.3611C189.959 20.206 190.131 20.0192 190.371 19.8007C190.131 19.6174 189.952 19.3884 189.832 19.1134C189.719 18.8315 189.663 18.4544 189.663 17.9821C189.663 17.2701 189.807 16.7309 190.096 16.3643C190.392 15.9907 190.822 15.8039 191.386 15.8039C191.71 15.8039 191.975 15.8603 192.179 15.9731C192.384 16.0859 192.539 16.2551 192.644 16.4807C192.694 16.4031 192.796 16.3009 192.951 16.174C193.113 16.0401 193.286 15.9308 193.469 15.8462L193.638 15.7722L193.924 16.5018C193.783 16.53 193.585 16.5899 193.332 16.6815C193.085 16.7732 192.937 16.8437 192.888 16.893C192.937 17.0199 192.979 17.1961 193.014 17.4217C193.057 17.6473 193.078 17.8446 193.078 18.0138C193.078 18.6835 192.947 19.2051 192.687 19.5787C192.426 19.9452 191.992 20.1285 191.386 20.1285C191.196 20.1285 191.002 20.1038 190.805 20.0545C190.671 20.2519 190.604 20.4069 190.604 20.5197C190.604 20.5973 190.642 20.6607 190.72 20.71C190.805 20.7523 190.935 20.7805 191.111 20.7946L192.063 20.8792C192.542 20.9215 192.898 21.066 193.131 21.3127C193.363 21.5594 193.48 21.9119 193.48 22.3701C193.48 23.3851 192.771 23.8927 191.354 23.8927ZM191.386 19.3355C191.689 19.3355 191.887 19.2298 191.978 19.0183C192.07 18.8068 192.116 18.4614 192.116 17.9821C192.116 17.4957 192.07 17.1433 191.978 16.9247C191.887 16.6992 191.693 16.5864 191.397 16.5864C191.101 16.5864 190.9 16.6992 190.794 16.9247C190.695 17.1433 190.646 17.4957 190.646 17.9821C190.646 18.4191 190.695 18.7539 190.794 18.9866C190.9 19.2192 191.097 19.3355 191.386 19.3355ZM191.439 23.0045C191.841 23.0045 192.137 22.9551 192.327 22.8565C192.517 22.7648 192.613 22.6133 192.613 22.4018C192.613 22.2044 192.553 22.0599 192.433 21.9683C192.313 21.8696 192.094 21.8062 191.777 21.778L190.815 21.6934C190.667 21.8414 190.554 21.9718 190.477 22.0846C190.399 22.1974 190.36 22.3207 190.36 22.4547C190.36 22.645 190.438 22.7824 190.593 22.867C190.755 22.9587 191.037 23.0045 191.439 23.0045ZM196.014 22.0846C195.541 22.0846 195.175 21.9965 194.914 21.8203C194.653 21.637 194.47 21.3691 194.364 21.0167C194.259 20.6642 194.206 20.206 194.206 19.6421V18.2464C194.206 17.4005 194.336 16.7838 194.597 16.3961C194.865 16.0013 195.337 15.8039 196.014 15.8039C196.507 15.8039 196.877 15.9062 197.124 16.1106C197.378 16.315 197.543 16.604 197.621 16.9776C197.705 17.3442 197.748 17.8411 197.748 18.4685V18.9654H195.337V20.1919C195.337 20.5655 195.39 20.8369 195.496 21.0061C195.608 21.1682 195.785 21.2493 196.024 21.2493C196.264 21.2493 196.426 21.1682 196.511 21.0061C196.595 20.8369 196.638 20.5832 196.638 20.2448V19.8747H197.737V20.1073C197.737 20.7488 197.6 21.2387 197.325 21.5771C197.05 21.9154 196.613 22.0846 196.014 22.0846ZM196.638 18.3522V17.8023C196.638 17.3864 196.595 17.0904 196.511 16.9142C196.433 16.7309 196.264 16.6393 196.003 16.6393C195.82 16.6393 195.679 16.6815 195.58 16.7661C195.489 16.8507 195.425 16.9917 195.39 17.1891C195.355 17.3794 195.337 17.6578 195.337 18.0244V18.3522H196.638ZM202.87 22.0846C202.221 22.0846 201.759 21.8943 201.485 21.5136C201.217 21.1259 201.083 20.5655 201.083 19.8324V18.0561C201.083 17.323 201.217 16.7661 201.485 16.3855C201.759 15.9978 202.221 15.8039 202.87 15.8039C203.511 15.8039 203.966 15.9978 204.234 16.3855C204.509 16.7661 204.646 17.323 204.646 18.0561V19.8324C204.646 20.5655 204.509 21.1259 204.234 21.5136C203.966 21.8943 203.511 22.0846 202.87 22.0846ZM202.87 21.2493C203.074 21.2493 203.222 21.1894 203.314 21.0695C203.405 20.9497 203.462 20.8017 203.483 20.6254C203.504 20.4492 203.515 20.2096 203.515 19.9065V17.9927C203.515 17.6896 203.504 17.4499 203.483 17.2737C203.462 17.0904 203.405 16.9388 203.314 16.819C203.222 16.6992 203.074 16.6393 202.87 16.6393C202.665 16.6393 202.514 16.6992 202.415 16.819C202.323 16.9388 202.267 17.0904 202.246 17.2737C202.225 17.4499 202.214 17.6896 202.214 17.9927V19.9065C202.214 20.2096 202.225 20.4492 202.246 20.6254C202.267 20.8017 202.323 20.9497 202.415 21.0695C202.514 21.1894 202.665 21.2493 202.87 21.2493ZM206.04 16.7238H205.31V15.8885H206.04V15.5713C206.04 15.1484 206.071 14.81 206.135 14.5563C206.198 14.2955 206.325 14.0946 206.515 13.9536C206.713 13.8126 206.995 13.7421 207.361 13.7421C207.608 13.7421 207.855 13.7668 208.101 13.8161V14.6409C207.961 14.6056 207.82 14.588 207.679 14.588C207.474 14.588 207.337 14.655 207.266 14.7889C207.203 14.9158 207.171 15.1131 207.171 15.381V15.8885H208.101V16.7238H207.171V22H206.04V16.7238ZM211.227 13.4355H213.194C213.969 13.4355 214.544 13.6117 214.917 13.9642C215.291 14.3096 215.478 14.8488 215.478 15.5819C215.478 16.6745 215.069 17.2772 214.251 17.39C214.759 17.5098 215.129 17.7495 215.361 18.109C215.594 18.4614 215.71 18.9443 215.71 19.5575C215.71 20.3259 215.527 20.925 215.161 21.355C214.801 21.785 214.251 22 213.511 22H211.227V13.4355ZM213.13 17.0093C213.624 17.0093 213.966 16.9036 214.156 16.6921C214.346 16.4736 214.442 16.1035 214.442 15.5819C214.442 15.2013 214.382 14.9228 214.262 14.7466C214.149 14.5633 213.976 14.447 213.744 14.3977C213.511 14.3483 213.166 14.3237 212.708 14.3237H212.422V17.0093H213.13ZM213.226 21.1435C213.578 21.1435 213.849 21.0907 214.04 20.9849C214.237 20.8722 214.375 20.703 214.452 20.4774C214.53 20.2519 214.568 19.9452 214.568 19.5575C214.568 19.0077 214.456 18.5989 214.23 18.331C214.005 18.0561 213.638 17.9186 213.13 17.9186H212.422V21.1435H213.226ZM218.369 22.0846C217.896 22.0846 217.53 21.9965 217.269 21.8203C217.008 21.637 216.825 21.3691 216.719 21.0167C216.614 20.6642 216.561 20.206 216.561 19.6421V18.2464C216.561 17.4005 216.691 16.7838 216.952 16.3961C217.22 16.0013 217.692 15.8039 218.369 15.8039C218.862 15.8039 219.232 15.9062 219.479 16.1106C219.733 16.315 219.898 16.604 219.976 16.9776C220.06 17.3442 220.103 17.8411 220.103 18.4685V18.9654H217.692V20.1919C217.692 20.5655 217.745 20.8369 217.851 21.0061C217.963 21.1682 218.14 21.2493 218.379 21.2493C218.619 21.2493 218.781 21.1682 218.866 21.0061C218.95 20.8369 218.993 20.5832 218.993 20.2448V19.8747H220.092V20.1073C220.092 20.7488 219.955 21.2387 219.68 21.5771C219.405 21.9154 218.968 22.0846 218.369 22.0846ZM218.993 18.3522V17.8023C218.993 17.3864 218.95 17.0904 218.866 16.9142C218.788 16.7309 218.619 16.6393 218.358 16.6393C218.175 16.6393 218.034 16.6815 217.935 16.7661C217.844 16.8507 217.78 16.9917 217.745 17.1891C217.71 17.3794 217.692 17.6578 217.692 18.0244V18.3522H218.993ZM222.227 22.0846C221.994 22.0846 221.783 22.0176 221.593 21.8837C221.409 21.7498 221.265 21.5735 221.159 21.355C221.053 21.1365 221 20.9074 221 20.6677C221 20.1884 221.103 19.8007 221.307 19.5047C221.512 19.2016 221.772 18.9619 222.09 18.7857C222.407 18.6094 222.847 18.4085 223.411 18.183V17.7495C223.411 17.3477 223.369 17.0657 223.284 16.9036C223.207 16.7344 223.045 16.6498 222.798 16.6498C222.368 16.6498 222.153 16.9388 222.153 17.5169V17.8235L221.032 17.7812C221.046 17.1045 221.201 16.6075 221.497 16.2903C221.793 15.9661 222.252 15.8039 222.872 15.8039C223.457 15.8039 223.88 15.9661 224.141 16.2903C224.409 16.6075 224.543 17.0904 224.543 17.7389V20.5303C224.543 20.9885 224.578 21.4784 224.648 22H223.612C223.535 21.5982 223.485 21.2986 223.464 21.1013C223.379 21.3762 223.231 21.6088 223.02 21.7991C222.816 21.9894 222.551 22.0846 222.227 22.0846ZM222.671 21.1118C222.819 21.1118 222.964 21.0554 223.105 20.9427C223.246 20.8228 223.348 20.71 223.411 20.6043V18.8703C223.108 19.0394 222.872 19.1875 222.703 19.3143C222.541 19.4342 222.403 19.5752 222.29 19.7373C222.185 19.8994 222.132 20.0933 222.132 20.3188C222.132 20.5726 222.178 20.77 222.269 20.9109C222.361 21.0449 222.495 21.1118 222.671 21.1118ZM226.507 22.0846C226.176 22.0846 225.939 21.9648 225.798 21.7251C225.658 21.4854 225.587 21.1894 225.587 20.8369V15.8885H226.718V20.4986C226.718 20.7312 226.754 20.9074 226.824 21.0272C226.895 21.14 227.021 21.1964 227.205 21.1964C227.43 21.1964 227.695 21.0695 227.998 20.8158V15.8885H229.129V22H227.998V21.3973C227.511 21.8555 227.014 22.0846 226.507 22.0846ZM231.915 22.0846C231.033 22.0846 230.593 21.5982 230.593 20.6254V16.6393H229.948V15.8885H230.593V14.1016H231.724V15.8885H232.708V16.6393H231.724V20.5514C231.724 20.7981 231.763 20.9708 231.84 21.0695C231.918 21.1682 232.066 21.2176 232.285 21.2176C232.426 21.2176 232.563 21.207 232.697 21.1858V22.0211C232.415 22.0634 232.154 22.0846 231.915 22.0846ZM233.444 22.6661C233.867 22.6661 234.156 22.6344 234.311 22.571C234.473 22.5075 234.554 22.3877 234.554 22.2115C234.554 22.1269 234.476 21.7533 234.321 21.0907L233.095 15.8885H234.237L235.061 20.4563L235.854 15.8885H236.996L235.537 22.3384C235.438 22.7683 235.231 23.075 234.913 23.2582C234.596 23.4415 234.152 23.5332 233.581 23.5332H233.444V22.6661ZM241.988 22.0952C241.41 22.0952 240.956 21.9189 240.624 21.5665C240.3 21.207 240.138 20.7418 240.138 20.1708C240.138 19.6703 240.247 19.2227 240.466 18.828C240.691 18.4262 240.998 18.049 241.386 17.6966L241.153 17.2631C240.927 16.8542 240.755 16.5018 240.635 16.2057C240.515 15.9026 240.455 15.5854 240.455 15.2541C240.455 14.6832 240.617 14.225 240.941 13.8796C241.273 13.5342 241.72 13.3615 242.284 13.3615C242.813 13.3615 243.246 13.506 243.585 13.795C243.93 14.0769 244.103 14.4611 244.103 14.9475C244.103 15.448 243.948 15.9308 243.638 16.3961C243.335 16.8542 242.954 17.3054 242.496 17.7495L243.786 19.7796C243.99 19.3848 244.131 18.8139 244.209 18.0667H245.329C245.329 18.4614 245.245 18.8879 245.076 19.3461C244.914 19.7972 244.723 20.1778 244.505 20.488C244.603 20.6149 244.727 20.7206 244.875 20.8052C245.023 20.8827 245.178 20.9215 245.34 20.9215V22.0846H245.192C245.002 22.0846 244.825 22.0423 244.663 21.9577C244.508 21.8731 244.381 21.7885 244.283 21.7039C244.184 21.6123 244.032 21.4643 243.828 21.2599C243.624 21.5136 243.366 21.718 243.056 21.8731C242.746 22.0211 242.39 22.0952 241.988 22.0952ZM242.105 17.1362C242.344 16.8542 242.549 16.5124 242.718 16.1106C242.887 15.7088 242.972 15.3211 242.972 14.9475C242.972 14.7431 242.908 14.5845 242.781 14.4717C242.661 14.3519 242.496 14.2919 242.284 14.2919C242.045 14.2919 241.868 14.3871 241.756 14.5774C241.643 14.7607 241.586 14.9863 241.586 15.2541C241.586 15.5502 241.632 15.8498 241.724 16.1529C241.816 16.4489 241.942 16.7767 242.105 17.1362ZM241.988 21.1541C242.418 21.1541 242.802 20.9427 243.141 20.5197L241.83 18.5002C241.66 18.7187 241.523 18.976 241.417 19.272C241.319 19.5681 241.269 19.8677 241.269 20.1708C241.269 20.4527 241.326 20.6889 241.438 20.8792C241.551 21.0625 241.734 21.1541 241.988 21.1541ZM251.039 22.0952C250.32 22.0952 249.77 21.8731 249.389 21.429C249.016 20.9849 248.808 20.3752 248.765 19.5998L249.823 19.3143C249.858 19.8642 249.964 20.3082 250.14 20.6466C250.323 20.9849 250.623 21.1541 251.039 21.1541C251.349 21.1541 251.581 21.0695 251.737 20.9004C251.899 20.7241 251.98 20.4739 251.98 20.1496C251.98 19.7972 251.906 19.5047 251.758 19.272C251.61 19.0394 251.374 18.7821 251.049 18.5002L249.611 17.2314C249.322 16.9776 249.111 16.7062 248.977 16.4172C248.85 16.1212 248.787 15.7617 248.787 15.3387C248.787 14.7114 248.966 14.225 249.326 13.8796C249.685 13.5342 250.175 13.3615 250.795 13.3615C251.472 13.3615 251.983 13.5412 252.329 13.9007C252.674 14.2602 252.882 14.8171 252.952 15.5713L251.937 15.8462C251.902 15.3458 251.803 14.9616 251.641 14.6937C251.486 14.4188 251.204 14.2814 250.795 14.2814C250.492 14.2814 250.26 14.3624 250.098 14.5246C249.936 14.6796 249.854 14.9123 249.854 15.2224C249.854 15.4762 249.897 15.6912 249.981 15.8674C250.066 16.0366 250.21 16.2093 250.415 16.3855L251.863 17.6543C252.237 17.9856 252.533 18.3451 252.752 18.7328C252.977 19.1205 253.09 19.5611 253.09 20.0545C253.09 20.6818 252.9 21.1788 252.519 21.5453C252.138 21.9119 251.645 22.0952 251.039 22.0952ZM255.55 22.0846C254.669 22.0846 254.228 21.5982 254.228 20.6254V16.6393H253.583V15.8885H254.228V14.1016H255.36V15.8885H256.343V16.6393H255.36V20.5514C255.36 20.7981 255.398 20.9708 255.476 21.0695C255.553 21.1682 255.701 21.2176 255.92 21.2176C256.061 21.2176 256.198 21.207 256.332 21.1858V22.0211C256.05 22.0634 255.79 22.0846 255.55 22.0846ZM257.079 22.6661C257.502 22.6661 257.791 22.6344 257.946 22.571C258.108 22.5075 258.189 22.3877 258.189 22.2115C258.189 22.1269 258.112 21.7533 257.957 21.0907L256.73 15.8885H257.872L258.697 20.4563L259.49 15.8885H260.632L259.173 22.3384C259.074 22.7683 258.866 23.075 258.549 23.2582C258.232 23.4415 257.787 23.5332 257.216 23.5332H257.079V22.6661ZM261.421 13.4355H262.552V22H261.421V13.4355ZM265.423 22.0846C264.95 22.0846 264.584 21.9965 264.323 21.8203C264.062 21.637 263.879 21.3691 263.773 21.0167C263.668 20.6642 263.615 20.206 263.615 19.6421V18.2464C263.615 17.4005 263.745 16.7838 264.006 16.3961C264.274 16.0013 264.746 15.8039 265.423 15.8039C265.916 15.8039 266.286 15.9062 266.533 16.1106C266.787 16.315 266.952 16.604 267.03 16.9776C267.114 17.3442 267.157 17.8411 267.157 18.4685V18.9654H264.746V20.1919C264.746 20.5655 264.799 20.8369 264.905 21.0061C265.017 21.1682 265.194 21.2493 265.433 21.2493C265.673 21.2493 265.835 21.1682 265.92 21.0061C266.004 20.8369 266.047 20.5832 266.047 20.2448V19.8747H267.146V20.1073C267.146 20.7488 267.009 21.2387 266.734 21.5771C266.459 21.9154 266.022 22.0846 265.423 22.0846ZM266.047 18.3522V17.8023C266.047 17.3864 266.004 17.0904 265.92 16.9142C265.842 16.7309 265.673 16.6393 265.412 16.6393C265.229 16.6393 265.088 16.6815 264.989 16.7661C264.898 16.8507 264.834 16.9917 264.799 17.1891C264.764 17.3794 264.746 17.6578 264.746 18.0244V18.3522H266.047Z" fill="white"/>
<path d="M87.8898 30.9219H92.4015C94.5499 30.9219 96.1417 30.3848 97.1769 29.3105C98.212 28.2363 98.7296 26.8105 98.7296 25.0332C98.7296 23.3145 98.212 21.9766 97.1769 21.0195C96.1613 20.0625 94.755 19.584 92.9581 19.584C91.337 19.584 89.9796 20.0332 88.8859 20.9316C87.7921 21.8105 87.2452 22.9629 87.2452 24.3887H78.7784C78.7784 22.1621 79.3741 20.1699 80.5656 18.4121C81.7765 16.6348 83.4562 15.248 85.6046 14.252C87.7726 13.2559 90.1554 12.7578 92.7531 12.7578C97.2648 12.7578 100.8 13.8418 103.359 16.0098C105.917 18.1582 107.196 21.127 107.196 24.916C107.196 26.8691 106.601 28.666 105.409 30.3066C104.218 31.9473 102.655 33.207 100.722 34.0859C103.124 34.9453 104.911 36.2344 106.083 37.9531C107.275 39.6719 107.87 41.7031 107.87 44.0469C107.87 47.8359 106.484 50.873 103.71 53.1582C100.956 55.4434 97.3038 56.5859 92.7531 56.5859C88.4952 56.5859 85.0089 55.4629 82.2941 53.2168C79.5988 50.9707 78.2511 48.002 78.2511 44.3105H86.7179C86.7179 45.9121 87.3136 47.2207 88.505 48.2363C89.7159 49.252 91.2003 49.7598 92.9581 49.7598C94.9698 49.7598 96.5421 49.2324 97.6749 48.1777C98.8273 47.1035 99.4034 45.6875 99.4034 43.9297C99.4034 39.6719 97.0597 37.543 92.3722 37.543H87.8898V30.9219ZM142.441 38.3633C142.441 44.2617 141.22 48.7734 138.778 51.8984C136.337 55.0234 132.763 56.5859 128.056 56.5859C123.407 56.5859 119.853 55.0527 117.392 51.9863C114.931 48.9199 113.671 44.5254 113.612 38.8027V30.9512C113.612 24.9941 114.843 20.4727 117.304 17.3867C119.784 14.3008 123.349 12.7578 127.997 12.7578C132.646 12.7578 136.2 14.291 138.661 17.3574C141.122 20.4043 142.382 24.7891 142.441 30.5117V38.3633ZM133.974 29.75C133.974 26.2148 133.485 23.6465 132.509 22.0449C131.552 20.4238 130.048 19.6133 127.997 19.6133C126.005 19.6133 124.53 20.3848 123.573 21.9277C122.636 23.4512 122.138 25.8438 122.079 29.1055V39.4766C122.079 42.9531 122.548 45.541 123.485 47.2402C124.443 48.9199 125.966 49.7598 128.056 49.7598C130.126 49.7598 131.62 48.9492 132.538 47.3281C133.456 45.707 133.935 43.2266 133.974 39.8867V29.75Z" fill="white"/>
</svg>
