<svg xmlns="http://www.w3.org/2000/svg" viewBox="0 0 222.41272 34.60278"><defs><style>.a{fill:#fff;}</style></defs><path class="a" d="M8.10107,15.16406,5.42944,9.3252H3.01636v5.83886H0V.29761H5.32178c3.42553,0,5.55859,1.52978,5.55859,4.54614A3.96647,3.96647,0,0,1,8.33813,8.82983l3.08106,6.33423ZM5.04175,6.783C6.82983,6.783,7.864,6.395,7.864,4.84375S6.82983,2.86157,5.04175,2.86157H3.01636V6.783Z"/><path class="a" d="M22.66187.29761v2.564h-6.2483v3.3396h5.60181V8.74341H16.41357v3.87842h6.2483v2.54223H13.39722V.29761Z"/><path class="a" d="M24.16626,15.16406,29.33716.29761h2.88721l5.17089,14.86645H34.18481L33.28,12.34155H28.303l-.90479,2.82251ZM29.1001,9.79932h3.36108l-1.68042-5.2356Z"/><path class="a" d="M42.34644,12.62183h6.248v2.54223h-9.2644V.29761h3.01636Z"/><path class="a" d="M9.2644,19.10327v2.564h-6.248v3.3396h5.6018v2.54223H3.01636v3.87842h6.248v2.54224H0V19.10327Z"/><path class="a" d="M19.25806,23.71411a2.46838,2.46838,0,0,0-2.56372-2.26221c-1.74537,0-2.67163,1.18506-2.67163,4.02881v2.11158c0,2.75781.92626,4.02905,2.67163,4.02905,1.50805,0,2.24072-.75415,2.56372-2.26221h2.86572c-.49561,3.33936-2.37012,4.80444-5.42944,4.80444-3.3396,0-5.688-2.02514-5.688-6.57128V25.48071c0-4.58911,2.34839-6.57129,5.688-6.57129,2.95166,0,4.95532,1.55127,5.45092,4.80469Z"/><path class="a" d="M32.05249,23.71411a2.46876,2.46876,0,0,0-2.564-2.26221c-1.74512,0-2.67164,1.18506-2.67164,4.02881v2.11158c0,2.75781.92652,4.02905,2.67164,4.02905,1.50805,0,2.24072-.75415,2.564-2.26221H34.918c-.49561,3.33936-2.37012,4.80444-5.42944,4.80444-3.3396,0-5.688-2.02514-5.688-6.57128V25.48071c0-4.58911,2.34839-6.57129,5.688-6.57129,2.95166,0,4.95532,1.55127,5.45092,4.80469Z"/><path class="a" d="M58.69092,13.88013h2.24292a3.91285,3.91285,0,0,0,4.22168-4.30078,3.70176,3.70176,0,0,0-3.782-3.90992,3.75965,3.75965,0,0,0-3.782,3.6167H52.13867a9.56888,9.56888,0,0,1,19.1294,0A8.3515,8.3515,0,0,1,67.13428,16.666a8.72469,8.72469,0,0,1,4.57348,8.0642c0,5.47388-3.43017,9.87256-9.67456,9.87256-6.42065,0-10.07055-4.00781-10.29028-9.48169h5.40894a4.124,4.124,0,0,0,4.48559,3.7146c2.46265,0,3.95776-1.95507,3.95776-4.44775,0-2.9812-1.5393-4.74072-4.66137-4.74072H58.69092Z"/><path class="a" d="M95.325,23.85034c0,7.57569-4.74951,10.75244-10.20239,10.75244-5.45313,0-10.20239-3.17675-10.20239-10.75244V10.7522C74.92017,2.83472,79.66943,0,85.12256,0,90.57544,0,95.325,2.83472,95.325,10.70337ZM85.12256,5.76709c-2.77051,0-4.08985,1.95508-4.08985,5.57153v11.9253c0,3.6167,1.31934,5.57177,4.08985,5.57177,2.72632,0,4.04565-1.95507,4.04565-5.57177V11.33862C89.16821,7.72217,87.84888,5.76709,85.12256,5.76709Z"/><path class="a" d="M37.54419,28.74951l1.21875,3.74536,1.219-3.74536H41.2168l-1.93726,5.56958H38.25439l-1.94531-5.56958Z"/><path class="a" d="M44.71509,32.53516a1.747,1.747,0,1,1-3.48706,0v-.48438a1.74608,1.74608,0,1,1,3.48706,0Zm-1.02515-.03223v-.41968c0-.64575-.20972-1.001-.71826-1.001s-.71851.35522-.71851,1.001v.41968c0,.581.14527,1.01709.71851,1.01709C43.53662,33.52,43.68994,33.084,43.68994,32.50293Z"/><path class="a" d="M45.40356,28.74951h1.03321v4.044c0,.436.12915.63769.56518.63769v.88794c-1.08984,0-1.59839-.28247-1.59839-1.2915Z"/><path class="a" d="M49.03735,34.31909h-1.259V33.05981h1.259Z"/><path class="a" d="M100.53455,23.08113V14.981h.77v3.59009h2.55V14.981h.76v8.1001h-.76V19.14119h-2.55v3.93994Z"/><path class="a" d="M108.26465,23.17122a1.06793,1.06793,0,0,1-.61011-.17505,1.18372,1.18372,0,0,1-.40491-.47,1.43982,1.43982,0,0,1-.145-.645,2.00406,2.00406,0,0,1,.125-.75,1.48293,1.48293,0,0,1,.4-.55493,3.63644,3.63644,0,0,1,.72-.48023q.44477-.23473,1.085-.5249v-.40991a4.21126,4.21126,0,0,0-.06494-.835.7564.7564,0,0,0-.22009-.43506.658.658,0,0,0-.43494-.13013.90354.90354,0,0,0-.41.09009.66227.66227,0,0,0-.28992.30493,1.32312,1.32312,0,0,0-.11011.595v.2002l-.72-.01a2.00377,2.00377,0,0,1,.375-1.30518,1.49807,1.49807,0,0,1,1.19507-.425,1.22574,1.22574,0,0,1,1.095.46509,2.618,2.618,0,0,1,.31494,1.44507v2.81006q0,.14977.01.385.00989.23473.02.44482.00988.21021.02.32007h-.65q-.02014-.18969-.05994-.42505-.0401-.23473-.05-.375a1.4524,1.4524,0,0,1-.425.62012A1.11214,1.11214,0,0,1,108.26465,23.17122Zm.23-.62012a.75287.75287,0,0,0,.3999-.10986,1.44341,1.44341,0,0,0,.32007-.26514,1.4269,1.4269,0,0,0,.22-.31494V20.06111q-.43011.2201-.735.3999a3.14208,3.14208,0,0,0-.495.3501,1.07067,1.07067,0,0,0-.28.385,1.304,1.304,0,0,0-.09.50513.88894.88894,0,0,0,.2.65478A.63957.63957,0,0,0,108.49463,22.5511Z"/><path class="a" d="M112.69446,16.50105v-.99h.73v.99Zm0,6.58008v-5.78h.73v5.78Z"/><path class="a" d="M116.08435,23.08113v-5.78h.74v.79a1.75236,1.75236,0,0,1,.64-.655,1.45149,1.45149,0,0,1,.69006-.19507h.05994a.29861.29861,0,0,1,.07006.01v.78a.69926.69926,0,0,0-.17-.04492,1.28352,1.28352,0,0,0-.19006-.01514,1.20019,1.20019,0,0,0-.615.16016,1.40717,1.40717,0,0,0-.485.51v4.43994Z"/><path class="a" d="M123.88428,23.08113l.2-8.1001h.76l1.6,7.03,1.63-7.03h.76l.20007,8.1001h-.63l-.16-6.45-1.55,6.45h-.49l-1.5299-6.43994-.16,6.43994Z"/><path class="a" d="M132.61426,23.17122a1.06793,1.06793,0,0,1-.61011-.17505,1.18372,1.18372,0,0,1-.40491-.47,1.43982,1.43982,0,0,1-.145-.645,2.00406,2.00406,0,0,1,.125-.75,1.48293,1.48293,0,0,1,.4-.55493,3.63644,3.63644,0,0,1,.72-.48023q.44477-.23473,1.085-.5249v-.40991a4.21126,4.21126,0,0,0-.06494-.835.7564.7564,0,0,0-.22009-.43506.658.658,0,0,0-.43494-.13013.90361.90361,0,0,0-.41.09009.6623.6623,0,0,0-.28991.30493,1.32312,1.32312,0,0,0-.11011.595v.2002l-.72-.01a2.00377,2.00377,0,0,1,.375-1.30518,1.49807,1.49807,0,0,1,1.19507-.425,1.22574,1.22574,0,0,1,1.095.46509,2.618,2.618,0,0,1,.31494,1.44507v2.81006q0,.14977.01.385.00988.23473.02.44482.00989.21021.02.32007h-.65q-.02013-.18969-.05993-.42505-.04011-.23473-.05-.375a1.4524,1.4524,0,0,1-.425.62012A1.11214,1.11214,0,0,1,132.61426,23.17122Zm.23-.62012a.75287.75287,0,0,0,.3999-.10986,1.44341,1.44341,0,0,0,.32007-.26514,1.4269,1.4269,0,0,0,.22-.31494V20.06111q-.43011.2201-.735.3999a3.14208,3.14208,0,0,0-.495.3501,1.07067,1.07067,0,0,0-.28.385,1.304,1.304,0,0,0-.09.50513.88894.88894,0,0,0,.2.65478A.63957.63957,0,0,0,132.84424,22.5511Z"/><path class="a" d="M136.974,23.08113V14.981h.7301v5.14014L139.634,17.3011h.77l-1.46,2.23,1.3999,3.55005h-.74l-1.22-3.13989-.67993.95v2.18994Z"/><path class="a" d="M143.79407,23.17122a1.64966,1.64966,0,0,1-.885-.21509,1.26842,1.26842,0,0,1-.51-.71509,4.36071,4.36071,0,0,1-.165-1.32983v-1.46a4.21675,4.21675,0,0,1,.17-1.34522,1.2292,1.2292,0,0,1,.52-.68994,1.72054,1.72054,0,0,1,.88-.20508,1.44641,1.44641,0,0,1,.92993.26,1.38779,1.38779,0,0,1,.44507.78516,5.96922,5.96922,0,0,1,.125,1.345v.52h-2.34v1.01a3.6406,3.6406,0,0,0,.085.885.81887.81887,0,0,0,.27.46484.76405.76405,0,0,0,.475.14014.92567.92567,0,0,0,.4-.085.60537.60537,0,0,0,.28491-.33008,1.8208,1.8208,0,0,0,.10511-.69507v-.3999h.71v.32007a2.20389,2.20389,0,0,1-.325,1.26489A1.32421,1.32421,0,0,1,143.79407,23.17122Zm-.83-3.47h1.62V19.221a5.26411,5.26411,0,0,0-.05-.78491.914.914,0,0,0-.215-.5.69341.69341,0,0,0-.525-.175.82631.82631,0,0,0-.485.13013.75682.75682,0,0,0-.265.46484,4.35162,4.35162,0,0,0-.08.95508Z"/><path class="a" d="M148.52405,23.17122a.79218.79218,0,0,1-.49-.15015.9303.9303,0,0,1-.30506-.41992,1.82761,1.82761,0,0,1-.105-.65991V17.3011h.74v4.48a1.09,1.09,0,0,0,.135.63013.48534.48534,0,0,0,.415.17993,1.0099,1.0099,0,0,0,.5249-.15991,2.26659,2.26659,0,0,0,.495-.41016v-4.72h.7301v5.78h-.7301v-.63989a2.46481,2.46481,0,0,1-.63989.5249A1.53392,1.53392,0,0,1,148.52405,23.17122Z"/><path class="a" d="M153.174,24.981V17.3011h.73v.48a1.93963,1.93963,0,0,1,.45-.395,1.1901,1.1901,0,0,1,.66-.175,1.08265,1.08265,0,0,1,.67492.19507,1.26763,1.26763,0,0,1,.395.52515,2.74132,2.74132,0,0,1,.19007.74,6.96382,6.96382,0,0,1,.04992.83984v1.22a6.03281,6.03281,0,0,1-.12,1.28516,1.68084,1.68084,0,0,1-.42493.84985,1.14126,1.14126,0,0,1-.84509.30518,1.02114,1.02114,0,0,1-.605-.18018,2.49972,2.49972,0,0,1-.42493-.36987V24.981Zm1.6499-2.38989a.59109.59109,0,0,0,.495-.21,1.2834,1.2834,0,0,0,.22009-.625,7.8372,7.8372,0,0,0,.05493-1.00513v-1.24a6.86087,6.86087,0,0,0-.05493-.94482,1.1433,1.1433,0,0,0-.2251-.58521.63247.63247,0,0,0-.51-.2.93683.93683,0,0,0-.51489.15015,2.27185,2.27185,0,0,0-.385.2998v3.94019a1.50641,1.50641,0,0,0,.395.29492A1.09736,1.09736,0,0,0,154.82385,22.59114Z"/><path class="a" d="M161.85376,23.08113l1.71-8.1001h.8l1.72,8.1001h-.75l-.4-2.16992h-1.92994l-.41,2.16992Zm1.26-2.72h1.72l-.86-4.37012Z"/><path class="a" d="M168.34351,23.08113v-5.78h.74v.79a1.75227,1.75227,0,0,1,.64-.655,1.45149,1.45149,0,0,1,.69006-.19507h.05994a.29869.29869,0,0,1,.07007.01v.78a.69938.69938,0,0,0-.17-.04492,1.28376,1.28376,0,0,0-.19007-.01514,1.20022,1.20022,0,0,0-.615.16016,1.40707,1.40707,0,0,0-.485.51v4.43994Z"/><path class="a" d="M174.01355,23.1512a1.07912,1.07912,0,0,1-.645-.165.83724.83724,0,0,1-.31006-.45,2.298,2.298,0,0,1-.085-.655v-4.1001h-.71v-.48h.71v-1.79h.73v1.79h.96v.48h-.96v4.03a1.33873,1.33873,0,0,0,.095.595q.095.17505.415.17505a1.59989,1.59989,0,0,0,.205-.01489q.115-.015.21508-.03516v.56006a3.02131,3.02131,0,0,1-.31005.04492Q174.16346,23.15108,174.01355,23.1512Z"/><path class="a" d="M176.90356,16.50105v-.99h.73v.99Zm0,6.58008v-5.78h.73v5.78Z"/><path class="a" d="M181.56348,23.17122a1.42312,1.42312,0,0,1-1.1-.44507,1.93229,1.93229,0,0,1-.47-1.19507l.61-.18994a1.795,1.795,0,0,0,.30993.9751.85453.85453,0,0,0,.70008.30493.76949.76949,0,0,0,.585-.21509.842.842,0,0,0,.20495-.605,1.09721,1.09721,0,0,0-.16992-.56494,2.53288,2.53288,0,0,0-.53-.595l-.79-.68018a2.76858,2.76858,0,0,1-.59-.65991,1.49435,1.49435,0,0,1-.20008-.79,1.32315,1.32315,0,0,1,.175-.70483,1.16976,1.16976,0,0,1,.485-.44019,1.59017,1.59017,0,0,1,.72-.155,1.20468,1.20468,0,0,1,1,.425,1.8364,1.8364,0,0,1,.37,1.095l-.51989.17017a2.08521,2.08521,0,0,0-.12-.645.78423.78423,0,0,0-.275-.375.73313.73313,0,0,0-.425-.12012.76828.76828,0,0,0-.535.18506.65816.65816,0,0,0-.20495.51489,1.01557,1.01557,0,0,0,.1.46021,1.6893,1.6893,0,0,0,.37.44995l.82007.73a5.8491,5.8491,0,0,1,.46.45,2.15723,2.15723,0,0,1,.36.53491,1.60813,1.60813,0,0,1,.14.69507,1.43288,1.43288,0,0,1-.18494.75513,1.23518,1.23518,0,0,1-.515.47A1.72714,1.72714,0,0,1,181.56348,23.17122Z"/><path class="a" d="M186.62341,23.1512a1.07914,1.07914,0,0,1-.645-.165.83729.83729,0,0,1-.31006-.45,2.298,2.298,0,0,1-.085-.655v-4.1001h-.71v-.48h.71v-1.79h.73v1.79h.96v.48h-.96v4.03a1.33855,1.33855,0,0,0,.095.595q.095.17505.415.17505a1.59989,1.59989,0,0,0,.205-.01489q.115-.015.21509-.03516v.56006a3.02151,3.02151,0,0,1-.31006.04492Q186.77332,23.15108,186.62341,23.1512Z"/><path class="a" d="M194.88318,23.18123a2.04683,2.04683,0,0,1-1.265-.34009,1.73443,1.73443,0,0,1-.615-.915,4.48463,4.48463,0,0,1-.16992-1.2749v-3.22a4.50531,4.50531,0,0,1,.17493-1.32007,1.65008,1.65008,0,0,1,.625-.89014,2.12861,2.12861,0,0,1,1.25-.31982,2.02632,2.02632,0,0,1,1.145.28,1.53884,1.53884,0,0,1,.595.79492,3.72359,3.72359,0,0,1,.18005,1.2251v.49h-.72V17.221a4.22514,4.22514,0,0,0-.08508-.90991,1.01489,1.01489,0,0,0-.345-.59009,1.1879,1.1879,0,0,0-.76-.21,1.28079,1.28079,0,0,0-.825.2251,1.11292,1.11292,0,0,0-.37.635,4.22955,4.22955,0,0,0-.095.95v3.45a3.6758,3.6758,0,0,0,.115,1,1.0683,1.0683,0,0,0,.3949.6001,1.32372,1.32372,0,0,0,.78.2,1.14476,1.14476,0,0,0,.765-.22,1.08288,1.08288,0,0,0,.34-.615,4.44068,4.44068,0,0,0,.08508-.92505v-.53h.72v.48a4.33838,4.33838,0,0,1-.165,1.25513,1.617,1.617,0,0,1-.57995.855A1.93247,1.93247,0,0,1,194.88318,23.18123Z"/><path class="a" d="M200.65308,23.17122a1.49568,1.49568,0,0,1-.925-.25513,1.372,1.372,0,0,1-.475-.74,4.32283,4.32283,0,0,1-.14-1.18506V19.39119a4.32535,4.32535,0,0,1,.14-1.18506,1.37291,1.37291,0,0,1,.475-.74,1.83181,1.83181,0,0,1,1.86511,0,1.38753,1.38753,0,0,1,.47.74,4.33,4.33,0,0,1,.14,1.18506V20.991a4.32749,4.32749,0,0,1-.14,1.18506,1.38657,1.38657,0,0,1-.47.74A1.51052,1.51052,0,0,1,200.65308,23.17122Zm0-.55005a.70118.70118,0,0,0,.55505-.19995,1.005,1.005,0,0,0,.215-.56519,7.64534,7.64534,0,0,0,.04-.825V19.35115a7.47643,7.47643,0,0,0-.04-.825,1.01941,1.01941,0,0,0-.215-.56006.69232.69232,0,0,0-.55505-.20508.67608.67608,0,0,0-.55.20508,1.04081,1.04081,0,0,0-.21.56006,7.44437,7.44437,0,0,0-.04.825v1.67993a7.6119,7.6119,0,0,0,.04.825,1.02593,1.02593,0,0,0,.21.56519A.68458.68458,0,0,0,200.65308,22.62117Z"/><path class="a" d="M205.443,23.17122a.79218.79218,0,0,1-.49-.15015.93035.93035,0,0,1-.305-.41992,1.82739,1.82739,0,0,1-.105-.65991V17.3011h.74v4.48a1.08989,1.08989,0,0,0,.135.63013.48532.48532,0,0,0,.415.17993,1.00993,1.00993,0,0,0,.5249-.15991,2.26682,2.26682,0,0,0,.495-.41016v-4.72h.7301v5.78h-.7301v-.63989a2.46485,2.46485,0,0,1-.6399.5249A1.5339,1.5339,0,0,1,205.443,23.17122Z"/><path class="a" d="M210.14282,23.08113v-5.78h.74v.79a1.75236,1.75236,0,0,1,.64-.655,1.45149,1.45149,0,0,1,.69006-.19507h.05994a.29876.29876,0,0,1,.07007.01v.78a.69947.69947,0,0,0-.17-.04492,1.28352,1.28352,0,0,0-.19006-.01514,1.20019,1.20019,0,0,0-.615.16016,1.40717,1.40717,0,0,0-.485.51v4.43994Z"/><path class="a" d="M215.76282,23.17122a1.42314,1.42314,0,0,1-1.1-.44507,1.93229,1.93229,0,0,1-.47-1.19507l.61-.18994a1.795,1.795,0,0,0,.30993.9751.85453.85453,0,0,0,.70008.30493.76949.76949,0,0,0,.585-.21509.842.842,0,0,0,.20495-.605,1.09721,1.09721,0,0,0-.16992-.56494,2.53288,2.53288,0,0,0-.53-.595l-.79-.68018a2.76858,2.76858,0,0,1-.59-.65991,1.49435,1.49435,0,0,1-.20008-.79,1.32315,1.32315,0,0,1,.175-.70483,1.16976,1.16976,0,0,1,.485-.44019,1.59017,1.59017,0,0,1,.72-.155,1.20468,1.20468,0,0,1,1,.425,1.8364,1.8364,0,0,1,.37,1.095l-.51989.17017a2.08521,2.08521,0,0,0-.12-.645.78423.78423,0,0,0-.275-.375.73313.73313,0,0,0-.425-.12012.76828.76828,0,0,0-.535.18506.6582.6582,0,0,0-.205.51489,1.01557,1.01557,0,0,0,.1.46021,1.6893,1.6893,0,0,0,.37.44995l.82007.73a5.8491,5.8491,0,0,1,.46.45,2.15723,2.15723,0,0,1,.36.53491,1.60813,1.60813,0,0,1,.14.69507,1.43288,1.43288,0,0,1-.18494.75513,1.23518,1.23518,0,0,1-.515.47A1.72714,1.72714,0,0,1,215.76282,23.17122Z"/><path class="a" d="M220.90271,23.17122a1.64966,1.64966,0,0,1-.885-.21509,1.26847,1.26847,0,0,1-.51-.71509,4.361,4.361,0,0,1-.165-1.32983v-1.46a4.21642,4.21642,0,0,1,.17005-1.34522,1.22923,1.22923,0,0,1,.52-.68994,1.72054,1.72054,0,0,1,.88-.20508,1.44641,1.44641,0,0,1,.92993.26,1.38779,1.38779,0,0,1,.44507.78516,5.96922,5.96922,0,0,1,.125,1.345v.52h-2.34v1.01a3.6406,3.6406,0,0,0,.085.885.81887.81887,0,0,0,.27.46484.76407.76407,0,0,0,.475.14014.92564.92564,0,0,0,.4-.085.60542.60542,0,0,0,.28492-.33008,1.821,1.821,0,0,0,.1051-.69507v-.3999h.71v.32007a2.20389,2.20389,0,0,1-.325,1.26489A1.32421,1.32421,0,0,1,220.90271,23.17122Zm-.83-3.47h1.62V19.221a5.26277,5.26277,0,0,0-.05-.78491.914.914,0,0,0-.215-.5.69341.69341,0,0,0-.525-.175.82633.82633,0,0,0-.485.13013.75682.75682,0,0,0-.265.46484,4.35162,4.35162,0,0,0-.08.95508Z"/><path class="a" d="M100.53455,10.379V2.27888h2.93005V2.869h-2.16v3.04h1.76v.56006h-1.76V9.80891h2.18005V10.379Z"/><path class="a" d="M107.10449,10.47908a2.04679,2.04679,0,0,1-1.265-.34009,1.73437,1.73437,0,0,1-.615-.915,4.48427,4.48427,0,0,1-.16992-1.2749v-3.22a4.50533,4.50533,0,0,1,.17492-1.32007,1.65007,1.65007,0,0,1,.625-.89013,2.12854,2.12854,0,0,1,1.25-.31983,2.02629,2.02629,0,0,1,1.145.28,1.53879,1.53879,0,0,1,.595.79492,3.72331,3.72331,0,0,1,.18006,1.2251v.49h-.72V4.51888a4.22512,4.22512,0,0,0-.08509-.90992,1.01483,1.01483,0,0,0-.345-.59008,1.18783,1.18783,0,0,0-.76-.21,1.28087,1.28087,0,0,0-.825.2251,1.11291,1.11291,0,0,0-.37.635,4.229,4.229,0,0,0-.095.94995v3.45a3.67537,3.67537,0,0,0,.115,1,1.06829,1.06829,0,0,0,.39489.6001,1.32376,1.32376,0,0,0,.78.19995,1.14479,1.14479,0,0,0,.765-.22,1.08293,1.08293,0,0,0,.34-.615,4.44063,4.44063,0,0,0,.08509-.92505v-.53h.72v.48a4.33873,4.33873,0,0,1-.165,1.25513,1.6171,1.6171,0,0,1-.58.855A1.93245,1.93245,0,0,1,107.10449,10.47908Z"/><path class="a" d="M112.79456,10.47908a2.04681,2.04681,0,0,1-1.265-.34009,1.73437,1.73437,0,0,1-.615-.915,4.48463,4.48463,0,0,1-.16992-1.2749v-3.22a4.50531,4.50531,0,0,1,.17493-1.32007,1.65,1.65,0,0,1,.625-.89013,2.12852,2.12852,0,0,1,1.25-.31983,2.02632,2.02632,0,0,1,1.145.28,1.53884,1.53884,0,0,1,.595.79492,3.72359,3.72359,0,0,1,.18005,1.2251v.49h-.72V4.51888a4.22517,4.22517,0,0,0-.08508-.90992,1.01483,1.01483,0,0,0-.345-.59008,1.18785,1.18785,0,0,0-.76-.21,1.2809,1.2809,0,0,0-.825.2251,1.11291,1.11291,0,0,0-.37.635,4.229,4.229,0,0,0-.095.94995v3.45a3.6758,3.6758,0,0,0,.115,1,1.0683,1.0683,0,0,0,.3949.6001,1.32372,1.32372,0,0,0,.78.19995,1.14476,1.14476,0,0,0,.765-.22,1.08294,1.08294,0,0,0,.34-.615,4.44068,4.44068,0,0,0,.08508-.92505v-.53h.72v.48a4.33838,4.33838,0,0,1-.165,1.25513,1.617,1.617,0,0,1-.58.855A1.93241,1.93241,0,0,1,112.79456,10.47908Z"/><path class="a" d="M121.22449,10.47908a2.04683,2.04683,0,0,1-1.265-.34009,1.73437,1.73437,0,0,1-.615-.915,4.48463,4.48463,0,0,1-.16992-1.2749v-3.22a4.50531,4.50531,0,0,1,.17493-1.32007,1.65,1.65,0,0,1,.625-.89013,2.12854,2.12854,0,0,1,1.25-.31983,2.02632,2.02632,0,0,1,1.145.28,1.53884,1.53884,0,0,1,.595.79492,3.72359,3.72359,0,0,1,.18005,1.2251v.49h-.72V4.51888a4.22517,4.22517,0,0,0-.08508-.90992,1.01483,1.01483,0,0,0-.345-.59008,1.18785,1.18785,0,0,0-.76-.21,1.28085,1.28085,0,0,0-.825.2251,1.11286,1.11286,0,0,0-.37.635,4.229,4.229,0,0,0-.095.94995v3.45a3.6758,3.6758,0,0,0,.115,1,1.0683,1.0683,0,0,0,.3949.6001,1.32372,1.32372,0,0,0,.78.19995,1.14476,1.14476,0,0,0,.765-.22,1.08288,1.08288,0,0,0,.34-.615,4.44068,4.44068,0,0,0,.08508-.92505v-.53h.72v.48a4.33838,4.33838,0,0,1-.165,1.25513,1.617,1.617,0,0,1-.57995.855A1.93247,1.93247,0,0,1,121.22449,10.47908Z"/><path class="a" d="M126.31433,10.46907a1.49564,1.49564,0,0,1-.925-.25513,1.372,1.372,0,0,1-.475-.74,4.32241,4.32241,0,0,1-.14-1.18506V6.689a4.32492,4.32492,0,0,1,.14-1.18506,1.3729,1.3729,0,0,1,.475-.74,1.83188,1.83188,0,0,1,1.86511,0,1.38748,1.38748,0,0,1,.47.74,4.33,4.33,0,0,1,.14,1.18506V8.28889a4.32749,4.32749,0,0,1-.14,1.18506,1.38653,1.38653,0,0,1-.47.74A1.51043,1.51043,0,0,1,126.31433,10.46907Zm0-.55005a.70116.70116,0,0,0,.55505-.19995,1.005,1.005,0,0,0,.215-.56519,7.64516,7.64516,0,0,0,.04-.82495V6.649a7.47622,7.47622,0,0,0-.04-.825,1.01933,1.01933,0,0,0-.215-.56006.6923.6923,0,0,0-.55505-.20508.67608.67608,0,0,0-.55.20508,1.04089,1.04089,0,0,0-.21.56006,7.44681,7.44681,0,0,0-.04.825V8.32893a7.61444,7.61444,0,0,0,.04.82495,1.026,1.026,0,0,0,.21.56519A.68458.68458,0,0,0,126.31433,9.919Z"/><path class="a" d="M129.67419,10.379V2.27888h.73V10.379Z"/><path class="a" d="M132.39417,10.379V2.27888h.73V10.379Z"/><path class="a" d="M136.46411,10.46907a1.64969,1.64969,0,0,1-.885-.21509,1.26847,1.26847,0,0,1-.51-.71509,4.361,4.361,0,0,1-.165-1.32983v-1.46a4.21642,4.21642,0,0,1,.17-1.34522,1.2292,1.2292,0,0,1,.52-.68994,1.7205,1.7205,0,0,1,.88-.20507,1.44633,1.44633,0,0,1,.92993.26,1.38772,1.38772,0,0,1,.44507.78515,5.96922,5.96922,0,0,1,.125,1.345v.52h-2.34v1.01a3.6401,3.6401,0,0,0,.085.885.81876.81876,0,0,0,.27.46484.764.764,0,0,0,.475.14014.92572.92572,0,0,0,.4-.085.60545.60545,0,0,0,.28491-.33008,1.82082,1.82082,0,0,0,.1051-.69507V8.409h.71v.32007a2.20389,2.20389,0,0,1-.325,1.26489A1.32421,1.32421,0,0,1,136.46411,10.46907Zm-.82995-3.47h1.62V6.51888a5.26282,5.26282,0,0,0-.05-.78492.91409.91409,0,0,0-.215-.5.69346.69346,0,0,0-.525-.175.82628.82628,0,0,0-.485.13013.75678.75678,0,0,0-.265.46484,4.35173,4.35173,0,0,0-.07995.95508Z"/><path class="a" d="M141.13416,12.27888a3.942,3.942,0,0,1-.99-.10986,1.3434,1.3434,0,0,1-.645-.345.82559.82559,0,0,1-.225-.595,1.03029,1.03029,0,0,1,.14-.53,1.61234,1.61234,0,0,1,.36-.42505,2.47516,2.47516,0,0,1,.45-.30493,1.05033,1.05033,0,0,1-.485-.25.52751.52751,0,0,1-.155-.38013.86144.86144,0,0,1,.18506-.54,3.43191,3.43191,0,0,1,.505-.51,1.51015,1.51015,0,0,1-.56506-.72,2.95992,2.95992,0,0,1-.165-1.04,2.807,2.807,0,0,1,.175-1.01489,1.64886,1.64886,0,0,1,.53-.73,1.45059,1.45059,0,0,1,.915-.27514,1.3406,1.3406,0,0,1,.79993.2102,1.39621,1.39621,0,0,1,.44006.51,1.98193,1.98193,0,0,1,.30994-.34521,1.51779,1.51779,0,0,1,.47-.30494l.15-.05.20007.51a1.5942,1.5942,0,0,0-.3501.115,3.307,3.307,0,0,0-.355.18506.93243.93243,0,0,0-.245.2,2.72126,2.72126,0,0,1,.125.49,3.07713,3.07713,0,0,1,.055.52,3.21368,3.21368,0,0,1-.155,1.03,1.3677,1.3677,0,0,1-1.43506.99,1.76011,1.76011,0,0,1-.31494-.03q-.165-.03-.275-.05981a3.1871,3.1871,0,0,0-.265.32495.58152.58152,0,0,0-.125.335.24159.24159,0,0,0,.115.21509.888.888,0,0,0,.365.105l.92005.13989a2.08447,2.08447,0,0,1,1.075.41993,1.14325,1.14325,0,0,1,.375.92016,1.14668,1.14668,0,0,1-.245.75,1.44138,1.44138,0,0,1-.66992.44483A3.08441,3.08441,0,0,1,141.13416,12.27888Zm.03-.58984a2.16335,2.16335,0,0,0,.94-.17505.58771.58771,0,0,0,.36-.56494.69948.69948,0,0,0-.085-.3501.65988.65988,0,0,0-.32007-.25488,2.81692,2.81692,0,0,0-.68493-.17505l-.74-.1001a3.47557,3.47557,0,0,0-.32007.24512,1.6857,1.6857,0,0,0-.29492.32495.69974.69974,0,0,0-.125.40991.51027.51027,0,0,0,.31494.48511A2.25668,2.25668,0,0,0,141.16418,11.689Zm.00989-3.65015a.77308.77308,0,0,0,.785-.49,1.82112,1.82112,0,0,0,.13-.49,4.11971,4.11971,0,0,0,.035-.53,3.42727,3.42727,0,0,0-.04-.52,1.90385,1.90385,0,0,0-.14-.48487.878.878,0,0,0-.28491-.36011.80535.80535,0,0,0-.48511-.135.82844.82844,0,0,0-.495.14014.91867.91867,0,0,0-.29993.365,1.66234,1.66234,0,0,0-.14.48487,3.80765,3.80765,0,0,0-.035.51,4.62132,4.62132,0,0,0,.03.51,1.5721,1.5721,0,0,0,.135.49512.9196.9196,0,0,0,.29993.365A.84461.84461,0,0,0,141.17407,8.03889Z"/><path class="a" d="M146.12415,10.46907a1.64966,1.64966,0,0,1-.885-.21509,1.26842,1.26842,0,0,1-.51-.71509,4.36071,4.36071,0,0,1-.165-1.32983v-1.46a4.21675,4.21675,0,0,1,.17-1.34522,1.2292,1.2292,0,0,1,.52-.68994,1.72054,1.72054,0,0,1,.88-.20507,1.44635,1.44635,0,0,1,.92993.26,1.38772,1.38772,0,0,1,.44507.78515,5.96922,5.96922,0,0,1,.125,1.345v.52h-2.34v1.01a3.6406,3.6406,0,0,0,.085.885.81887.81887,0,0,0,.27.46484.764.764,0,0,0,.475.14014.92571.92571,0,0,0,.4-.085.60537.60537,0,0,0,.28491-.33008,1.82082,1.82082,0,0,0,.1051-.69507V8.409h.71v.32007a2.20381,2.20381,0,0,1-.325,1.26489A1.32419,1.32419,0,0,1,146.12415,10.46907Zm-.83-3.47h1.62V6.51888a5.2643,5.2643,0,0,0-.05-.78492.914.914,0,0,0-.215-.5.69343.69343,0,0,0-.525-.175.82629.82629,0,0,0-.485.13013.75682.75682,0,0,0-.265.46484,4.35162,4.35162,0,0,0-.08.95508Z"/><path class="a" d="M153.494,10.46907a1.49564,1.49564,0,0,1-.925-.25513,1.372,1.372,0,0,1-.475-.74,4.32283,4.32283,0,0,1-.14-1.18506V6.689a4.32535,4.32535,0,0,1,.14-1.18506,1.373,1.373,0,0,1,.475-.74,1.83188,1.83188,0,0,1,1.86511,0,1.38747,1.38747,0,0,1,.47.74,4.33,4.33,0,0,1,.14,1.18506V8.28889a4.32745,4.32745,0,0,1-.14,1.18506,1.38651,1.38651,0,0,1-.47.74A1.51045,1.51045,0,0,1,153.494,10.46907Zm0-.55005a.70118.70118,0,0,0,.555-.19995,1.005,1.005,0,0,0,.215-.56519,7.64516,7.64516,0,0,0,.04-.82495V6.649a7.47622,7.47622,0,0,0-.04-.825,1.01941,1.01941,0,0,0-.215-.56006.69232.69232,0,0,0-.555-.20508.67608.67608,0,0,0-.55.20508,1.04089,1.04089,0,0,0-.21.56006,7.44681,7.44681,0,0,0-.04.825V8.32893a7.61444,7.61444,0,0,0,.04.82495,1.026,1.026,0,0,0,.21.56519A.68458.68458,0,0,0,153.494,9.919Z"/><path class="a" d="M157.11389,10.379V5.129h-.74v-.53h.74V3.9991a3.68264,3.68264,0,0,1,.07-.76.90006.90006,0,0,1,.295-.52,1.061,1.061,0,0,1,.695-.19019,2.96694,2.96694,0,0,1,.305.01514,1.66356,1.66356,0,0,1,.28491.05493v.54c-.05993-.01318-.12841-.0249-.20495-.03491a1.604,1.604,0,0,0-.205-.01514q-.33013,0-.415.20508a1.76308,1.76308,0,0,0-.085.635V4.599h.92993v.53h-.92993v5.25Z"/><path class="a" d="M163.02368,10.379V2.27888h1.74a2.70758,2.70758,0,0,1,.93006.14014,1.43508,1.43508,0,0,1,.61.40991,1.67566,1.67566,0,0,1,.335.645,3.05139,3.05139,0,0,1,.1051.82495,2.98541,2.98541,0,0,1-.09509.75513,1.51919,1.51919,0,0,1-.31494.61987,1.06307,1.06307,0,0,1-.62.335,1.45778,1.45778,0,0,1,.74.44506,1.77541,1.77541,0,0,1,.375.73,3.4768,3.4768,0,0,1,.105.855,4.62027,4.62027,0,0,1-.085.905,2.0384,2.0384,0,0,1-.3.74512,1.49278,1.49278,0,0,1-.585.50488,2.09549,2.09549,0,0,1-.94007.18506Zm.76-4.6101h1.1a1.197,1.197,0,0,0,.72009-.18482.96951.96951,0,0,0,.35-.51,2.65733,2.65733,0,0,0,.1-.77515,2.09735,2.09735,0,0,0-.135-.80981.8791.8791,0,0,0-.465-.47021,2.37493,2.37493,0,0,0-.95008-.14991h-.72Zm0,4.04h1.09009a1.1439,1.1439,0,0,0,1.05493-.42993,2.62792,2.62792,0,0,0,.265-1.34009,2.89084,2.89084,0,0,0-.12-.86987,1.1565,1.1565,0,0,0-.405-.595,1.25855,1.25855,0,0,0-.775-.21509h-1.11Z"/><path class="a" d="M170.0437,10.46907a1.64969,1.64969,0,0,1-.885-.21509,1.26847,1.26847,0,0,1-.51-.71509,4.361,4.361,0,0,1-.165-1.32983v-1.46a4.21642,4.21642,0,0,1,.17005-1.34522,1.2292,1.2292,0,0,1,.52-.68994,1.7205,1.7205,0,0,1,.88-.20507,1.44633,1.44633,0,0,1,.92993.26,1.38772,1.38772,0,0,1,.44507.78515,5.96922,5.96922,0,0,1,.125,1.345v.52h-2.34v1.01a3.6401,3.6401,0,0,0,.085.885.81876.81876,0,0,0,.27.46484.764.764,0,0,0,.475.14014.92572.92572,0,0,0,.4-.085.60545.60545,0,0,0,.28491-.33008,1.82082,1.82082,0,0,0,.1051-.69507V8.409h.71v.32007a2.20389,2.20389,0,0,1-.325,1.26489A1.32421,1.32421,0,0,1,170.0437,10.46907Zm-.82995-3.47h1.62V6.51888a5.26282,5.26282,0,0,0-.05-.78492.91409.91409,0,0,0-.215-.5.69346.69346,0,0,0-.525-.175.82628.82628,0,0,0-.485.13013.75678.75678,0,0,0-.265.46484,4.35173,4.35173,0,0,0-.07995.95508Z"/><path class="a" d="M174.24365,10.46907a1.06793,1.06793,0,0,1-.61011-.17505,1.18378,1.18378,0,0,1-.4049-.47,1.43982,1.43982,0,0,1-.145-.645,2.00386,2.00386,0,0,1,.125-.75,1.48279,1.48279,0,0,1,.4-.55493,3.636,3.636,0,0,1,.72-.48022q.44477-.23475,1.085-.52491V6.45906a4.21049,4.21049,0,0,0-.06494-.835.75634.75634,0,0,0-.22009-.43506.658.658,0,0,0-.43494-.13013.90354.90354,0,0,0-.41.09009.66227.66227,0,0,0-.28992.30493,1.32326,1.32326,0,0,0-.11011.595v.2002l-.72-.01a2.00388,2.00388,0,0,1,.375-1.30518,1.49808,1.49808,0,0,1,1.19507-.425,1.22574,1.22574,0,0,1,1.095.46508,2.618,2.618,0,0,1,.31494,1.44507V9.22908q0,.14978.01.385.0099.23474.02.44482.0099.21021.02.32007h-.65q-.02014-.18969-.05994-.42505-.0401-.23474-.05-.375a1.45225,1.45225,0,0,1-.425.62012A1.11212,1.11212,0,0,1,174.24365,10.46907Zm.23-.62012a.7529.7529,0,0,0,.39991-.10986,1.44336,1.44336,0,0,0,.32006-.26514,1.42623,1.42623,0,0,0,.22-.31494V7.359q-.43011.2201-.735.39991a3.14157,3.14157,0,0,0-.495.35009,1.07067,1.07067,0,0,0-.28.385,1.30419,1.30419,0,0,0-.09.50513.889.889,0,0,0,.2.65478A.63957.63957,0,0,0,174.47363,9.849Z"/><path class="a" d="M178.76343,10.46907a.79218.79218,0,0,1-.49-.15015.9303.9303,0,0,1-.30506-.41992,1.82761,1.82761,0,0,1-.105-.65991V4.599h.74v4.48a1.09,1.09,0,0,0,.135.63013.48534.48534,0,0,0,.415.17993,1.0099,1.0099,0,0,0,.5249-.15991,2.26659,2.26659,0,0,0,.495-.41016V4.599h.7301v5.78h-.7301V9.73909a2.46481,2.46481,0,0,1-.63989.5249A1.534,1.534,0,0,1,178.76343,10.46907Z"/><path class="a" d="M184.10339,10.44905a1.07907,1.07907,0,0,1-.645-.165.83722.83722,0,0,1-.31-.45,2.29754,2.29754,0,0,1-.085-.655V5.07893h-.71v-.48h.71v-1.79h.73v1.79h.96v.48h-.96v4.03a1.33855,1.33855,0,0,0,.095.595q.095.175.415.17505a1.59989,1.59989,0,0,0,.205-.01489q.115-.015.21509-.03516V10.389a3.02151,3.02151,0,0,1-.31006.04492Q184.25329,10.44893,184.10339,10.44905Z"/><path class="a" d="M186.07324,11.81892V11.2491a2.851,2.851,0,0,0,.755-.0752.49324.49324,0,0,0,.42492-.5249,1.95654,1.95654,0,0,0-.05993-.41992q-.06006-.26-.13-.54L185.87317,4.599h.7301l1,4.91993.97-4.91993h.74l-1.4,6.18994a1.26058,1.26058,0,0,1-.285.595,1.196,1.196,0,0,1-.53991.33007,2.79047,2.79047,0,0,1-.82508.105Z"/><path class="a" d="M195.363,10.47908a1.97609,1.97609,0,0,1-1.03492-.25,1.61244,1.61244,0,0,1-.625-.67017A2.02725,2.02725,0,0,1,193.493,8.639a2.4376,2.4376,0,0,1,.31507-1.20508,5.311,5.311,0,0,1,.985-1.20483q-.28015-.4801-.495-.86011a4.35013,4.35013,0,0,1-.335-.73,2.233,2.233,0,0,1-.12-.73,1.906,1.906,0,0,1,.21-.925,1.39906,1.39906,0,0,1,.595-.585,1.961,1.961,0,0,1,.915-.19995,2.06823,2.06823,0,0,1,.87.16992,1.30925,1.30925,0,0,1,.575.49512,1.42243,1.42243,0,0,1,.20507.7749,1.92267,1.92267,0,0,1-.23.8999,4.65854,4.65854,0,0,1-.6101.88013,9.3327,9.3327,0,0,1-.85.85986l1.56006,2.46021a2.693,2.693,0,0,0,.31494-.59521,5.22926,5.22926,0,0,0,.22-.70484,3.36659,3.36659,0,0,0,.09509-.65015h.71a3.19576,3.19576,0,0,1-.115.8,4.90934,4.90934,0,0,1-.32007.87012,3.73137,3.73137,0,0,1-.465.75,1.46973,1.46973,0,0,0,.44507.3999.99384.99384,0,0,0,.475.12012v.72a.97511.97511,0,0,1-.1-.00513.65261.65261,0,0,1-.09009-.01489,1.22482,1.22482,0,0,1-.45-.125,1.60973,1.60973,0,0,1-.385-.27q-.175-.16516-.335-.345a2.53928,2.53928,0,0,1-.71509.55493A2.0833,2.0833,0,0,1,195.363,10.47908Zm0-.61011a1.4196,1.4196,0,0,0,.71008-.175,2.37756,2.37756,0,0,0,.59-.48486l-1.58-2.46a3.75,3.75,0,0,0-.655.97485,2.306,2.306,0,0,0-.195.915,1.6503,1.6503,0,0,0,.105.57495,1.0185,1.0185,0,0,0,.35.47A1.09538,1.09538,0,0,0,195.363,9.869Zm-.1-4.01a6.95219,6.95219,0,0,0,.6-.68506,3.72681,3.72681,0,0,0,.45508-.76A1.926,1.926,0,0,0,196.493,3.629a.73891.73891,0,0,0-.25989-.6101,1.06626,1.06626,0,0,0-.69006-.21.85707.85707,0,0,0-.745.325,1.27117,1.27117,0,0,0-.235.76513,2.41011,2.41011,0,0,0,.18494.915A9.57267,9.57267,0,0,0,195.26306,5.859Z"/><path class="a" d="M204.833,10.47908a2.014,2.014,0,0,1-1.09509-.27515,1.705,1.705,0,0,1-.65491-.77,3.47326,3.47326,0,0,1-.27-1.155l.66992-.19995a4.39122,4.39122,0,0,0,.18.905,1.3492,1.3492,0,0,0,.41.64014,1.16179,1.16179,0,0,0,.7699.23486,1.18361,1.18361,0,0,0,.84008-.28,1.16625,1.16625,0,0,0,.29993-.88989,1.61535,1.61535,0,0,0-.265-.93017,5.0042,5.0042,0,0,0-.725-.81983L203.563,5.56892a2.56255,2.56255,0,0,1-.56006-.76489,2.061,2.061,0,0,1-.17993-.865,1.64544,1.64544,0,0,1,.5-1.29,1.91228,1.91228,0,0,1,1.32995-.44995,2.54856,2.54856,0,0,1,.775.10986,1.4434,1.4434,0,0,1,.59.355,1.69106,1.69106,0,0,1,.385.635,3.85737,3.85737,0,0,1,.18995.9502L205.943,4.419a3.5929,3.5929,0,0,0-.165-.875,1.09473,1.09473,0,0,0-.39-.55493,1.24277,1.24277,0,0,0-.735-.19019,1.25933,1.25933,0,0,0-.81994.26.98273.98273,0,0,0-.32007.81006,1.41164,1.41164,0,0,0,.125.6001,2.03928,2.03928,0,0,0,.44507.57983l1.42993,1.3501a5.17287,5.17287,0,0,1,.83,1,2.26033,2.26033,0,0,1,.35009,1.24,2.02671,2.02671,0,0,1-.235,1.02,1.495,1.495,0,0,1-.655.615A2.18852,2.18852,0,0,1,204.833,10.47908Z"/><path class="a" d="M209.63281,10.44905a1.07907,1.07907,0,0,1-.645-.165.83729.83729,0,0,1-.31006-.45,2.29791,2.29791,0,0,1-.085-.655V5.07893h-.71v-.48h.71v-1.79h.73v1.79h.96v.48h-.96v4.03a1.33873,1.33873,0,0,0,.095.595q.095.175.415.17505a1.59989,1.59989,0,0,0,.205-.01489q.115-.015.21509-.03516V10.389a3.02151,3.02151,0,0,1-.31006.04492Q209.78272,10.44893,209.63281,10.44905Z"/><path class="a" d="M211.60278,11.81892V11.2491a2.851,2.851,0,0,0,.755-.0752.49324.49324,0,0,0,.42492-.5249,1.95654,1.95654,0,0,0-.05993-.41992q-.06006-.26-.13-.54L211.40271,4.599h.7301l1,4.91993.97-4.91993h.74l-1.4,6.18994a1.26058,1.26058,0,0,1-.285.595,1.196,1.196,0,0,1-.53991.33007,2.79047,2.79047,0,0,1-.82508.105Z"/><path class="a" d="M216.3728,10.379V2.27888h.73V10.379Z"/><path class="a" d="M220.44263,10.46907a1.64966,1.64966,0,0,1-.885-.21509,1.26842,1.26842,0,0,1-.51-.71509,4.36071,4.36071,0,0,1-.165-1.32983v-1.46a4.21675,4.21675,0,0,1,.17-1.34522,1.2292,1.2292,0,0,1,.52-.68994,1.72054,1.72054,0,0,1,.88-.20507,1.44635,1.44635,0,0,1,.92993.26,1.38772,1.38772,0,0,1,.44507.78515,5.96922,5.96922,0,0,1,.125,1.345v.52h-2.34v1.01a3.6406,3.6406,0,0,0,.085.885.81887.81887,0,0,0,.27.46484.76405.76405,0,0,0,.475.14014.92567.92567,0,0,0,.4-.085.60537.60537,0,0,0,.28491-.33008,1.8208,1.8208,0,0,0,.10511-.69507V8.409h.71v.32007a2.20389,2.20389,0,0,1-.325,1.26489A1.32421,1.32421,0,0,1,220.44263,10.46907Zm-.83-3.47h1.62V6.51888a5.26416,5.26416,0,0,0-.05005-.78492.914.914,0,0,0-.215-.5.69341.69341,0,0,0-.525-.175.82631.82631,0,0,0-.485.13013.75682.75682,0,0,0-.265.46484,4.35162,4.35162,0,0,0-.08.95508Z"/></svg>