<svg width="36" height="29" viewBox="0 0 36 29" fill="none" xmlns="http://www.w3.org/2000/svg">
<path d="M11.5551 28.9785C24.9163 28.9785 32.2293 17.8904 32.2293 8.29C32.2293 7.97958 32.2293 7.66789 32.2129 7.35621C33.6304 6.33408 34.865 5.04444 35.841 3.58319C34.5383 4.16491 33.136 4.54852 31.6618 4.7315C33.1625 3.83809 34.3113 2.40711 34.865 0.7061C33.4614 1.54147 31.9014 2.13833 30.2443 2.46516C28.9126 1.04807 27.0286 0.166018 24.9453 0.166018C20.9338 0.166018 17.6764 3.42924 17.6764 7.44202C17.6764 8.0086 17.747 8.5613 17.8605 9.10012C11.8237 8.80232 6.46915 5.89495 2.88389 1.49982C2.25965 2.57747 1.90529 3.82547 1.90529 5.15675C1.90529 7.68177 3.19537 9.90899 5.13744 11.2125C3.94572 11.1696 2.82714 10.844 1.8498 10.3052V10.4049C1.8498 13.9205 4.35683 16.8695 7.67348 17.5345C7.06312 17.7061 6.42627 17.7894 5.75916 17.7894C5.29256 17.7894 4.83983 17.749 4.39971 17.6632C5.32156 20.5567 8.01271 22.654 11.1869 22.7108C8.6937 24.6667 5.56117 25.8289 2.16129 25.8289C1.57867 25.8289 0.99983 25.8024 0.432343 25.7304C3.63423 27.7722 7.46036 28.9785 11.5551 28.9785Z" fill="#2A3940"/>
</svg>
